<mxfile host="65bd71144e">
    <diagram id="3UjHdNgNM3Lhc18XAHrN" name="ページ1">
        <mxGraphModel dx="1136" dy="647" grid="1" gridSize="10" guides="1" tooltips="1" connect="1" arrows="1" fold="1" page="1" pageScale="1" pageWidth="827" pageHeight="1169" math="0" shadow="0">
            <root>
                <mxCell id="0"/>
                <mxCell id="1" parent="0"/>
                <mxCell id="15" value="" style="rounded=0;whiteSpace=wrap;html=1;" vertex="1" parent="1">
                    <mxGeometry x="320" y="320" width="120" height="120" as="geometry"/>
                </mxCell>
                <mxCell id="13" value="&lt;b&gt;Google &lt;/b&gt;Cloud Platform" style="fillColor=#F6F6F6;strokeColor=none;shadow=0;gradientColor=none;fontSize=14;align=left;spacing=10;fontColor=#717171;9E9E9E;verticalAlign=top;spacingTop=-4;fontStyle=0;spacingLeft=40;html=1;" vertex="1" parent="1">
                    <mxGeometry x="450" y="197" width="420" height="350" as="geometry"/>
                </mxCell>
                <mxCell id="14" value="" style="shape=mxgraph.gcp2.google_cloud_platform;fillColor=#F6F6F6;strokeColor=none;shadow=0;gradientColor=none;" vertex="1" parent="13">
                    <mxGeometry width="23" height="20" relative="1" as="geometry">
                        <mxPoint x="20" y="10" as="offset"/>
                    </mxGeometry>
                </mxCell>
                <mxCell id="9" value="" style="editableCssRules=.*;shape=image;verticalLabelPosition=bottom;labelBackgroundColor=#ffffff;verticalAlign=top;aspect=fixed;imageAspect=0;image=data:image/svg+xml,PHN2ZyB4bWxucz0iaHR0cDovL3d3dy53My5vcmcvMjAwMC9zdmciIHhtbG5zOnY9Imh0dHBzOi8vdmVjdGEuaW8vbmFubyIgd2lkdGg9IjM2NS40NjQ5OTY3NzA0MjQ5MyIgaGVpZ2h0PSIzNzkuMjIyOTk0NDYzNTc3OTUiIHZpZXdCb3g9IjAgMCA5Ni42OTU5OTkxNDU1MDc4MSAxMDAuMzM1OTk4NTM1MTU2MjUiPiYjeGE7PHN0eWxlIHR5cGU9InRleHQvY3NzIj4mI3hhOwkuc3Qwe2ZpbGw6IzQyODVmNDt9JiN4YTsJLnN0MXtmaWxsOiNhZWNiZmE7fSYjeGE7PC9zdHlsZT4mI3hhOwk8cGF0aCBjbGFzcz0ic3QwIiBkPSJNMjkuNzk0IDEwMC4zMzZMNDYuOTIgNTAuMTY4aDQ5Ljc3NnpNMCA5OS42NzFsMTIuOTc2LTQ5LjUwMkgyOS4yMkwxNi44OTcgOTIuMDU0eiIvPiYjeGE7CTxwYXRoIGNsYXNzPSJzdDEiIGQ9Ik0yOS43OTQgMEw0Ni45MiA1MC4xNjhoNDkuNzc2ek0wIC42NjZsMTIuOTc2IDQ5LjUwMkgyOS4yMkwxNi44OTcgOC4yODN6Ii8+JiN4YTs8L3N2Zz4=;" vertex="1" parent="13">
                    <mxGeometry x="350.0003225806451" y="177" width="50" height="50" as="geometry"/>
                </mxCell>
                <mxCell id="10" value="" style="editableCssRules=.*;shape=image;verticalLabelPosition=bottom;labelBackgroundColor=#ffffff;verticalAlign=top;aspect=fixed;imageAspect=0;image=data:image/svg+xml,PHN2ZyB4bWxucz0iaHR0cDovL3d3dy53My5vcmcvMjAwMC9zdmciIHhtbG5zOnY9Imh0dHBzOi8vdmVjdGEuaW8vbmFubyIgd2lkdGg9IjM2NS40NjQ5OTY3NzA0MjQ5MyIgaGVpZ2h0PSIzNzkuMjIyOTk0NDYzNTc3OTUiIHZpZXdCb3g9IjAgMCA5Ni42OTU5OTkxNDU1MDc4MSAxMDAuMzM1OTk4NTM1MTU2MjUiPiYjeGE7PHN0eWxlIHR5cGU9InRleHQvY3NzIj4mI3hhOwkuc3Qwe2ZpbGw6IzQyODVmNDt9JiN4YTsJLnN0MXtmaWxsOiNhZWNiZmE7fSYjeGE7PC9zdHlsZT4mI3hhOwk8cGF0aCBjbGFzcz0ic3QwIiBkPSJNMjkuNzk0IDEwMC4zMzZMNDYuOTIgNTAuMTY4aDQ5Ljc3NnpNMCA5OS42NzFsMTIuOTc2LTQ5LjUwMkgyOS4yMkwxNi44OTcgOTIuMDU0eiIvPiYjeGE7CTxwYXRoIGNsYXNzPSJzdDEiIGQ9Ik0yOS43OTQgMEw0Ni45MiA1MC4xNjhoNDkuNzc2ek0wIC42NjZsMTIuOTc2IDQ5LjUwMkgyOS4yMkwxNi44OTcgOC4yODN6Ii8+JiN4YTs8L3N2Zz4=;" vertex="1" parent="13">
                    <mxGeometry x="350.0003225806451" y="83" width="50" height="50" as="geometry"/>
                </mxCell>
                <mxCell id="8" value="" style="editableCssRules=.*;shape=image;verticalLabelPosition=bottom;labelBackgroundColor=#ffffff;verticalAlign=top;aspect=fixed;imageAspect=0;image=data:image/svg+xml,PHN2ZyB4bWxucz0iaHR0cDovL3d3dy53My5vcmcvMjAwMC9zdmciIHhtbG5zOnY9Imh0dHBzOi8vdmVjdGEuaW8vbmFubyIgd2lkdGg9IjM2NS40NjQ5OTY3NzA0MjQ5MyIgaGVpZ2h0PSIzNzkuMjIyOTk0NDYzNTc3OTUiIHZpZXdCb3g9IjAgMCA5Ni42OTU5OTkxNDU1MDc4MSAxMDAuMzM1OTk4NTM1MTU2MjUiPiYjeGE7PHN0eWxlIHR5cGU9InRleHQvY3NzIj4mI3hhOwkuc3Qwe2ZpbGw6IzQyODVmNDt9JiN4YTsJLnN0MXtmaWxsOiNhZWNiZmE7fSYjeGE7PC9zdHlsZT4mI3hhOwk8cGF0aCBjbGFzcz0ic3QwIiBkPSJNMjkuNzk0IDEwMC4zMzZMNDYuOTIgNTAuMTY4aDQ5Ljc3NnpNMCA5OS42NzFsMTIuOTc2LTQ5LjUwMkgyOS4yMkwxNi44OTcgOTIuMDU0eiIvPiYjeGE7CTxwYXRoIGNsYXNzPSJzdDEiIGQ9Ik0yOS43OTQgMEw0Ni45MiA1MC4xNjhoNDkuNzc2ek0wIC42NjZsMTIuOTc2IDQ5LjUwMkgyOS4yMkwxNi44OTcgOC4yODN6Ii8+JiN4YTs8L3N2Zz4=;" vertex="1" parent="13">
                    <mxGeometry x="350.0003225806451" y="263" width="50" height="50" as="geometry"/>
                </mxCell>
                <mxCell id="26" style="edgeStyle=none;html=1;entryX=0;entryY=0.5;entryDx=0;entryDy=0;" edge="1" parent="13" source="11" target="9">
                    <mxGeometry relative="1" as="geometry"/>
                </mxCell>
                <mxCell id="27" style="edgeStyle=none;html=1;entryX=0;entryY=0.5;entryDx=0;entryDy=0;" edge="1" parent="13" source="11" target="10">
                    <mxGeometry relative="1" as="geometry"/>
                </mxCell>
                <mxCell id="28" style="edgeStyle=none;html=1;entryX=0;entryY=0.5;entryDx=0;entryDy=0;" edge="1" parent="13" source="11" target="8">
                    <mxGeometry relative="1" as="geometry"/>
                </mxCell>
                <mxCell id="11" value="" style="editableCssRules=.*;shape=image;verticalLabelPosition=bottom;labelBackgroundColor=#ffffff;verticalAlign=top;aspect=fixed;imageAspect=0;image=data:image/svg+xml,PHN2ZyB4bWxucz0iaHR0cDovL3d3dy53My5vcmcvMjAwMC9zdmciIHhtbG5zOnY9Imh0dHBzOi8vdmVjdGEuaW8vbmFubyIgd2lkdGg9IjM2NS40NjQ5OTY3NzA0MjQ5MyIgaGVpZ2h0PSIzNzkuMjIyOTk0NDYzNTc3OTUiIHZpZXdCb3g9IjAgMCA5Ni42OTU5OTkxNDU1MDc4MSAxMDAuMzM1OTk4NTM1MTU2MjUiPiYjeGE7PHN0eWxlIHR5cGU9InRleHQvY3NzIj4mI3hhOwkuc3Qwe2ZpbGw6IzQyODVmNDt9JiN4YTsJLnN0MXtmaWxsOiNhZWNiZmE7fSYjeGE7PC9zdHlsZT4mI3hhOwk8cGF0aCBjbGFzcz0ic3QwIiBkPSJNMjkuNzk0IDEwMC4zMzZMNDYuOTIgNTAuMTY4aDQ5Ljc3NnpNMCA5OS42NzFsMTIuOTc2LTQ5LjUwMkgyOS4yMkwxNi44OTcgOTIuMDU0eiIvPiYjeGE7CTxwYXRoIGNsYXNzPSJzdDEiIGQ9Ik0yOS43OTQgMEw0Ni45MiA1MC4xNjhoNDkuNzc2ek0wIC42NjZsMTIuOTc2IDQ5LjUwMkgyOS4yMkwxNi44OTcgOC4yODN6Ii8+JiN4YTs8L3N2Zz4=;" vertex="1" parent="13">
                    <mxGeometry x="182.9032258064516" y="178" width="50" height="50" as="geometry"/>
                </mxCell>
                <mxCell id="25" style="edgeStyle=none;html=1;" edge="1" parent="13" source="12" target="11">
                    <mxGeometry relative="1" as="geometry"/>
                </mxCell>
                <mxCell id="12" value="" style="editableCssRules=.*;shape=image;verticalLabelPosition=bottom;labelBackgroundColor=#ffffff;verticalAlign=top;aspect=fixed;imageAspect=0;image=data:image/svg+xml,PHN2ZyB4bWxucz0iaHR0cDovL3d3dy53My5vcmcvMjAwMC9zdmciIHhtbG5zOnY9Imh0dHBzOi8vdmVjdGEuaW8vbmFubyIgd2lkdGg9IjM2NS40NjQ5OTY3NzA0MjQ5MyIgaGVpZ2h0PSIzNzkuMjIyOTk0NDYzNTc3OTUiIHZpZXdCb3g9IjAgMCA5Ni42OTU5OTkxNDU1MDc4MSAxMDAuMzM1OTk4NTM1MTU2MjUiPiYjeGE7PHN0eWxlIHR5cGU9InRleHQvY3NzIj4mI3hhOwkuc3Qwe2ZpbGw6IzQyODVmNDt9JiN4YTsJLnN0MXtmaWxsOiNhZWNiZmE7fSYjeGE7PC9zdHlsZT4mI3hhOwk8cGF0aCBjbGFzcz0ic3QwIiBkPSJNMjkuNzk0IDEwMC4zMzZMNDYuOTIgNTAuMTY4aDQ5Ljc3NnpNMCA5OS42NzFsMTIuOTc2LTQ5LjUwMkgyOS4yMkwxNi44OTcgOTIuMDU0eiIvPiYjeGE7CTxwYXRoIGNsYXNzPSJzdDEiIGQ9Ik0yOS43OTQgMEw0Ni45MiA1MC4xNjhoNDkuNzc2ek0wIC42NjZsMTIuOTc2IDQ5LjUwMkgyOS4yMkwxNi44OTcgOC4yODN6Ii8+JiN4YTs8L3N2Zz4=;" vertex="1" parent="13">
                    <mxGeometry x="60.967741935483865" y="178" width="50" height="50" as="geometry"/>
                </mxCell>
                <mxCell id="31" value="" style="shape=image;verticalLabelPosition=bottom;labelBackgroundColor=default;verticalAlign=top;aspect=fixed;imageAspect=0;image=data:image/png,iVBORw0KGgoAAAANSUhEUgAAAggAAAGWCAYAAAAdeHvNAAAAAXNSR0IArs4c6QAAIABJREFUeF7svQmYJNlVHvpnRO6Ztfa+b9Ozb5pFo42REGIRmFXsYBACjPGHHxj7+TMPY/wZxGZhszyw4RlbWCAED9AGyICkJwxCnyWNtpnRzPRM9/S+VtdelWtEPJ9z74m4ERW5VHVWVXbVzVErKzMjYzk3Mu4f//nPfzJBEASwDxsBGwEbARsBGwEbARsBIwIZCxDs+WAjYCNgI2AjYCNgI5CMgAUI9pywEbARsBGwEbARsBFYEQELEOxJYSNgI2AjYCNgI2AjYAGCPQdsBGwEbARsBGwEbAR6R8AyCL1jZJewEbARsBGwEbAR2HYRsABh2w25PWAbARsBGwEbARuB3hGwAKF3jOwSNgI2AjYCNgI2AtsuAhYgbLshtwdsI2AjYCNgI2Aj0DsCFiD0jpFdwkbARsBGwEbARmDbRcAChG035PaAbQRsBGwEbARsBHpHwAKE3jGyS9gI2AjYCNgI2AhsuwhYgLDthtwesI2AjYCNgI2AjUDvCFiA0DtGdgkbARsBGwEbARuBbRcBCxC23ZDbA7YRsBGwEbARsBHoHQELEHrHyC5hI2AjYCNgI2AjsO0iYAHCthtye8A2AjYCNgI2AjYCvSNgAULvGNklbARsBGwEbARsBLZdBCxA2HZDbg/YRsBGwEbARsBGoHcELEDoHSO7hI2AjYCNgI2AjcC2i4AFCNtuyO0B2wjYCNgI2AjYCPSOgAUIvWNkl7ARsBGwEbARsBHYdhGwAGHbDbk9YBsBGwEbARsBG4HeEbAAoXeM7BI2AjYCNgI2AjYC2y4CFiBsuyG3B2wjYCNgI2AjYCPQOwIWIPSOkV3CRsBGwEbARsBGYNtFwAKEbTfk9oBtBGwEbARsBGwEekfAAoTeMbJL2AjYCNgI2AjYCGy7CFiAsO2G3B6wjYCNgI2AjYCNQO8IWIDQO0Z2CRsBGwEbARsBG4FtFwELELbdkNsDthGwEbARsBGwEegdAQsQesfILmEjYCNgI2AjYCOw7SJgAcK2G3J7wDYCtxaBIFj5/Uzm1tZpv20jYCMwfBGwAGH4xsTukY3A0EQgDQz0u3MWNPQbKbucjcBwRsAChOEcF7tXNgKbGoFbAQbJHbdAYVOH0m7cRmDNEbAAYc2hs1+0EdiaEegEDoI+UEOmCxqwQGFrni/2qLZuBCxA2Lpja4/MRmDVEbgVcGBurBNQsCBh1UNiv2AjsGkRsABh00JvN2wjMFwRSAMHSdagF4mQBABpQMGChOEad7s3NgKdImABgj03bARsBJCc+E1gYH4WX07KGaISBnPyj/+9sszBAgV74tkIDHcELEAY7vGxe2cjsO4R6AQO0oBBgAD0v453HIwDMugXKFiQsO7DazdgI7DmCFiAsObQ2S/aCNz+EegFDtTnATMMsqx6K90MQeMDRM8RWBAwkEw7WJBw+59H9gi2ZgQsQNia42qPykagrwjEWYJo0hdAQKkGepeXY5CgXqeyCBniDsDsAYMAfmY+IWQULEjoa1jsQjYCQxEBCxCGYhjsTtgIbE4EQlZA/2G+joGEAPA1UqAnAgLqtdrvaOJXLxwNDmhJx1FfcPRCFiRszljbrdoIrDYCFiCsNmJ2eRuBLRKBNPZgJSjQ6QVfPWezQD7n8ITvez6W6wF8XwEGxRgQXwANCgQoKAaB/znq8zSQYFMNW+TEsoexZSJgAcKWGUp7IDYCq4tAEiCsAAcECogpoGcGAQHKlaxKH+hHs9nG0pIghCi9oBgExR4IKHAIHAiICBkGnY7Q67MgYXVjaJe2EVjPCFiAsJ7Rteu2ERjSCHRmDwJOHQS+eiZwQAwBPeezPkrlAh/Ri60XcUfuDmQCYHGpiVpdHSgDAkkxOAQQFIsg4MCChCE9Iexu2QikRMACBHta2AhswwikaQ8Ug6AAAT17BjhQACFApaoAwr9ffB/eVnoCO9x9vOz8fJ1BAgsSHQUI6J+rGQQFFCJGQRgGST3QOk1mwjIJ2/CktIc8dBGwAGHohsTukI3A+kegE0DgdIIJDjwCDAE8L0CxFKBSLlLSAT8+/0fYlWnhn1bejKqzE77nYWqqgZan0gguAwTAcTVQoGcGCApA0OfdNAkWIKz/OWC3YCPQKwIWIPSKkP3cRmALRiAJEIQ14HQCsQieZhDoWf89Xg2QL5XQDubxL+b/gqNyf3YC311+EsVMCa1mC9enmvA8xSC4BjgI/9bMggkSaFnFIKhAWyZhC55w9pBuywhYgHBbDpvdaRuBW4tAspyRQAEpEgkM0J8CCjzPh9cG2p6P3RMZuIUiFtvP4l8vPR3uwJtzFXxF+R9weqGx3MCV601SJoYAIesCrqtfu5R20NoEnYogYGCCBAsQbm1s7bdtBAYVAQsQBhVJux4bgdsoAmkAgSoVJJ1A+gMGCe0AbS9Au+1j324Xbq6AU83P4zdrz8WO9uuLJ/H6wkNwAhdz83XcmGprFsEBA4QsMQoEEjRYSIIEAguGT4J1W7yNTia7q1s2AhYgbNmhtQdmI5AegSQ4oKXMaoUQHBAwaPkhQDiwJws3X8D/bL6AP619NrbyUibAPyo9jGO5e/j9m1fmMLXgMDDIMThQ/7JZBRKyrhOmIYRBYHEj+SjYVIM9dW0EhiICFiAMxTDYnbAR2LgIpLklMkAQ7YFHKQYBBgFaLZ8rGg7tz8HN5vHR5tP4QO3ZFTs86jj4R+XX4qB7AL7v4/KVJSwsBMjlFDDIaqDAf2vAEIoYdXmkBQkbdx7YLdkI9IqABQi9ImQ/txHYYhHoCBC4rFFSCiq9QOCg1aa6Rx+HD5eRybj4UP1/4i8bl1Ojst/N44fKr8OYsxvtZhtnzsyjjSyDg1zWYbAgTAKDhKxZ5SB+CYbzYqKcwVY3bLGT0R7OUEfAAoShHh67czYCg49AJ/0BaQ4igOCj3QoYHLRaAbJo49DRUfZT/sPFP8AnvMhNMbmHD+Um8F2lJ5HPlNBsNHH2fA1tj2yaHbZpJrDA/0iTIOkH0iSEpZDaslnsmS1IGPxJYNdoI9BHBCxA6CNIdhEbga0UgRUAwTBEolRCm4SJbQUQmsQgtHxkMx6OHBvjMPzi4p/iitfsGBKCDk/kRvCtpS+DkyliYWYZZy42mEHI5hIgIUw3OHBIwMj+CNpQST/ThqxocSudgfZYbpcIWIBwu4zUkO6nadmbtouWEh6+gUsHCOR7oBowtTRAIOaAwEGzGSDnejiqAcJPLbwXC36j64G5AL6udCden3+El5u+uYhLV1tcyZDLOQosUNqB9Akhk+Cw86IyUzJAghUtDt9JZPdoW0TAAoRtMcyDO8hegKDfLVng0G+kBrtcJ4MktlUmcaIfTy00mz6zCIVCgKOHRxGgjZ9ceD+W/VbPHStlHHxf8QjuzD9B3s24fHkRN6bbyGVd5PMEDhRQoDSDSjmoUkhiEiJr5kiPkGQS7DnUcwjsAjYCtxQBCxBuKXzb58uDAgbJiNmL/MaeQx0BAjsm6uoFEiey9oDYAx+Nho/RKnDg4CjawSz+9cJfox54fe14IePgH5cfx7HsMbZjPn1uActLQD5PqQYCCS4Dg2yMSTCMlMSe2XZ/7CvediEbgUFGwAKEQUZzC66rGzAgz/7VPJJ5ZJuSWE30BrPsSoAQdWtkYySP0goRQGgQg9DwMTkK7D0winnvCt6+9LdokKtSn4/DbgE/Un4SeWcH2p6Hl1+aR62ZQY5Bgk45MECgqgajBFJsmY1ukNYjoc+g28VsBAYQAQsQBhDErbqKtPm/GyhILt+NHegFFiyzMPizKtnimV6T9wHN9ZFzotIgiPag2fRAIGHnWIYBwgX/Jn5t8aNo9ckgyFEccl38cOWrUM6MoLbcxEtnlrgigpgETjXo6gY2VWIzJdOSWXeI1CZKSZBgz5XBnyt2jTYCFAELEOx5kBqBXuAgPtl0D2LaBTz5ngUM638ipgIENkgicaJiD6jnglQvkPaA2ING08OuCRd794/gZe8GfnPpY6sGCHR0T+Z24xvKr4cDF/Pzyzh7to6MSyyCixxpErRPQrqR0sruj7ayYf3PGbuF7R0BCxC29/ivGhwkgUFAHX7o0S3bICp0xLv2MUJNlNNboLB+J2Rai2exWJbmTGZ5IwsUSYPQ9LB3Tw67d1Vw2ruE/7T4cbTRf4rBPKJvKezFa4pPIgMHN28u4cLFJusP8nlXaRKybmTPHHokOLEW0bax0/qdI3bNNgJmBCxAsOdDLAJJ5sBMKaxw4NPAIMQGHTUJkb8+YQTBBAocGJ+tEjBYarn/kzeNPeAUQ8gg+CxSJICgUgyUWgjQaHigNMPhAwVMTJbxfOs5/Jflz6Pd/6ZjS9KQf2/pfjyUv5dTG5cvLuDGjM9ahGS6QcyUlD8C9W6QEkjbs2GN4bdfsxFYVQQsQFhVuLb+wp0AAncDZiSg2gGveN2NRQjr2AUcmA15GCNwq2CTUVgNs2CBQvp52S1NJOOnGATduVGnGEikKOyBevZw7GABo5NlfLrxNN5dfwZ+CPNW/5sYyQT4scrrscPdz+fTy2dmMb+oKhtEj8CaBK5uiPQIpEuwjZ1WH2/7DRuBtUbAAoS1Rm4Lfq8XOCA2gTBC4EcggXEBvS+ZhohOUBGSFr6KLOBphdMI4d8Ri9BJfGbBQu+TrZ+CEmGDIoBnVDBokEDdG4lBCNMLmkE4fqSIsYkyPtZ8Du+vfb5rRqn33gK73CL+cekJ7HD3odming0LaDQzBpOgGjyJaJHAAlkxk9NiyCRw6aPt/thPvO0yNgJriYAFCGuJ2hb9TpKGVpO//IuDAxK28YTDSni1oH7J7wlO0FmEECvIBV2AAk/+knagcjYBFOH7nVMQ212v0A8oEAAnp6x8h1gDSTGIgyL1S/DayhiJqhjI/4AqGFpNDyePlzAyVsKHG8/iz+pPD+QXcGe2hLeVvwzFTJV7Njz3wgIchwSLUfmjdIGUTpAMELhng23sNJBBsCuxEegSAQsQ7OnBEUhjD0zNAQMCY1JRk0vEHnC5HAOFdL2iyQ4wgWDc/dHFPrwT1OmGaBkhIhJpCWPcugGFrZZ+WAsoMMGByQCZJY5UxdCmf8IgGBUMBBbuvruCSqmAv2x8Gh+qvzSwX82T+QP4+uJjcDMlLCzUcfZsjVCiZhJcbcdstIomcGAbOw0s/nZFNgLdImABgj0/VgCEOBUd3WnKHSc957I+X6iJiq41MirNQF7+egZLTmThhE9qAycBEMh7H+qOkP6gJ0IQse+Ik54BIGTotnIKoh9A0MmbIs4IqWhJOoieCeCx/kD3YGCAEHogRC6K7baHh+8fQbaQx58t/zU+3Lo5sF+NgwBvyu/Fm0uvQybIYerGIs5faiJf0FUNVALJ1Q2RJTPZMYc9G8hp0VUaFko90MMEjFsNIA4s8HZFNgJ9RMAChD6CtB0WSVO503GbVLSkFYp5wM1mw7AEnodaw0OjrijpdtgKOJZoiCZ8uqhr1oAu6swe6Gd5rT6P9AqyfAggEloGNTHER+p2ZRYGBgoYEbCsVD2b6SKpYGCQEFUwMEDQaQbyQKg3PE47PPbgKJxCHu9a/gieat0Y6E+imHHxXaUH8EDubt7hy1cXceN6O+z8qISLSpOgUg2GkRL1bdDnDz/bxk4DHRu7su0dAQsQtvf492APIqc9VQ4XwHEClIo5FTV/GnAmI6AQBPDaHhZrbSzMtUE5bZnspKQxBAApgIC7+Bm2uiGjoN+nu0QGEhocCMMQgYPbV6/QCxSksQQr00IRGNDYIMz3RMyBYhGYPeBn9bdHBklGF0c2SWr6qNc9Ti09/pACCL+1/DE817o68F9NNZPBD5buw5Hc/dxR8ty5Bcwt+MgXDDtmbhdtdn+MBIsEDuT8sSBh4MNjV7hNI2ABwjYdePOwO4kTJUetJhLltpd1fRRLeXVrevafAZkqMPEVQOEoUDhIiQKFHXwfy0tNzC4qZqFNhfMBpREiZoBzyVTbzjRxBA5CAVqi5S+1ABZWQaUhtKgxVhERr5IwfReS9HNy6Deaju4FCniSTywUG6sEQ6CW15hARKSm0JS4BK0bYfdEAxxQJ0diDpQOgbwPAmaDyAeBKPzHHx6Dk83hN5c/jFOtqXX51eykyobya7HT2YV2u40XTy+g2aDyR+r+GNkxh8JFXdlA5xGJF01waUHCugyRXek2i4AFCNtswNMONw0gsAARChjQHSS3A9Z09GjVRYZmjfqLwMs/qWak3DiQ3wdMvgmovgrIKJaBJjgSuZH//s2ZFpaXgzCdYOaRXWnxGytjS94hRukIrnYwAEIMMBjpBrOkMmIaVBQ2owqiFyjoCghC00qdMggBgq4iEbFpqmeFVKFoVojYHk+DBBEosgZBVTC0GCAQUPBRHMng0fsnkck4+LXF9+KM11iXXw1hvrvcAn6w8ia4mRE0Gy28dHoRbd8sf1RpBtOOmfwRFNjs3rMhOf7rchB2pTYCWygCFiBsocFc66F0BAgmFU1e/QQU2gHyBaBSzgNBCzj/s8DSc/FN5yrAxJuBkVcCuV2AUwnBQq3exNRUE0tLlPemGU+DgERzHql15zvDGNOgJva4ViFiFlQKwhA4mjnpFS6O0W53AguDYhW6AYNe6QPFCiRAQeg7oSd+qSAJvSrUd1bqDiTFEE8vcB8GrT8IezHoRk27RwPc9/BeDtYvzb8LlwOdYlrrCdfje/flxvC9pTcinylgliobziyz7oBZBPonPRtIiyCaBGKi9DkkTIIJCGR8BzWe63TodrU2AkMVAQsQhmo4NmdnugOESO1O9DNNJMQojI9l4WZdYOZDwJX/lr7jbkWlHUYeBsZeC2TVJEOzVrPloVZrY2auifl5D0GgJn2pc489a4tdMyURAw0idCQAIFSzroRgZsEADCZzENHQ8d0fhLhxrUxBWFqaBAQ6blHpqVGREKtOMCsVjL+15kAqUSS9IC6K3KSJNQiK8VHdHNW/AxM+7n1kPxNF/9f8e1BbXZfvVZ/UWWTw1YX9eGPxS/hcmZle4soG6vLIjZ2oqoGEiyJaDHs2GEyC1rIISLCVDaseBvsFGwHbzdGeA3EPBLmbFY8DNYFIOZyioAkkVMoOKpU84M8Dp34E8OvdQ5lxgZFHgF3fBGR3Ae5ouHyz1cL09Rqm5n1mKGhCJ4CgqGPw3aN6FiEafRYZ5ZjOekwz0xqIdUj4LcRd99TmpfGPebcpO9YrBREtt9JHIi0Yq0ofhFqChAGVGFLpz2l8xKwqWcJIk6uqPJFqlAjsSbpIBIo0xqxB4H/aSVGDhOO7gXsYIAT453N/BP+WfRR7/+poDL+ndD8ezt/LjZ0uXaHKhhYDgxU9G5hJUOeJcloUhika37AiRm/aMgm9x8AuYSNgGQR7DsRMkpIAgbUHAhB0jpqYhAx87NpV5Lw05j8CXPyt/iJJyxcPAaWTwNhrgNL94feo3n651sbifBM3qQqipS7wBAxCwMB/R+9LuiGaFCLBWgQSpFWw1jBojUIny2dz4jcPql/AYH6nEyjoyBToFEFUlhilEMRrQlIONLmvBAFRlYJUK4SsAXtVxO2Vuc2zr5gDAn7Uh4EEpj5Vq8BDtuRi/94C9u0bhxcs41/Mf2AD4IGK4EjGwdvKj+BY9g6ujjl/fh5zumcDNXeSvg1S+mi6LYaCRS2CtaLF/n6edikbgdg1L+jksmLjtG0i0C3FkAYQVLc/H+OjGYyMllScXv7nQO3C6mNWmAB2fzdQeQTIFAFiGrjfg4+5+RquXG2hXg+U7oC6+hFAMAGDcccoQjV+1umG2LPWLoi40byrDEsmb9GIifc9Jb9gvhUzk+rQBCvW94KrQjqAAenGGHO51OJSwwwpnlqQMkdfm1sBbiGDkZyHykQOY8UsV6pQ1YL5WPZP4ycXPrVhAIG2vc/N459Vvgr5TBlB4OPUS/Oo16iygdIMVN0Q79kQPzfiehULElb/87Tf2N4RsAzC9h5/NRkbOeXUFIMucVRCNmkHTJOLj/37S8iSFmH6A8DVd9NUtraI5ieB8j1A9RGg8iDgjul9C7Bca2FxoYnZeWIYfGSCjKKUteVulI5Q9DKlHwhQcErCMNExSyxDYybD5lm8GiKvBdqFuLcCv5MwZEo74JUuhsleFYY1tS5JDAWFUj2i0wliVmVaXYtplbghRikh8a4w0gkaKNDYOtkApVwGpYKDQimLIvkMFLLcFMmhoCYeXlBDK5jGTb+Fl72X8Cf1qQ0FCLQ7d7p5/MPy6zHi7EBtqYGXzi4hCAx/hHwG+azLgkVq6iQgslPPBjWG0SD2M55rO6m3xrc66Wls3LbG+HY7CgsQtv4Y93WEkfhNoYWYBkEsecVIR4Rs7QCT4y7Gx4tA+zrw0v8J+LW+ttd1IbcATLwB2PntgFNWhgf6Ua81cP3KEqbmtb1uCqMg2gVhFFQlhEpLRB4L+u5SAIJUP3Q0Yoq3o+7nIGPVB0a3y5AdkP4WRodMc+KPUgSq4oA8DIjRiacMdKki6Qw8ZWalntX79CgUAoyPZDA+XlDMgLMSCDBQRIB2MIP59hk858/jYvsCTvl5zAUOvF6qy34CcgvLvDa/F99cepL1CPV6Hc+dWkbWifQIlHIInRZFtKi1K7ax0+oDv9rhtmBh9TG+Hb5hAcLtMEobsI9JgBBR0mKoo5v5aBGbUroHcB0fhw5VlBZh6t3A9fcNbm+dPFC5C6g+qliFPBkxqUej2cb8QpMdG+eXPQSeTj8IqxArm4wEjmElRNK1MWHXm9Y8SnCKdKhMIxIibYG2OeY52ig31NUJseZXCaZAKgzMfgkmYGNhIQMGo1RRg4Fs1kex4KJUdFEuu6iUqeFRFhlpVMB746Pl38RUsIyb3hyu+gu45i9iyp/FDTK4CjIbzhL0OmmyCPC1hUP4ksIr4WTyuHljERevSGUD6RESPRvEjlkLXc3S2LDHR2JW2+6T3GpBQacx2+5x7HUu306fW4BwO43WOu5rMs0gdLearCIPBNXQR5vptJTafd9uByNjFfAsffqfAM2ZAe8p1azlgPJRpVcokme/etAk6nkepqeXceUa9Q0IVNUD6RUc8uyn+viouY+IHukiRkwDpyKINTABg65uEI1CN31C2oGaYEt1T4xAQmeGwPQniECZYgQi10MZCxkXWl8uD0xWgcmJAvKlorYcTsIXH/PeS3i6PY0X22dx2s+iEXjwAh8+hg8QpMWVPDq/o3QfHs/fzyzKpasLuHHN46qGqLLBMFGiBk+GqFV0LHGfjHictuvkNihwIOO2XeM44Avfpq/OAoRNH4Lh2IGuAEHT1uyDQGkGVrv7YL/+BlktejhxfET5Itz4A+AGsQjrWCxfPAiMPqFYhcIxwCkqsEDCxoUm5mebqFOjoSbdZcdz0kqvoNMNqQJHEbZp616zq6R2b9QWCzrzYUwwZgVCaHEsZYhic5xsgKXTBwH1QzBSBGGnRUNLQB4UAPLZAIWSiyr9G8lybwyTIfCDGhb9OVwPFnDFm8YFbwqXvJu4FhTQHvRMsMGn72TGxfeXH8WB7HEe73NU2TAfsIESpxnYHyFq7JQ1mIS4FbNpprWSC9ouE1y306Ff/fogfEM2+DSym+szAhYg9Bmo7bBY7M5X19lLWRy7KLJRkg9y2qOaeUoxNLUd7769eUxMlIDGGeDszwLe4vqHzCkBJG6c+FJg/CtUFYSiFZTro+fj6o0aZqZafJfcqQIiqVmQ/hCsWzA6TfIEY4AE3pY5t5h9EMS8yLSsFj8CKTXUzZIiYBD5Tajyw4hJyGUDjI+7mBwvIF/Ih+xHyKSgjYX2aXzGu4xn2pQq8FD322iuL1Rb/zFO2cKo4+LHKq/FpLMfrVabRYvNmq97NigTJaVHcJRokTQJIl5lHYo0/YpAAg9lF1SwFQFDGjjoVYFjDkdaTNJiuBVjtykn/iZs1AKETQj6sG4yjUWQhk0RQFApBjHTISaBmvoUixkcOVRVxkOX3wHMfnJjDzNbBUYfA0ZeA+T3ALl94fZbnoeZGzXMLvqo19rwA5V6kOoH08tfqiDUJKJNd1IcGtNK5giYcEohpa1yapmhpG+IOeA0jhYa+lTWSZbWDiolB6NjOVTL2ViVQStYxLS/hCn/Bk5713C6dQ0XWUy4sWHfrK3d7Y7ge8qvQ9kZAwlXT7+8BM83KhukRXRoxxyVx8aAX8JlsxdQUJ9v1lEPZrv9AIPkMsnTKhkCMyYWJAxmnIZhLRYgDMMoDNE+JFmEsKOjnsCSbYFDS96Wh6NHS6iWC4A3B7z4Q7p4f4MPjrQK2VEFEHZ8jRI46gftO2kmSK9wfdoDRNioKyFCAaMpcCTWQGsVpP9DJHJLUAjicqh1BywyTHExZMYgBATkTKlEh/ResRhgciKP0ZECcnkXWbGD5GPwMeWdxhdap/GM18RNr4nloIVWjMbY4Hhv0uZIj/CK3Bi+u/zlyCCLxcUGzpxb5hJYSTcoJkGlGwgEEpug+jVI06+422ba5L8Wc6xhBhArJn7jjWRproK7EQUlICEEB9LnxCgF7gYUhjkum3QaD/1mLUAY+iHa2B3sVu5I6nny7BfHPSVWVGkGYhGyuQAnT4zCoVu0a/8VuPk/Nnbn07ZGls57vgsoHQfy+40ukz6u36xj9mYLjZYyDGKA0MWESVIMUdvpxAYlLRNWJcQbI4UpA2l8Rbf7QcC9BSrlDCYmC6iW86GeIICHJX8B0/4cTrfP4pnWOZwNCptecrj5gxrtwdcUDuCNhVfBRRZTU8u4eLmhezYYjZ0oxSCCxUR1i1Q3cFtwYo30qvulz3vFYpgmxW7MQfS7NxqDmf4oAhSMhmcmoDKbYXUCCcMUi17jZj9XEbAAwZ4JsQikpxmils+sQ2Bb3sgwie7KCSCQYPHQkSImx4qqFfT5nwfaG6BF6GcMs2O6HfVXqi6Tuh012QrXGx4WFpqYudnAckOo6MjOOWwlrBsASQlklGajicyOAAAgAElEQVTQJY2GMNH0KuAqBK62UB4FxBgEmQA7xjKYmCiiWCKjInZ34iPxgiWcab+Ep1tXcNqvYcavoRY46yn77CeCQ7lMKePgW4p34ZH8Q1z2ef3GEi5fa7FQUeyYiUEgEMa9GgzfDGaEwp4daubTEpMVeoRek9tqmIZe61qPQHdiDjoBA5UmixBC7PuJrqghODA6qQp4SMZlM459PeK5XdZpAcJ2Gek+j7NjNYMW1Il4rt1SOgQSK0rXv0bTQ7nk4NjREThOAFx4O7DwdJ9b3sDFsuPADgIKrwJyO4FMgTdOVr5UBXHzRh3LNaUJoHtKduST/g9M+WvxYoxr1YSsNEeSeIkgkcUBii2YGHexe0ceLvXN1r4E9aCGWX8Kz7RO43Oty7jsU+W/ffQTgWImwI+Un8DB7FE2+Dp3bgGz834IECjmIUjg0lftsslOm7qhkzGm4SSWYrtt7k+3ya5fwLBRE2Y3gCBgQLQz7JSRaB8eOxl1XJKAisFVot26AgrWtbKf83gYl7EAYRhHZZP3KZlmiAR2WmVPXghhe2ACCFE1A6Ud7jxWQrFKLMJLwJmfSEj9N/ngzM27VaB0DKg+CIy/EXBGNFAI0Gi0sbTcxtxMHbMLNOtroBCyCHLDr5Tw2g+J77oi9kCJDgksjU+4mBzLcwdMorsJZQRoY6Z9Dp9pX8Rz3jyueYtYDG5zBdwmDe8+J4e3ll+LPe5etJttnD6/gNoSwoZOAhJYk8BMQrzUVSY3rlIJhYjaZjvMtatTWS8RHmlyku806fcDGtYDMCRBvwLDavf5XGVkoMtvDVdP9bb6TPVYVT0wCCyzbsZT6+CUG3uH6DTNCvtyCxI26Wdxy5u1AOGWQ7g1V5AUK5quflzRoP0QiElgPwQNEijVMFIOcPzEuLqkXPx5YP6zt0eQdlC55NcoVoFKKPVU0Gw0cOVaHTMzHtqUHgh0q2m+OkaHxjELhYoBi+J27HSxb3cJuXw+ZAsaQR1T3ov4aOM0vuA1wR2u7eOWI3C3W8DbKm9GPlNEu9nC8y8toN3OIEfljtQmWqcZwq6Pun04W3GnMAkCBtSk3aEnhyHUi4BFdCibDRZ6MQds4c3W6gZIMMGCPqfpOKpVFy4hK/1o1FtotuINsUKQkGASLItwy6f3pqzAAoRNCfvwb7SbWFGp7lWKgUseSahI5Y4N0iJ4nHK4684yqpUisPwF4Pw7AL8+/AfNV3gXKN0BVO4ERp4AinfQvRHve7vVwvyih/m5BqZnWqg3opI3iReVJ46Nuti1o4DxsRxyhQgYXPPOcvrgVPsazvltKzYc8BnhIINHsyN4S/lJFDNVzM/V8OLLyyyaJQZB/BFIn6DSDE6YOiKdiYCEqEpF3RlHWhOtU9D7HU3+KUxDkoUwjnWtAsjVsgs9mQPp68FtwKWnR9QSPGTDAmC06qBQzKHRAGZmgb17aHkPi4tEI0QpOCX6lFhGjIICTzbVMOBTft1XZwHCuof49txAappBbH+14I5YBNIgsBZBAwSpaBgZcXHi2AgyQR04/3Zg+dTtGYjKCWDXNwHFB5XdswYLgdfGlakaLl+oYammKIDxUQcnjpRRHSvrWYXqENqYap/GXzU+i895m9/06PYchP73mqagry0exxsLj/PENTe7gFOnm2EjJ2YTdFUDmyjpypWwRXhojBWZYpFOIWQQdIohxipI2sFIP8QErOrrrGfpJx3RKxXRD1DoizkwSnBJb0MiTym3ld4fBByqpQAV3db9vX8G/M1fAb/ya0rEuLRQR9vPqvQCmVFJUzSt1aH4msyKWe3Q/6jaJTcrAhYgbFbkh3y7HcWKK3oziGmSYhGaDY+ZBD/wcfedVZRKeWDxE8D5/zjkR9xt9zJAYQ9QuQ+oPgRUHgEyihnwPVUBQXncsTHqg6DYhkX/Kp5uXcQz7Us47S2jbrUFGzb+5UyAbyyewGP5R8k/E5cuzePiZQUSQm8Es6LBEKGKUyZPePSf0d0zEuVFjIFiG3R5ZAge0pgG4zsxBiIOGm6VXegEDGiTIkKU9uFhPw8tpCVWkNuHi+W3H6BAotrJAp/Xn/k88E9+WJFsn/hbdRDz8zW02tTrRDQ6Ca2OuJFKKiam8diwU8JuaI0RsABhjYHb6l/rVs3AdxraCtisZpBSR2IR6nUPO3a5OH6EtAgAzv4rYPnMFggby92BPd8ETLwFQJSTpYNrBjP4u/rH8dftJdR1h0W+OG+BI7+dDiGPDH6w8kqczB7j6pTnTk1jdiZAPkfdLamqQVswU5qBGnYZICFMNYgAzxTd6fcoFnxzbACETmAirvbn+2kjbRGxC/yJoWlZyTasTsCaLFMU8Wz0rEtvuTuoNuzyNEjQv/F9e/LIF3KYnQG++VuB02dI+Amcel6dDXMLNTTqUhpsiD+NCpHQa8JIM/TDgtxO59tW3VcLELbqyN7icaUBBFqlajMcXVDEdlm1f1Ylj8QgkLcApR8eun8EZXJXXHoKuPAfAL91i3s2RF93XASjj+Pyjjej7hbwXOssPt++hpt+5+6IFihs3PgddrN4a/l1mHT2wm+18cUX5zE35+n+DLpPQ6zk0bgLjinyjXSDfl8Agij4Vz4r/WqntuEm8xBLR5glhEao1gIWBCCEzIFU2Ggnz7BLq/bmIG8T0heRNwjdBOzakUWZqpH+N1P2b/4t8Pu/H5mj/t3HgAOHgMZyHdPzqoOq9L1gu3JiDhgkKH1C5B1idQgb9wu49S1ZgHDrMdySa+gHIJABEIEApUWQUseAhYqNuscgYXJnDnffMYaMvwRc+Hlg+cUtE6+WU8DfjtyLj1aPoZlx0A78vpgCCxI27hTY6eTwY9U3oZoZQ63WxFOfm+PzNWQRuBV45KCZFCvK6/RSPq3g10wCL2uwDtzPQ5sv0R8qbaFoAn7fKBFkAGDoFEJAkKJd6FYZkWy2FEsr6GoF0Rqo5mvRP9ISyeuxEQc7d5Z4X9/5e8DbfwZot6Nx+39+G3jTlwGNWgM3pn2QzxdbWosA1IhpWCGiGRKrQ9i48/9Wt2QBwq1GcIt+v98UgyciRQMgcIqhodIMpOp/6IFxrv/H7F8Al995W0fMzziYyo3j6dIhfKJ8GDcdpUWIP3pDgN5L3NZhGpqdp3n31blJvKX0JNxMEXPTS7hys4mg6cPLqDvioB3Az2TgB6w64NSBOCwqgJCscJC74rgTY7wKIloPv59oG87pCBMoJL0DzNSFBg+SmjATDd2o+hXMgZh2kdbAi2zTBRhIVVIuF+Dg/jKyuSw+/RTwAz8IzM3Fh/Tf/wLwzd8CNBtNXLvRYo0CV4ewCBS6QkSJQMPmWOJUaXUIQ/P76LUjFiD0itA2/LxTeRQJ8ejCQncprHYmwyTthxA1bdJpBs0gEEg4djiP4ycmgaAJnP5hoLlwW0Z1KVvFR0bvx1OlXVhycvDZVKZbXrg3DOi9xG0Zqv53OsggoH+Ulmk7CDxHPbdpwiYveJ2uoWBTqGkSd31k3ACZLP3z4PDfPoNRdYsejyqpRJ7M78HXl96gDKr0zKnGT6v3Ax9es4VWs41FYsTm26h5QKNF+6T0BtKDI2QZDPpcaPROzyZ4CMGClANqOkH15Yo7dZrpB/lMF1UwmNGExEqIqk2O+Pg0c8ACRA0OuOka/36VyJhSC62Wx/Zdx44SOKCKHeAt3wx8JsXG5Pt+APg3P0GsgocrV2psoahabGt9h9EcS6UZIjbFMgj9/zw2e0kLEDZ7BIZs+53AgTiuET1JFxolUiTDJHWhaTVVySMJFRu6koGemUWAjy95zU7ki3lg7iPA5d+OrNyG7PiTu8OMQXYcn68cwd9XjmBOVymYy9EE1zm30BsC9F5iyIOkgRJN7H7ThVfLwqvl0F7OwlvOor2UR3shj+Z8Du3FPFrzeTRmCmgt5NFezKJFyzcceHUXQcuF13QUYGhl4NMzxZcmukygqgqcAA4BAjeAk/fg5H24RQ9u3kO20kJ+tIXsSBOFyQZyI03kqi0Uxtv4yvGTeGzfJKhir1gGSmWgUgLcbHp8SdxI2oVm20et3ka9HqDBzcn0ec/gIs44mC3CeVLUKv4VqQtdTmmCDcYGHUBDlKowyiVj5ZURUA3dD2O23xoIcUpB/WbF7IzAPQMFLwCJEicmSqjXgX/5E8AHP5Aemze8AfhvvwP+/V+6vIQACiCwYyWBA90cS5qfRT0vIj8EK1Qc/t+1BQjDP0YbtofdjFWSpVGSq2Rw0FJ3IlTm2OLGTarUkcBBncyTGh4evq+EQ0cmAW8BOPfTQP3ihh3XWje06FbxN6P34DOlPZhz88wYdH3w3XCnJXrDgN5L9NqBjfk8aLs80TdulFG7MIrauVHUp0poXC+hOVNAu04Tvgu/4aLdcuA3MvCZGYjio919w9I70/o3Dr6iVytL+Po7XmIWiG2giatayaBUAApFoFIBxsaAHbuAE8eAkyeAfUeAuw8ChWrcJVO2FNAdeEAAWU2qjeUmFpbbWFym8z4DIjFUe3Boej0S6kk7cVH1x5qApbARZhpiRYoiLBtkDmGFv4KKlQLzzPwx42eIiwkUaAaQUoLEIoyNZXBgX5W7if7uu4Cf+ZnITjkZ6cceBf7oPbwFXLq0hBY5VuZUGalKNYiltTZRophoQyXeY5tm6O/k3eSlLEDY5AEYls33BQ7EKEmXQKm7ENXVkQECdXTUnR2FPaC7mcOH8jhxbEJdFLybwKXfABafGZZDT+xHBvPZCp4tH8FHRk5gxoluL/udwDszCr3X0HuJDQgb3Xm2iQnI8Z1/e7aExrUqahdGsHx2DI0rVdSnimgv5xRFr+9Uw2emstV+soMv/dOv5dn8jKcyvZz8PWiQ0G/UyEm4VFKg4Z47gRMnFHA4dAgYmwBGR4CREaBIfbZiNts+2o0W5mptLC600agp4a5HKREGDZSmMJ0bxVhIaRykGZjJNJhaiDRmgYWPMaAQB1MqphocmJVHIThQoJ7AQTEf4DgZmzkuXn4Z+K7vAq5c6xy1O04C7/kDYHLMx+VLS6g1CSCoDppZcq2U9tr0rM2TbLljv2fh8CxnAcLwjMWm7Ek3xzW+iGs7VqU7iJo1Sdtn1bRJ9WIQHQIJFAkoZN0Ad9xRwY7JsgIHtWeAq78L1M8PZYqh4RTxVPUkPlE5gGvZEig5kvboaxLni3MnfULvNfReYrCnC+X+vbkS6mcnsPziDtTPj6Jxo4LWbAGtxZyi/32i/FWKXzntpf8zl5EJn4GC/q55zolVhLmuzQYJycgSaKBWGsQ2TIwDu/cAR44Cjz4M3HMfcPwoifLMyZnu1lXZb6PZwtJSG/OkaSCGgaybdOpBVU8oAaOwCSZQCAGCFjTSRMvCRv2sNAvxqgjFG+gxMgECN1gzeqiw+6nH7B/9d/xICeVKAVcvA9/6ncCFC93Pr4MHgd9/FwGnAJcuLmK5HjXGooZOokdgS2sqe9SsCh0nPSyDMNjf73qtzQKE9YrsbbDevsABgwTt066FiQQOhJ5UIiftgdCiLoge35WUyw7uuqOKIukOghaw9Eng8n8B2ktDF5mmk8Olwm78xej9OJuvhnIC3cC54/72M4l3FjF2/3Y/615rIFkIWM/BWyiifW0Ey8/vxvKzu1G/OMKpAWWkozv9aTbAnMD5sy4AIfy+XmYFk5BgC3Q/oFiHwW4gYa2phrXGq9v3SMu3azfw2lcDr34V8OADwNi4YhkKqps3PwhgU9OvubkmZhcDNOqq54HqYxD5LyS7TDJgIADhSlOkqEV1qFkQgyVRL+r2i5RakB4LrBcSUbH+vXJq0POxf38Ou3ZU0WoB/+ongD99b+9I7dkNvOu/AydPBrh6bRkzsx7yeWqIpdMMxCSIYJGOj/+t9EOwOoTesd7MJSxA2Mzob+K2u4EDoSblWZgDqlowtQcKGChxImkPmi2Vy9y1K4cDe0rIFXKAvwhM/QEw/bGhM0kKMg6u5HfjI6N34vnCDjTo1izl0Q0o9DWRd9Qm9P527yX6O4mCVhbe1VE0T+9C8+wkmldH0Joqoz1fgK+1AaRkT4IDeZ1kDJIgQT6Xib0jSBDQsAaQEE+DxY+7s/ajv/gMYimaAMsV4OAB4Mhh4L77gMcfB+6/B6iOGmDBV9R+o04txVuYn2+F7IIyGVKAgJ+NyTX2d4JJEEdHYysa5KkKBWI0qBMp/X6FOaDf7c5JFwcOjPAd/bt+H/i5t4ObkPV6UBrmd34HePUTwPT1RVy56aGQJ3Dgckvo0NJaUg0ryh07V2D02rb9fOMiYAHCxsV6aLbULzhQ4ibNHnQABwwStP6A7kYO7s1hz1664JDt4hxw5T8C888NzbHzBIYM6m4RHx+9Dx+uHoFua6/u9Drs6UDYhNRqh3VgEmg7zBLk4V0fQ/MLB9F8Zh/aUxV47ZXMgBrj+Pvma2EPBEDIa1Xyanr8x7UESRBBoTWBBt/o6sPfSNHiRp6M9DuY3AG8/o3AV74JePgBrWEoGrbKQYB6o4Hpmw3MzAfwWlSuSakEddftOoaFsQkYDGbBdGZUIVW/XbMBkzRVk2dqNHrHiRH2O/jMU8C3fHv/mT/aLzJLeuOXAjM3l3DxaguFPIEDh/8JQKDnZIpB9pX20jIIG3k2rn5bFiCsPma39Td6gQMCBZxjNsCBsAbse6Brp6VyQSyWXTfAgYNljI8WtN7gc0pvULs0VPFqZ3J4unIUf1c9gYs5lU6IT9HRq7WAhZ53/B21CQMACo08gqsT8F/eBe/CJLyrY/BmSvCp/FCDAJrUw7+7gIIkaEhjEtJSDanaBDMdoUECgwMRLupDF0GjyULI3+ZJZIKKtPeH6oQzdobKKccngPvvBu4lduGVwGMPASO6XQkt6nlUGtzG4mIbCwstLNcC1rKoXhHxnhGxqghDi6BiRt/TniWaOWC9kGb8qPT45B1VVCoFTE8D3/c24AtPry5yYpZUW67jxdN15AsOswj5vBtWM2QJIEjXzFCsaDUIq4v05i1tAcLmxX7Dt7wqcMATifY60OyBMlRRaQVhDii1QPXpdx0roVQt0eUfWPw4cPE3idfc8GPstEFiDRZyI3j/xCvxbGHc0BlE30gDCkMNEjRTkJkZAz5/DP6zhxDMFZlSNid0ExCobn3RnXzassnvdtMkrBkk6H00WQRmGAxGIgkUZKSGPdXQ70lPd88kfHzTlwPf+Z3AvXcDuSyYNZBHq9nE1I1l3JhVZYqhoFEDBtL8CVBIljuKwFj8Sji9QNboXoATx4qYnKwwWPzRHwf+7IP97nW03FvfCvz0TwFevY6nX6ihUHBRKCgGIaxmyLlcxUC9GiiDxwJNMYSyDMLqg77B37AAYYMDvlmbWx040GZI0rXREDeJHStXLLR8VCsODh0qoUAybyLrb/4RcOPPhkpvUHPL+Ez1GD5ROY4pVzWf4cnH+P/otcko9GITOice+mISKHG8YsEe36SyuVoJzqVdcC/sBi7vQHB9FEHL0VUm6s5cNd1RQCH5txKuqfc7AYn1AAmSkgiBQAc9QrKyQYCC+dvZKiBBjimXBw4dBZ54FHj0ceCJx5SWQR5eu43lpRZmFxS70Ghom2edhhCfhFjpJcdXVR+JoRkB+107czh2ZAQ+HLzzncDbf25tV6Vv/EbgP7yDfupNPP38MvsfEEiQFEOeTJOM/gyir6CtRdUMa9u2/dbGRMAChI2J86ZupR9woFTpRs20sAa6w5tiDAK0tRCRyhirZbJlHYFLUu6gDlz+ZWDuC0PV3Hg6vwN/OPkELoTphO4JBfPTNHiQNn3fioix3yqHTODAnZ1A8bN3IXv6APymw+JCmkxj6YPka0ktpAECpp7TtQfdmIVkuiFMKxgpC1lGJnemuw2tQzeQsNVTDb0uBix2LAOveBXwIz8EPPYK3VpagG0ALM8v4MLVFhaXdJ8Hoe+NlasxiLOApbyPhx6ahONmceoU8G3fAczO9tqj9M9f+zrg935XXTdOnZpG28vqNIMGCVklVpQGTtZyeW1x3sxvWYCwmdHfgG2vFhxwxUIaONB2rFy14PmYnHRxcG+ZLzTwpoGrvwXMfW5owMGSW2ZPg49XT2DBya64UU9O6kkw0A0orDbt0ItN6GSs5NAFd2YC+St7kb+wD87Vcfge9S3Q7ACb30QpAwYLojHQzIHJJqxINXTQJfSrUUireJDyR1PkyGDA1CHI37oXgvgmmOfqdko1dLsMEPY+fgwga+PXvBp44CFgYkyQgo/l5SZmZlqYmWuhRnoF/oibVqjzRIN+SivQHf39942iWi3g6nWlO3j+FvTDJL586pNqX86emsJCK4uiZhCERSDDJCp3FA2F7cmwARf9AW7CAoQBBnPYVrVWcMCGKmyAFGkOWIzI5io+9u1ysXvviKIJW5eAc/8OaM4MyeFncKOwA3+643FczBKNqpvzmHdWsb/7YxT6ZRP4jrlDLURPoKAbPzleDpWrBzHy0h3IzowiaGYRtPXk39Z3/SmTO4EFM6WQFCZKqiEVKCTEi2Z6Ii0NYYIDWq+AANEkmKCAAYAJEjo5LW6Dqoa1/kgob0++Cnv3Ad/2jcBbvhXYtSuiFEhnsDC7jPOXaphbiESKoQ7B83HPPVUc3D+CWh34P34U+PCH17o36nt0b/Dic9ynCRfOz2BmXqUYlFBRVTKQFiHWAto2bbq1oG/wty1A2OCAb9TmVgMOuDOjZg5McCA+B/LsBz727Mxi956qqlSoPw9c+W2gNhx9Fah08TMjd+BvRu7GElska5VBWErXWVPQL6PQjWmIxnb12gRiC4pLE6jc3I/q1YPIzlVVCoHKEikVQM8CEvRrmYwlHaDq3ZXQz9QY8Oc6xWAuuwJMpIAEs5ohmXZIAgc6/rAU0gAFKyobjFQEAwedfuBz1gAJaSwCAzADaW01LUI/1wf66VE1xBu+FPjqNwEPvSICC9QrYnaujsuXapiabqFGhkxkd36ggHvvJbtzB7/3buBnfpZaNfezte7LfOyjwJEjwOzMIs5daKNQpEoGKXcUR0WH+2AoQyiz9bX1Qrj1EVjfNViAsL7x3ZS1rwUcEGNAF3dhDqQNLDdgalEe08eRA1mMT2hwsPwpVakwJM6I1ws78cHJx3AhN4Z2x+LqqPTLHJh4OmFtjMJqtAnmso7vYHR+P3ZdvRv5xVGgkUPgUXMjpfNkUECsgQkQhEXwqN2umlRDdiAtxSD6A0O8mAQQncogk+kGU/CYLIU00wqiOTCZBlV2p7UIBiigeIRphg6lj3JOyzpi4xcCwPjPLfk72JQf4zpvtFgEDhwAvu6rgW//h8DuHWqDBBRqS02cuziPuXkfj7xiJ/L5LD79OeCt3wMsDcjQ9Fd/Ffi6fwDUZhfwwvl2yCAQk0C9GULDJFf3oSCgQB4PtpJhnc+MwazeAoTBxHFo1jIocCDpBEop0Ax04EAek+MVVca49GnVsrk1v+nH3XDyOFU+gg+P348Zt7jC02DlxB2xCiSukkdyOZMD6MQa9MMmpHEJJDjMt8sYW9yLndPHUVqeZCDAKQJhAeSZgEFLgwQNGhg8mCkHWsasTBAgIIJF7uKnxYxamJhMM8TSD12YhOT3OgkWk+WPSRahW3lk0kCpV1XDdmQRkj88mnDJ8vmbvh746jcDd94DkJGpAgseN2G6eAn4nrcCL58Z3M/23/4U8L1vBRq1Gp5/qc5OilTqyCwCVTGE3R2jpk2RDsEyCIMbifVZkwUI6xPXTVtr/GJpToZKsCTVCpJWSGMOGBw0VX8Faud69EgZI1UyQAqA2f8BXPtDwKtt2jHKhutuGR+afBzPlvajFbIG8Sm5GzvAagFtJtMPozAIoFBqVXFo9k5MLB6A0yoh8JWJkUzwPPlTSkAmcgECBBI0UDDBgTANYXrBqFpQ7X0jYMCsgYgajc9iKQoBGgnHxTRAkQYOTCDA2oREX4eQRTCqGngSY3OuqMdDWqpBljPZhBDgdUg7yHc2/WTdoB1g58ZJ4P4Hge9/G/C6V0duhT/+L4D3vz/qtDmIXXrLW4B3/JIqo3zhhVkEjrtCqMg9GdzIDdJ2dRxE5DdmHRYgbEycN2QrAwEHVKXAaQUfTibAkcMlVEeKiuue/yhw5V2A3zSOp5f0bvCH7mccnC/tw19MPoYpt8LWybIX8Tv/lQzByjv63oxCN31CtN04F2FGxQ1cjDZGcWj+KA7PHgf8LNoO0AJAaWBPT45hjl9AgUzmSZAgTIJOPwijQOkGBheJlEIIEvT6+gIJRglkN3FjUoeQyigYFQxdmYQOVQ0MKoyW0GkAwQQCK1m0wZ+Dt8MayZrkNU8A3/99wHNngJ9/e/9Wyv0e34MPAu9/r0pNnnphBj4SpY4JBkF1dVQW0vSwXR37jfTmLGcBwubEfeBb7RccqLpo9YNOag5Ia6A0B2Sh4jM4GCFwgDYw/cfAjT/vYYC0/mCh6eTxqbF78FT1OJYdMmeipAcZx2bgQV11kmAhPV2QVm2gGAX6v5UTf3z5ftgESiXsakzgvpsnsWtpD3LtAreQblPxh/5HEgL6m4BCW8R7IjQ0RIlhWoHeEyahBXikU6DxpPd06oH0CqamgMfZrHAQ9kCzFQIgVgCBPkFCp7LIUH/QASCEYMGoajA1C71YhG5AwIKE6BJTKYM7NTYJkQ74ceI48FcfIuejAC+dmUOjkUGRUgxU7kgahDyVOepSx0TzKQsQBjwY67A6CxDWIagbvcpu4ECZH0UmSN3AQcgcOAGOHS6hXNXMwewHgat/FJnn9zzAwQMFZZVcxccmH8aLxd1c6y3AgD5TjwAeXJ6E01mFlRP/6hmFNPCgWQi9F9nAwY7mKB65eRLH5o7C9zMEseBRDyXlN6lAggYHBBDoNYEE6tPDjIJ4HUgFg68EiQICSJfAoIDea8ZLIAlAMEgQXwQ90XcCCSYwSIIEE2wkKyBkH9OqG8z30gSLydLHsPGTME8QLlcAACAASURBVAUJl8VODEIn/YEFCD1/pANZYO9e4E/+GNi3N8D5s3OYX6JyzMhy2ezqKJUMYrlsAcJAhmBdV2IBwrqGd/1X3os5UDlg5ZAoJkhppYxinexkfBw9VEZ1lMBBHZh6D3DzryKZ+aoP6dbBAqUUXi4fwv8auxM3c9UYMOCJQ3doNBkEAghJViEt/dBZo6DZBN34Rg47PZWhPnWQweHaOB6avQMHl/Yi1y6GvQVCYEAAgIACgYKAuZmQTWhqVoHZhKQjoiFa5ElcmAStTeCJPFHxEAIKSS0kKhzMygf5OxUsJJgEOuf6TTvEUg4dSh9XCBbFM0HpY2MdH61gcdU/wHX9wo4dwLt/D7jzZIDz5+YxsxCwBiHsyUAMgqvEitK0iQCCrWRY12EZ2MotQBhYKDd+RV2ZA9NJjYyPuvgcCHNAIsSTx0oolAkceCqtcP19KYnLtUz6a/kO0HZcvDByHP9r9E40My4ILCjGgNgCAgGUDFEMAgEAeR2xCjQJO7H0QzegkMYoJIWMSZDgIoMdrTKenCHG4AQQOEqcp++GWaundQbMJAiLYPxN4ICUHS3SJmg2oam/E7ojCjAgNkFSCvTc1KLGpmYO6D0a77ZezhQmJtINSZBgAgUTCKyGSQi9EMTN0RAqJp0WQ9GipCHo2dAbSK5HOj8yK5IokZR1hCBOD5BlEdb/mjQ+Bvz3dwIPPAhcvrqIG9ep1FGlGOiZGATq0cA9GairI2kQLEBY/4EZ0BYsQBhQIDd6NR3BgbR6FZtVTzdeMuyTw4ZL2hmR+irQVHv0cBkjzBzUgJvvAab+Us1yXR9rmfj7+85irorPjN+FM6U9DArUDaWkFggoAH5GvY7eV2CBlo2DB/XaTD8IGEjTKKTVQgR+PL2QQQYHWhU8vHgUx5cPotiuqjtetXFdMaImPJ7UTEGiUnYwU8Bsgk47MEjQTAKBBk476HVJGWTIIJAPAmkQCDhQmoFSC5JuICCgUxAhmDCYhFjZoyFqZNbBKJlMahlSPzMrJ4y/hT2gESFRWtYF8jmgPAKMVIBRByiVALITpvfzBaCQB8oZIJcBsoEyDXY0i0CpF/rX8IGaD25YVFsCGk2g1gAabWCuASzNqzr/xWVguQk0WkBLjqu/U6/XSW8/1xEgIeSv/zrwFW8Cpq8v4vzVVuSFoA2TsrppE6cY2AdBNWuyXgjDfxpZgDD8Y5S6h5GSO1Lh88SoSxmVB3vUV4G82LkfPDVc0o2XhDmg29u7TpSQL5EgMQBuvhu4YTIHdEds9KDtGLPVXH27LZvBXH4Uf7PrFZh3qYU0TcwkQlRAIMkWeJpV4ImYRIBwddpBbYNSDwQO5NGJUYgAg1oyFSTosshqkMWXLRzAXfUHgaCgaAEjb85AQd4TK+IEo0CTHekQ6Jk0CAwSBCgQo6CBQh0AswlmyaI2SxITpVCLQCBBAIM2WAqZBEkxGJoEdY6o70h1g8kimFoCYhHSUgtK2Kksd6n2fqQK7DkInNwJ7N0DjO8CDuwAJnOAW4jAk0ZxIZhSQg0NsLQBFBXP8PtG/wZhEYSZ8RwFwCR1Q68JZFHc2k1g7gYwPQVMzQGXLwKXrgIXp4HpRWCpAbSk82XCpfE2vTRs6G7TJP/L7wC+8RuAmZtLOHuhycxBsShuim7IIGS5lbU2TLIAYUPHaa0bswBhrZHbxO8l2QMTLIgynH0OOLVA/RQUKOB+8Nx0SVcrNNU9+ZFDRYyOlZTmYPoPgSmqVkijDqg9MU3Q8q9bENYGFoKMg3OV/Xh27ASW3YK6+9ZljBFTIEyCepZlmDHQjIIIGM3vqveiSgcFHCJBY5JRSNMbjPsZPNA4gPvqxzDS1mb4IoTQd/rCHiTZhHCS0+kHFiMKQBBwYDwzg0AgwVHph7pZDsktfCPDJL7z1+mGUIug2YR+mYR2AkCwb4JhrESTATn37awCY5PAjjFgchwYnwR2VYHKGEBeWiUy6Il0oxGrolCX0Dsh0yJAgQGV/hf+zQFSVbYhK6MZGQYK+m8CB7yo1neYIEG8JXg9FBMt7KzPAwsLwOICMDUDzMwrEHFzEbhJ7xEL0dQAYjWn8yZeGzZj0z/5k8APvA2oLTfw3KllBRASTZu4ksEFXHFUtABhM4Zq1du0AGHVIdvcL/QNDjQwIFCgAIJmDnQZIwEF3/dxx4kyyqQ5oMf0e4Drf7KKYulezMJqrqoBPNIbjN+BMyP7+K5fUfMrJ3GVKqCJXmkOiFkwWQWZ+EmvIFoFqm4g26eVjEKAFrKhjkGWSbIJ9L17Wi6+tP4Eqv5uDZSMu2ER02mwELIHWmgnjIK8r/ZDsQec69eCRRYuajZBqhwYJGiw0KDPDTYhLG+UdAPd5VPaQesROOXQB5NgAgExXaL9KleAI4eBe08Adx1SPQCoSQ+BBYZaSg4S/RMQYMaD3kuwKyFQEMZAp2V4ORMoaCaBWAQBCazvMP71wySI+RSBKFqX2Fh7TM9oHQcBrJpO1dDfDQUULswCX7wOvHATmK4BTc0Ibe6VYHi2/q3fBvzizwFeo4HPPrvE7IEABAILbJSUVVoElWKIUg3WB2F4xjFtTyxAGO7xie1dZ3CgKhVUzlexBlHL5gQ4aPtoNgNQ46XDh4qYYOagCcx+QIEDupKmugB0CRSnH7qxCr2BQsMt4NTEMVwp74JKGcjNptYXBPGyxog1iHwQIp2CvOfodUlFg2IQlJgx0jKo+Uv5KAjjEDXODXDQy+Hx1hEc9+5CBvlQlyHCOdlZFuAZgCCWZhBdAgsR9CQo4EDugkWToFkEPZcxOAjZhAywTIBCN0YKUwSiN9DNnUiTEIKDDiDBTCXQhF+tAJMTwJ4JYN8eYO8BYNeY0ghoBLbyWQBRRLfET58kcBJiSpgEiYcABH36MUiQlINO1TBIEPCQAAkmkxCWkxKbQOwLgSud8mGgoO2r2cJaRJ51ZWlNP4WgoQEEvdbL0HaJpbm5BFycV/8uLwLXloHpOtCg9d5G15JB7upXfSXwn36TYtbC559fQJbdFB3kteWyiBRJi8BtnzVAUNoUa7c8yLEY9LosQBh0RNdpff0wB2E5o2YNCCiQ+ZFqvORrEySlRTh6OIex0QrfCWLmT4Brf9zF50Cm634Ozo3urlcsnn4JXcqV8eyuu7GYK8fSBTIbqTnEFCPSHbeqZlATutIoKO0B/SdiRNEuKMZBVUBQ9YPSJKi5XHkniLaB3iNGgbZZCHy8vjWBe/xXohCUEHB6Re+VedecNgmKWFFPhElGgcGEoVtgFkGAgtYmMJtA+XR6LZUNMuFpXUKsCkFXNohwkQGCgANhFPSER5MdCQfHdwD3HQFOHgFGxhUYyDpKTxAeq/mHCQQMtsAsRwyFrbKsNGAScJBkEwxRp2g5UpkEWq4PkEAMDHXOZizhaM8J0iRoMMIgQU/+3AyLAIEGBgwQKGYNDSTotWFIRWMmXTVJu1BvAXM14PQc8LmbwHkSTW4zsPDAA8AH3qdOhhefv4l6O7vCCyEnZknS1dG2fe7nYrrpy1iAsOlD0H0HVpZqqauulHaRGJEuzknNQSytwL0VPDRbxCz42L8vh52USKZL6Pz/B1x5Z8I+udM+JWeHTsuJVqGTsFEfAzJYLFRxevI4lnKV8O6dxYi0ilB/EFkpqzt9rUHQrIKkI9T1XyZ+xQgoECGMgWIUIudFk1GIUhkEDw75VbyqfRy7cII638fuikWUJ3fV8jp8X+6qk4yCCQpMvYIGCuFdsPYBYI8Eg01gJoHsmbUIj7phiHhR0gKh3kBT8gwSdHVDlliCstIOHNwB7D8ITIzEwUDIFKRgufCttJSCARaScTDXabIuMbZFPA+EITAYBWENwhRDF5Ag/BdLFjRIIJBFrAKlakh2w5O8ARJYk0AMgoADEywIw6DBlzTTopNQSkllffR6pg6cnQdOLwKXl4HrVGGhnTGH/FKz5t0bGQW+8Fn19XMvXMdcMx8DCPmcEzVtsgBhzXHejC9agLAZUe9jm0lgoEBB3LxHQEIcHNCFS7do9tSzmCBROeP+3Q527xlVd4hzfw1c/R0tSEybzHuRpv0wCzTTu6lHPF2ewMuTJ9ByVFLbZJ8V7pHKBXWBF/dEJUykSV9KGSOtQpQ6ELCgUhSqAkKXGmqGgRiFeGohQDkI8CXeERzGA8hBlS2at9L80jjscMITBbxp7mMAhRXCRSP3zuswXodzpNYbxEACgQK6G5YKB02fi6CQKxIMJoG2u6sAHN0PHJwESlWgQGryxJDEJv80xiAehhVphBiwkOOWWJl61xQtQggoTFBgphwkJWOIFU0mgdkYQ7gYMjEiWBRjKkfFjcSYwgQwW6DTM5xaIE2CkXZgrUIi1SB6Bk5VaCGnAAYBCyQgrbWApZYCC19YAM7XgHqa9reP68EwL0JM1IsvKEbq0uUZTE1lUChqL4S8eCFou2XSITgZuJZBGOYhDffNAoQhG6ZOwCC8Zms6W8CC6soomgNiEqJSRq5WaKrUAqUYdu3IYt++qkor1D4PXPwVoG22bOasYEJP0AskJGbM1HhqfYKugKBKg7nSOC5OHEXbzev0gfqiYg6iyZzeU2r1DN8RmvbKURpbgQsWLPKywhJE2gJhF4RRkDSD6B1oD48Go3hl8ACqOBIDBuGYJAgU8045ngJKEeWJL4IJIPQEE4IHQ5vAZXtaxCjlkHRXTAwCPfPdsL4rrtHfYkbkAVRJWM0De6vA4UmgOm6wBAnAYw5XbKTTlkucCkmwFJOuCEgw2QYjfiu0GrJcJ5BA8RNNgq5o6AQSQoCghaB03lDagf0mHKBmxCoEAGJZTakF+qfZhFCPoIGEpBdC1kCPWQgahKEwGm4J6zDdBJ5bAk4vA1ebwALpGvr5eQ3ZNSq5O3Q9+eu/BE6cAOZnF3DmXBsFFio6yOdd5KgnA7EIXMmgAAKBCeuFMOQDSzNBQDONfWxKBPqJvAxPspSR1flhXbwfNmCSagV6ZuagSSWNHsYnHBzaP8JlRlj+NHDp14H2oj7utFNARIcCGMzbym7h6n6LRPqAGyP7cWPsALyM+BVocBCaIUWljTxvZCLAoHL1BBZUqoFYBVOcKFoFZgY4BZEEC9F7CjRkUIGDx/07sc+5DzlU4genQxPFPxEywwo4LGuURcwKBkEzhoFSEhjwNqTMj8aWXtIdqlEKyZUN+p+kGwgs0LKTeWDfBDA6BpQLqtogrDLoNGQdSKA1MQomgDKAQXieSzwMTGkChVhqwoiDCoQGXWkgQd4TMyodu5g3gpFuoPgRUcATt07FsBjRTDVokMBaBK1D4GUMIypmEDTzIy24aV+51NjQKojeRDptUhXEXAu4UgeerQEvNRSzcLteiAkg/MZvAG/+SqAxt4Avnm0bdsvkh6CrGMgwyShztABhU6adVW3UAoRVhevWFu4HEERMQXS5MCcnYgvooZgDlU6QrowelTIaaQWVXvBQKWdw7GgVDs0YzbPAxV8CGtc6HEwnsJBWqdDpkpY+6/gZFzPV3ZgaO6wFgyZbL06JSlgY9zfQyyXSEAQARK8QMQuSRoiqHkjQqD6PVyuQE+IelPFo5jFUM8eYvgjvilOiE9Me0ARjYiE9OUn5nsk6xDQKRq49nByNvHhYDmmYA4VVf2SxHCjmgD92ADcPjFWBHZNAflSVH3Z9rG7IokkrySh0YhOMyd9MxTAYYjooUSQjYk792QqQYOg2Yh4Jpg5B6wl4ctaATRgYWp+wB6ZokXUcur+FOFGGqQTNIrBw0dAjMNsgTII2mAoZBW1tLYDBTDXwfgnToAEi24zo92bbwDN14HlqfeIpl8jbDSz89E8Db/0eMqZq4NlTy8i5uqNjnlgEKnEkHYIGCOSHoDs7WjfFW5tT1vvbFiAMOMKrAQHmppNETvKOVVIK0p2RnRLDHgs6raCdErllc1MxCIUicOxwBXmyuGtdAi7+IlC/ZDjZyBU9LRC3yixEt5QEDm6OHcJ8dW8IDlQNgYAEqUYwxYkRgIgbHqndN99jtkADiM6MgqpuoO9R5d59mTtx2HkF3MzIysrOBHOQjI4JFjqJFnmyT7lbDgGD3BUnBHphuaSU5EmqQYsXSdJRmgDKE0C+pN0J13IerwIs9MsoxABWTFSiBnqFgFGfADEdgrmcxEhKHYVZ6MQkCEjQseKSR3FZFIJGVzawv4ShR5B0A7MEBBKk9JG0CfTaAAjMPMikr1NFIQjQrEKSRTDTEMIyhNqFAKh7wI0WcLYJPNMErt9G1RBf9w3Ar/6yumF57rkZIBNVMnA/Bv4XBwjkgUCpBuYBNbLtCXDXcp7b76w5AhYgrDl06otrAQTdsjrJXDZPoXJXtMLrQGkOFHOg/A6IMSDmgPsrOAFOniijWCQr4Bng0i8Bi8/pI87o203Tv6DbfUvaZ6R06/19mrhnxg5iYXS/Ygb0qlSTJQEJkbGxlC6qm8p0ZqFt6BTEEInuGslGmXLOitGPqhTC1EPgYBxlPOw8jrJ7dzT6AgjknQQJkmQPwi8mug2aefgYc9ChFDJ0B9TmO2GeXVIRQh/QcOWA4k6guAvIiMhwULeaaetJIYJSgUIiqxQDCRECDNHeCpCQZA+SQkYz3WACBm3DHKty0JM1j794JUSWClz2KEyC9LqQ9ICkEHjSruvSR3k2Ug3S90K0BaYeIfRZMFghXr9mDNi6OoVF4M91e276vO0DL7eATzWBy1ROKWDzFq9X6/X1+x8APsju7AFe+OI02gwQHBSoH4MBECjF6bokktV+CBYgrNeQDGS9FiD0Gcb1BAJxoKEnTOMONmQPKK3AFxFthkSmSDqtQHXtITho+XAyAY4dKaFSpeZLDeDKrwBznzQQTXJGoBmIsXzCJ7cfZkHSD2YlhFo/uSPOjB/BcnkPA5KYQ2HGZBD0HWbIKKjPjDS+UfYobr1is6zZBK1V4GsxpR9ijZy4WBEHMkdx2HkChcxOBfA6jX+SQYjIkFRgGBMsGiteIWQ0gEIsxSBUuvRwkKoGalxUBXKjQK5iAINe5+1agcNagUISUCWBlqw3qcswv2cCg2Q1SCeQoJtVhf0auLmFWQasGASRMTDxoA2UpPSRTZSEEZAUgnZS5KoGcVoksCBVDdpXIqyGkHbcwkhIf4cuWoQ0FiFMUejjJ08FYhJOUxrCA2aHNP1w9Cjwlx9SPhqnz8yhVgtYqFiQFIMGCSRSZLMknWKwDEKvH/Lmfm4BQkr81wIG1CTf+aqc9lGYRpBpKnE3ysBATzZcqWCCg7DPgkovcOMlXbXQbvk4fLSInRNlxYte/y3g5l9FzEFYqWBexc2/CSyY4sRuXHQygKKMU50WpyePo1bdz1dsdbzRLaX5WnpByac+Vzwo26MkUFDXTmEWolSDlDKKIRKtv6UZhTyyuNN5FJPZV8ZZA+PQUo/SZBaSICFFj5lkDQSF8FfNSU80DMakKHeidMB09G4FKE5qsWHaedrPtWOQQCGNKUiirE5sggkEwkFOpBx0jMx0Qyz1YOTtZcaPVTYIiDBAAodc21gzw6QFnQwUKNVApY/EMJjpAgEJZqpB/hbBonaqJJBnphtoDJklECajUxpCjzsbl5r6BA0QpSMogwi9LLEKn20Dnyb7Eg16+jkFNmIZEsb++Z8DB/cB58/OYnYRK/oxcIqB2j5TmaNu+0x/822JTTFsxDCtehvbGiCsBQisFQTIvWoECvRYhaBAXcnpc/6nUwtKdKUEidRuWMoaRZgoVQtkgkQgwfN87NudxZ69I+pHN/s+4Nq7ySi9w8khqrYuzEEMLCRnhDSQkYHnFjA7cRK1yt7wPl0fYUQVyPRv8PcMijJ6SX0xZ+o1hAumLsHUISjQIKlqTlPwRSeDcezCweyrUHKOIKN7PKQGIwkAkgulsQrJ92RY9UTZSZ8QAxKGoRKFOlcCsmXAFYvjVfyse+KBngskNpZcPhGj8Gwwl0tjE9IAgkZ+sZRDGkgQ0KFUprFeDaFttdmrQVspm6JFszEWlzsmmjpR6WNY1WD4HogWIXRaFBtmLWAkv4NOLIJULaxKi2CmH4y/hW2iWC36wBkPeNYHLupy2FWcIuuyaLUK/PH/C9x1J3DpwjymZv2oHwOJFFmoqAGCtH2mUseMbfu8LgMyoJVuK4AwaEAgE7o5FjENQQozYH7H1Beo9yPGgNYjrZvpfSp3I4AgvRZU+2bdnVFXK5D2YHzSxfEjowoc1J4Czv2svk2TrjqdhBN0tTZLG5NAQH/eNfkdTezTO+5HvXLIaJlszhBRS6QwdoF+T5cGBFIiQGkIDRQUcBJ9QTw9oW4u1TGKsyK93uscwr7c18DJ6IZUKRNkR+bAZA9ig2ykJozDilU1SJgTZZBJoZ4JIHJlgP4NSqjVFQsMAigY6wj/NNdrsAn89mpBggEMwtiaGoSEHkHYBEaJAhJ0Iyz1ewqrSJUngngjSNdMszJBMwUiWCSaQUCCCBZDLYL0vzA8EVZoEVJ8EUItglHCyTcEol/QjBPdDITnjS6j5Nc+cD4APuoD1wc0Iax1NaUS8Lv/FXj8lcC1qSVcudxiH4SC7uoYihTFC4E1CCu9EBSbsNa9sN8bdAS2JEAYNBDolh7ge/3kRBK7qzSYAX2RVBfLOBiQ9Qgw4LtmTcurHguqERPpDwgYSAtnSiuQCRKBA1K0331sBPliDmi8AFz4BaB1M3HOGIxB6lVdFu/FLEgaIg4kPDePuYm7Ua8eUvf8xjaiKd2cLSSJEN2aqu9EdXHM2migEAKEECwoR8UIOChWIZspY7f7CMazr9A1Cx1+OmmTXBpzkCYSM6sUZGzT7rD1zpl3yjJh0sUwW1D/zP4Hg/6hd8QDqwEKacuak75wRYMGCRI/GWhJNYiwQAymhEUQgCAiRrMttAAFAQiEJVwFFsi62hQshs2cqJpBfBG0JXNYAtlDi9AXiyDCRREz6slf+qbxOqQclGKhKzVE4EopkjMB8MUAOK8FmYM+f3qtL5sF3vEO4Ou/FpiZWsK5S82E3bIyTOIUQ6hDsAChV1w3+/MtAxBWCwrWmioItfYxEBCVswkrEGMKdMogBBI6bRCVwSl9gQIFmkngvKN2SdRdGpk9MNs3C4PQ9uFmAjxw3yhyhbxKap77l8DyaX1+Ja7i0W27Zg203iDGh8tC9F3OiBvrMkABz2pKnEipgdmdD6JePaINjIzZknfBAAF6So9qF/SVT60pYh6IWRDAwIBDHQt5APA3DKAgayhkStib/zoUnAPxcs5+JsNugMEIY2xVci5oXKMPYUWFi+SSWWOQUeWJ2fzG3zHdMlhIrmCzQII4UaaVPposQtIfQZc+imCRmQTpb0HHQhO1ZiDYhlmaOdV0d0ejbwO31dZCyRVaBMNISdIMnJLQDEFoqKSrF7h6wgADIlgkIKAYRP0TNJeRlCT3YwEuA/hYBujkcrJeEw6JDX/2Z4Dv+HZyU6zh9Lk6CxSFQQgdFRkggA3b0twUaf8sg7Beo7T69d7WAGE1oGA1gEDu7tQkH10NY0xBePeoPhf6O6QC9d2zrCusRAipZ3V3zddWXb7IgMDUHGgGgUBB6HugGQTSHnjEHNCzF+COO0rYvbMC+EvAtf8bmP24odE3OTv5O22aMHQIZhBkxgtTEOb61Hp8t4j5yXtRHzmuEysGOIipEMzb7mjCF1gQEzGG8kT9qb6NEpBAgESaOqlYZlBxj2Ay/wbkMpPhuKT+LHqBhV5AIS1TEz80tf0UISO1ntgMYJCMwy0BhX5AgoEjY+kFI/1iloXKcMc0CRr1he+ZlQ5Gj4aY06KhQeBUg0zKwh5oRiGsaNBsArMIBBak8oC+p7thcjMn7Y3A7IFUNIgWQYOEZMkjgYbQXVHvi7ToDsskJW2QFCvS8vr4TbEiMweSipDySAFpgWptfSoDPAPgiuh4Vj83rPobP/pPgR/7MaBeb+K555fYIIkAApU7UoohzwyCyw6fDBAoxaBTDSJStABh1WFf1y/cdgChFyhYFRAIL3IR3S+TvURdTTwRvxxjAfT7IQgQHYH+sUqnRX6p/08bIXK6gCfWEBxEzZjkPVW5QGkFtVySPVBtnAMcPODi2NEJpTuYeS9w7V1ayRUehXESyUELGKDnlFmMvyGVDGYiXa76hrNiBpjf+TBqIyc1/FcBULGKbi/jbIGOq3yukJKGIuaz7C9pFPS6eHe0bFGeHQej2Ycxmn01nAx1I+j+SD2POs2Y3cBCWtmZnC4JoSK5HpLw8JbukHoBm14H3uHzFavtdzvJ5ZK6g35AgnmaJMsbZciN9IIJFkKRYmg3qXs2GE6LlCpgoGCmGqRjZkKL0HTUBCtsgKQSmEkQkCBOi9o8ibUIBBSEATA0CaE5kvGZMAdpxklhp8lEmoHXnUwzSKz0OZjsb0HCy9MZ4O9dwOy4ssZTpOfX3vLNwDt+kfTQTXz+i4vch6FYJKtl7aaoUwyxUkeqZqArja5msAChZ5g3dIHbBiCsBRgkv2PeFIc9DvTFKfUz445QfW7oBoQ10DSAAAl+1mCAL0h6xWyEEgMEmkHQ6QP1Pc0gSAMmSS1ox0SqUJDqBTfjw8m6GK1mcPLkODJE9deeBi7+AtBeSjmJ5EpuXtGTYCENUPBPVv0zg6Sn8sDJY2niXiyP38d38OqR3JYJFtTncYmh4Y4gV3+OfbJ2QV7rdejbqEwmj9HcKzGSfThMd6zmV7Ti3OoBFFInU1OjoBeQ5fhOKae63Q300e8k3udGU1fXzzaSy0SYMDwTVjAFpl7BWD5WCiqgQH6j2kxK7qC1d3a8qoEmS90nWwyUqHmFtIo2zZPYYVH7IkjZI7XUXnYSWgTp+JhgELiRk1n2KGyF9Hig1IB2fAy1CCJW1MJEZiukn4MGOWlpBi6nNAABpyNNgBBedxLltAEwB+BzDnDKARbkZ9znObGaxb7iy4Hf+s8Uuzaefn4BToYYBDJLUk2bFIOguzraruJrIwAAIABJREFUts+rCe2mLTv0AKETMOhkTRxOcXLnb8xXK1MEaczAShAQFxQaqQHRC4Q3tkpMaAoMZeLnH7gGGCoXHYGBEBzIMlqUaPZboLl3tOCjMprHaDXHQkTHdZAjBE4NmKjHwrmfBtozKSeTyRasnLyjL4RTmtHlJ3n1F70CHaiDpR0PYnn8Af47Yggk6Oa2DF2BgAuDS04KGBVrI4GN3BBMYEF/u5kKJvJvZL0BlTCmPXqBy+R3YsuvBiyE54FaIzEFlE4YODDodrnoZ0LvcbkZCFBYDUgwT5fk6ZkECVLqaDIKojfQz8wqJASLYapB3BV1Eyz2RiB3Rd3fgrQI5LBId9+sCUiUPJoWzD5pEoQ9EO8EAQdmnwdhFKQ6gdgI0SEkejTwtcEQKwrLQD+HWDWDkWIQ5kB0TEIISnqCDoW2N50BnsoCz2s3yUHPOnffB3zoA+ra9tKL06g1qaOjMAhR06ZsVvkgxPsxWC+EQY/HINY31AAh7cLeDRikpQPMm16zM6K8LzS4JgJUORH9J7SdKSgUQGCwByYAUD9EdYVLpg7CtEFShCgeB1pvQGJD6ZdeLGVQLmQwOppHoZhDhtQ95oPSDtfrZKEIF/8ZWCTdwYrpzniD9i3ZndFAUCvu/Dt7IwSZLOqjd2J5xxMIuCuj3DYLx2ywAhoQqB1Jsgf6Pf66kUaIiRhDsYZhnRQg54xgLPekFiP2/3PoFzD0BAoJpiA8TC7fovxq//s08CVvESisCSSkMQlpB2acVlyYKiaejKpWGQnBkUbJI9+Rm42WyAJE6wbCro1tNeGGmQlDh0BahDq9lh4LZg8GnWZgoGAyCtLpUcBAsvTR7NegWYRYl0fDedHszyBpC77pSFQziOhVTJUYkxklPSZACLUwAfCyA3wqC1wdMFCY3AE89Uk1fudfvIGZei7mhUCphhiDoEGCathkAcIqz/wNWXwoAUIvYBAyAXqWj0/2CT8BPf+ZQICnIv41mWyApsFFFSwiQ4MlCMGA9JOX78skrzUJfHdgTPwqd6jWb5Yu0mvKSVeyPspjeZTzLgrFLAt4CGU7SUDAx+Jj+U/Pofmp6/DOLsC7UUfxFR5Gv+8PAJcKtcwJX/hEwwMh+Tm/lit2/I4/OgPpfRMsALXx+xgcUFOWpLbArFbgvTGYAoEIK8WIst+mcDEOJkxWIe/swXjuS+BmRm/5h9IPYAiXSZs5DaBAwICyPbekM7jlI0pZwRoBw4qvpa1HT+qpc/tqJ/zUYzc3uoYVSu7eKIdkTUEN8BeA1hLQWgCabcUetDSLYGoRhClgvQGBhESvBkpjcLUDPSfdExNgITRkMlkGMUXSQIc1EHzHodenmZOwmkE+08/q2hR9J5TrmO9rVoee6Epx2gU+mQXm1xDStGEqFIBnP6c6jF65PodrV4OYFwKnGHIaJIQphpWljkP321mP3+Ntss6hAwirAQdSGaAmIT31mD8IymIbPwpePmQGIg2AYrM1ec2f61SBfjaBgWxTQEA46SdAAb9PoEBPyETAZ1zqZkasAFCuuBgpZzlVkCFZr/kgcDHVQNBsw59twnt5FvWPT6H595fRfjmuL8jfCUz+8kfhFKaN3L8JEuTimgYWklf7OAhY6WxD63XQrBzB4p43InBEDGiuR47YBBuG5J/jrAfFLGdcoTcwgYXJLAA5ZxfGs69TXRgH/OgGFroxChw5dwiBQTI+gwIKfZajMTjkdFrkBsqC28CD3/IReB48MvpCgCbR6E0ffjuAT77CTMMndpjuNLMZZBwHDoFoUsg7ABX3ZsnfP+cik6MSOhduxkGGPf8Bl5Vw5NqXPMcjTE0TvDcL1OeA2jwwR4ChCbTqqpTRE/MkAQimN4JmEMKqB0lzJHo0iLVy6LegAQC/T2mPhPVyyBxogNCtmiEECBo06PuJsHzarCSRc3mWRIw54JwLdPJaXc1P7H0fBB66F1ieX8ALL7eZQSAdAmsQ8hnV9plTDMoPIa3U0QKE1UR8fZcdKoCQvDinlhiGd+0poMBMDejJmX808reexCWdIHf5LIczP5P8XuJ906PAdDkUMCBMAU0UpayPQiWHSi6DHAEB0gvkXQYIK1IFNMZz82h8Zh7NT1xG+3wN7ZcXESy10L60rLrNpDycEWDip76IwsNfTIADWdgUDSYmbF6EQIPJLiTv1FaWRBI4WNr9JgRuqSsgWcEqhCkDDV4MViEsWzSAQzIVIcsU3aMYyT4KB9oZcR1/H/2CBRIhrqfJ0boc4mqAQl93mFRtQ5N+G8tegOZyG41mAGo25Dd8tNkmnPLrCph7Tiaiw83MQshGdKElQsYmom5ih0OAQEtmeQIii19SqNAElc+g9L9r9v9/9t4EzJK0LBN9I86+5J6175W1dfWCDTQgYgOtYMvWbLIoCnoH5jqjAyMXxQuOqFfFAUHQUeSZQWjAQRrBhUFobJZm66b3rbqrqzKz9sq9Ms++RcR9vn+J+CNOnC0zT9bJzDg8TWbliRMn4o9/ef/3e7/3CyfDSLDUOx1aOGLXArDbmgB+CaiVgXIJKM4DmTkgewUo5zn7YIsUiU1Qy0FLIaIwaqL7ZoyAWp9BhDh8wwxCh8BCJZ5sBlvsqDIHTbIZZGhBaqPsSKDSYHSZ53TgnggwK/xFltvnPvpR4NWvIkYmh8cnqo4XAmkRIhprbwcgSPYgKPu83Pbu9ud6FiB4wQFf1DkDwJYY6TLINqPSP6CeypfgwA0A6gFBnWZAAAsbCCi6As4MWNDooqimuQYk4kAqBvQPRBGPh6FHovWTjmHAKhiwygasbBnV+6ZRfmgW5W9PoXapQ/we1jD4q1kkX/cNJ27L5lS5O/frOl4woLILzYAC6RYsGLER5La/AmZkwE14uL5TBSJ+bIL8m6NV4A+UDJH4tbszHCR7oCEW2oX+0HOaOyOu8ohpFX6Q8dNV/tq1O10joNAIFIixZpomatUqKsUqMiUDxQwBA50tqAx6MtAkfPbBfxIeJe99+il+sF/YVyk6hE52kPL5CALRTklmPYl1MSVbSOwMJNCnbktsRDxqIkV6n3QUKYqTx2J8d0vXpqTfsbMVgewsMD8BXLkMlJeAWlaUhyatgsxsUEGBLOCkhBRkmEFlDjrJZlC1BtJx0WZHFR2C1PrKLCo19KCCIfq9AuCHUeCJMBU5W97r3e8CfuM3KXujgsefyiOk65xFkPUYqKqjzSCQHwJndYKqjstr725/qmcAQiP2wImtyYHuHvB2RoDMALDTBjmY8BoPefUBdihA0Qewmgc2QHDASDRsIhrTkaLc3lgYMWIH4sQO0EQT9gEENRgTGdROLaB6Mo/auSXUzhRhzhZQO1dY/rPVgdRLC+h/53ehhcR57IneZ8a3J/tGq4HP321mgb9nRIdR2P5yGNFtDZgDMRl7hI7edEYB7+pqNDgeBwIk2GCBjJN1JEIHkQxdSybKy2+3FX5S7aPrHhh00BaWaaBYrqGQrSJfMlGqWKiVDVQYLc5Xdr6YOmIzxqqIQjw2MJDAwVO5zwEEAkj4hC9aszkCeMrEJCVsKBdJBj1dImGuCZJZRzQ3MOtr3USYTH4iOpLJEBLpMNKxEEJUy1i+iAUpAoUsULgEXLkAXBkHSrMCLCjZDDIrQWURZK0GW68gwYPHNEkKEdlnFR0CuyeZMSUzO2R4VWJvj6eEneUgtQrKvcitBT3SizpwbxS4tIy03JtfyGsyUEOfOLEAE2Ge6igYhEgkhDBpEVxlnx0fhKCqYwcDcw0O7QmA0BIcyNCBUsDIJfYTVQ7ZYs9cB50sAv5vhzFQAQJnB9zuhVK4SLNGOKqhP2IgPRxDXzyEcCLhQ0VajDZl/Cm5Gk7MofLAEkp3TaLyYBZmbrlYvPHTD+8Ehv/0XoR3XnYsB9SFWW6nbD5RnIutan4Mg18ogqcxUgjCCsVR2HkbanGqryCXeEVXwP6kggz5u7soUz1YkIwBfZ7Patz7QJyPsUQWKKyQCl3fMI1xDcaJ6ys62eGu9bWtxvex0JthopQvYm6xioWcxYqBsrRNiumLHR+L7wsgwMSZghaQLAHbfAuGwAFUsnqfc6V+i4KNaf2YDAkCZE9RwLHNKMjog6fmie1oqmYrCdBgzw1ycyBLrJsWaXExEDMwMBLHQDqKcDTK7l1Vo1KGxJVJ4Pw9wJWngGpB+CQo3gdyoVcZhIbZDCLdkWEYASBc2QxiKKuhCA52FCJRcZ5sCBDkcFMGd1kDvh0FTod5pke7rz17gbu/zY8+eWIeZUOYJSkhBnJVlPUYZNlnWdWRPheAhHZbu/vH9RxA8KYiOjbEoliREBq6XAbZhMZLIdNgkyWR7QJHHuMhbjrCgYEeshDTLcSSnBEgOoxKkyaiJIIK+eoFzKksahM51CYyMM5mUD2dhzmTg3G2CIMAgbRL7MLz05I6ht57BvGffAzQ1MVUXaSVLYIXLLgWchn8bcIsaCGUtrwUlf4bRPlk9aacGLAECE66ozfUoKY9esMI9aEFFsIh5kAfQ1wfg2bXguhCo3Zwyo0JDizUqjXkCjXkczXkiwZKJRNGjS/mBAoIDJDdhqSDJTvA3lPYgvrf2ZQvjhHRMCWswN9VQgxNkYH3QTmsgY0pPaDBNZ/Yw6IBGynj/ar1uWAmWVhRzBuEmxNRC4lEGKlUGOk07ZKJQRRbbgsoLQKLZ4ArJ4G5p4DcZSFylIu+kumgsgg2WKCh3QogqNoDpWS4CyBIECELPMkhK6cOBRS4ZgHhOnkyzNmEpbZ0KEAiCTx4HxCPA+OTi8jlwNgDquxI+gNZ9jkkqzoKEansRwFA6GAyWoNDewogqIOZLXcqEyCAgbP4ywqH0l1QlEImxkA1GhLAQVZCJAFhX8RAsi+MwXQY0VQcujeLwNPw1pUcSt+YQuX+iyjeOQtzSQRaG62r3XpwuobUL5Ux8Kvf5FuEOjLAu4uXx3gWaztgK/9Oq4AEGMo5NB3l0ZtRGXxBfSqjfY/OuR1hYj1YcVIdne+RjIIfs0B/i4cOIKkdWUZy/Oo/gI0IDCzTRD5fxPRMGYtZTuIwhoD+UxTmMnzA2QMROiDxnwgh2GBB6Azkv9WdoA0ClIa0dQg2SlBtEFqLFB1QKlGB4uGpMAhyqMg5xZXerIqZbaaxge25wijI+USGIqMJDTtGQhgajiNEhTaUF4UY5k8D418FZp/grAJjK3wsmaUIUWoTWHiC7kW6Mko2QQkxeP0QGgEENl24CTrnKlWsrwxf+jOlRP5bHLgYcvOEfqOMqjreeSdwYB9w8ewiZhYJLJCbomK5TBoEBhB4TQbCVWSaxMFBwCCs/uy1/DNedYCghhfq0b7wDlDKHdsAQSz8sj6B/CmZgRAMlvJE+oAIxcDCGhKJECsWolMv9r4KJaYPMC4ssSwC40wGtckMqk9lYMyT8mit0UD9JUaPWRj6g3sR2iLdEtWFX/WubUD/u/hXewYVYIMUW2KmZmEIoNZ/HKUtr1DSGZXtBvtV7OCU31XU4s5kECyBC5w4XKgKFog5iIf2Ia7td1knexfpVgLC5Q8L9yc3Cjig8VUtV5HN15DLVZHN1VCpypABBwW2u50AAGoamsoW8JCCozNgUkPb8IZxBh4xolz8xd+9oKAhHmgQY3AwgWuRs7uX3VVFL/RgZZ5+KXqr1CXYKdKCYfCEH2XWk5xj+EZEbFTExgQhC+m4hr7+CNKUxZQMQxOOWbTYZ6eBmYeBmYc4aCD/BRl2YDVXpA+CtGAWBkouPwThqmgv9lK3IIs4SaZEAAtbg6H+vYkOwTWcxVRCRawejgKPhbmJVKMXWbd88R+AZ94IXL6QweU5Q0l15CwCeSFwoSL/T4JSr2GSKlxdrbEcnKezFuhJgMDQtRQUuWyHecEiep/XJXAKGEVDBkIRDWkCAawT8jq63jih3Ty1Gqo/nkb5wXmUv3kBtbMFmCUDqJmwqn4VeDpr2NU+WovqGPnwWUSvf9I9NTYNISggwD7OWdgdZxUv72jBjI+iuOtXYYXSflOxBx6oVIbKKMjv8gIB8XfKXGC/Ou/Tk4+F9iGhU8noZaikfBp+JUBiI4ADKmyVzRUxPV1BLs+fD9HhcvFnoEBxtVOV5XaIQYYa6LN+YQV+UgdjMhzgDwZUUSK/GB8DxVaUtg9ed56zAK6eXbH9vuJ5IrufI2DkfZPrEfyZBMlsykJqBBzIv4D5O9igga/AlGK5Y0TDyGgSIZqTRNcnX4XCNHDyy8D57/N0SrvYk+KqqFaiZO838kMQIQZH1C3wuyJUlO81y2RwNau6hxAqofNh4K4YkGvwfAggfPITwC23ADPzeZw/V2bsgVP2mSo7ipoMNkCQVR1VkarTKVp1hdWea4PzOS1wVQGCnzjRm7WghgtodMg9K00yFBNlSJQMU8j03meLaV7Ow5grwCBW4MISqo8toTa5hOqpHEs3XA8vSsXq++Uc0m+9R5o/eBZthUmwR7h30W4DLIithhUZRGnnG2BEd3maR50+POyFmPn4Xz0pjK7URf6+wy7wGYwmWWIOovouJHQSQ64OOPA+33bBwnoHBoZhIJ+vIZ8tY26phmqFhwRslkBhCyRQcNgCnnbm6A0cpsAJKygCRDpWrPSy3WRaI1//FaCgPBDfNl6GBsErq/F7xk46pMMc2KEHKVi0d9iCz7KzAvi/7VRoJcuJeTuI0ITKKDCgoLCc0C0MpXUMDESRSkcQizrzVfYicPZbwGUSN56laog8FGCzCRSKoFHiFSpKAaKn/LMLCMi0cLtGjCNgdLWTB0wpOwDHGFU8uxnyTEgC58mq2aNloGf6h38IvOUXgaX5Ak6dKTKTJAkQKN2RMQjeTAaZVipYKNZv1AqP62Gi3oDX2DMAwR1ekGmGclBaiIQthFgqoSN0qn8eFowzi6j8aB7VBy+j/PASzKUKrFINVs6ARe5s6/AVvdbE8B8/DH1IFm31LM72jCC2J+roVmfBOr8CP42ChvK2V6CWfpZSsKlRo7mFh/b2yP5+CefcDAHnhySQkIJFIKbvRFzb3TVw0C5YWM/ggIDBwmweUwsGalVqZU7hEkvA6FwFGNBuj4MAzrTRe4wxkNoCwRSw0AKbsBWRoT0OOQCQgECu77wNnbiy3fZNpAUd12FQH6gfoyDf9+yE+ShxAwXWGyXLZocaFCbTE4ZQS7K7AYIQQAsmgTMLQidFGxzSeYSAobSGLTviSMTJjZSbRlUywNQDwCOfB3LneeiB1WVQDJMYoyB1CEqGAgtBKKJFrw6hrqCTt006AAjUdOUw8NA24P6c+F7lWbzzvwDveieQWSri5KkCAwQEEHhVRyfMIFMdZb9UU2NVLYLsFwGTsPaLV08CBCeFkQ82KmAUi1PlG95FrFwJxmwF5jRlDxRQfWgR1dMLqDxwBWae3ErWviG79Y1aQsfwH5xF7LmT4iv8dvHqTChzwNSAowIcPHS+vaizv+uoDt2E6tCtIC865+X+Tudf3muRgEAFKiqbUJ+9wLMVNET0UcS17jEHzZ6P3EmtV2BAIYRCoYbMYglzCzVUaxwI2LnmJAYja2LSFUgRovq7YmpkMwdSLMYAg2ALBCjwpqGpIQP7dz8g4Aol1E/3y23/xqyQ0h+9C6DSdfnnHa0C+5fCKrh8FORuXdqxe2qu2JoERZ8g2QQWghCsQo1So2FhsE/H0EgMfakIwhGujSIR48RdwPjXebpkJec4KkozJZ5RoRRn8gAEdnZGewiJkRiGDR0VOwEIYnhbVEJ6B3BPBVgqOSPsV98K/N7vAaVyBY8+lmFCRMdyWQEI5HDJwgxO31RDWpx4csefApDQrZXG/7w9BRDkQHcqHxJNB0TD5EkQhnl+EZk/fRTViQzMpSqsxTLMgoTRa9twa/Jtuoa+t5XR99YHAE2EQ+pmQz+qXy7QcucuZzx1Jy9HOZuSeNw1dQjlLW8AdLeNsfsr/QCKcw3OlOy+rsYeCFSVcRQxrXG55jVp63X6JYVsARemqygWTbZgSKZAZQscIZgCEKSmwDY4knodkdZoMwYKO2DP1T6GRjYg8GENfNp2uWCgk8fULJzkCjl48bOE4gIkOABB1AdRvAbkZsYuxiayIlT/FQkM7HCp1E4JZoEYiGgU2DYUwsiWlJ1aTcBg5jHgsb8DZk+IEEM7hklKJVoJEOQ92I6KtiOte9/h2lvVgaj6PQP5qc2OAP+eAOYW+fu33gr81ccpS6OCBx7JsNBvPK4wCOSqSFkMLMwgajKIrBnqv04WjNSnuNFmABI6GQUrO3YdAASLpcOQcyEtYtW7z2Hxjx9H7XSGiwk38Ct6HBj+MwotkPG7uitX4b7CGLC28AMMHqAgZwsl5EC1FSo73gLTqztwfa9sbAEDfGcTFSwo32urR9wgJaSlEdf39IzPwXroTlTzoJCvYnYmj4WchpDG08YoZEBMAf1kYQVFIc48DGTOubAQ5jUkHB8DzhRIG2R32ECyBtQ+dfoCH+dD2Y5rAQQ6eWaNQIMqcJRdXj3WZhnUqJyrLozjrWC7sAp9AqvFoGY8KEwCAYmaAAy1molYFNixNYL0QIKJ+2T44fSdwMk7gIWngRqZp/qUf5YCRrVUvRcgyPekTMirQ+gUIMi2Lw4C30oDExngpmcBn/8cMU9V3P/IEmpVcAYh7oQYyCyJ/mMMgsxoEOBAslhOSMvNJAQAoZMev7Jj1wVAYG56MepIgoKbL6H4LxPIfvAxmEUK1G28F1V+HP6jOcRunlAMkRpsdVxqKwkevEDB798imVqPorLtdTDjR50wjgtsqO3rxyCoaZUqePACBDXEQItZGjFtZwAOOui+S1cKmJqpoFQmoSenZ72xXJ6qyNkEO4VMhBRsjYENDDz1EQSt6xIbMlTgLzZsBQBUYNHBbXbtULXGi9+XuECBa7i5QbEMQbhTCB0beKZLYMNLcXYVBaskWLCFjDajYIFCDwQaKOFhcCiMraNxRMnimcyXloBL9wAPfwpYPO2EGGQoQfVDqBMqqroKBaOvFkCgpiqmgAd3AtlB4F+/AkQiJh49MY8l8kIQdstSh8ABgprNoDNthp1mq/ht2NnXSrghAAldGyKuE/cmQJCFmJiS1zFAikcsVvtAF5U9zIkFLP7uAyjfP7ex2ASqtfDyEAZ+5z6Q+pm/GlD7fKZSvFU9i7XNparncZ/TGHiO0B200+mcIEK92EM5rz3z8EnTzWxY0LQoYvou6FD87dv5+k14DBkaFfJlXJgqMmc6WQ2PgIFkCtw55U4RHJs5sCdcx9XQLpwk7G3VxV6aAtoCRKXdm4GCXgME7XSXRqDByzY0zITwhiIEOGC7fLvEvFPumju+8uqWqi6BZT2wwk4mAwqkVwiFLWzfHsHQQAIRoVGw8sCjnwee/Ap3aLSLNSliRvbddPOycJOfR0KHXgiutnRRDc47FHKYfh7wR18AogkKi9Tw2JNZ5PIGr+xoGyZpnEEQ5Z/tUAMBW7uAkwhXCXGs3beaCV3beeDBMW23QE8BBLaMuIom1Q8gqiWQiFFMK8K4TqqKWPrmeeQ+8jiq5/Jt33gvHxgZ0zD8kVMIbSV7O/nyjkh1MVaOUUWIyiLNownq1oEv2mZ8O6pb3gyE+lo0Sf2MoEIFFSy4DZIEOFCuRUMMMX3bmlZl7OXn3ejaaOHKZYqYnq0gX+CMAZtQZf64+GlnKAjGwAEFvICSk5WgGBspNRLo+72qcXc2gvsKVwICWjEO3XhOzbQIzb7PDzj4MQx19vBirPG5jI87v6Jxjhuj9HeRvi6UPkhW1yL8ULMQjQGjQ2FsGU0wozdiC5bOAaf/CThxB2cXGIOgWi77AAQOWtpMdVSGfEPpk08DGlHg+W8HnvteIBQDKhUDpyezyGYMlsXAQQIHCBwk8H7tgFy15ocbJHiFiwGT0I0R45yzZwACBwf1FJ3KIBCi5vE6E/Gohb5+KsvK1fbmTBGZ934Pxe8vwCLDo/X60oDBd1MZ57M+hZWahQ/8RrOYCVx8o8I4hJKobP81WKEhxc64wdbAd/vgZiLcVsscGHjtl6mmQlTbCh2U3hW8/FqAOR5WqrhwOY8rixbCpCcQOy1HhKhoDZjRkTOpyiJKxC7YlRZVl0OxSjupiY7oUF6PdyFfDii4GmCg3R7VKWhoCRYES6YSenzYCXmuNH9TfRM8dWW4CZwCEpgZnMMo1AwT0Qiwb1cMqf6EzaQunAa+90fA7KNAjeRK0vPgKgEE+Qyufyvwwg8AkRRvh6cnM8guGgwUkKMigQUKM8jiTSRclCDBXfvDEb4G6Y/t9vDVOe6qAgQOCpwbkYPQdlKUFJx0UxTggOg3+k+DiXQ6hL50FBqFHQwLpTvPIvexx1E5sbQ6LbTGZ4nfqGPow09DS4t6D+z7JTCQF+MNO3ipfXWRl66QClhg5wuhNvSzMFM3+dQ68AcJzl/V95tci5M8Ju5BR0QbQQiJNW7V9fN15XIFczMlLCwZqBkUTuA7LDlxqmlhqgiR+RiIokpqvQQ+oQqdgSIwVEMHfgt5u4Cgl0HAcp96O+ChGWCQEbVG1vEqS6r6KdjaBNstlm+GbJBAGyQKPZgW+lMatm6Jor8/wR6wUQAmvg08+rfA7NMi48EDENhMohZt6kKIQW1z8q47/DLgRX8IJHcCBHBmZoq4PFVmoIBCDi4tAkt71Llo0S4Q5hQMo3OL6DL7Glk9lP2+3IcdfK5pC/QkQJADiNFhKjiw0TUNFB6no5+hkIXtW+OIxpx4dvb370Xu8xOwKusn0yE0EMLIZy8ivE3kCzXSHdg4wW+hlrOCJ6TgMkwCzMRe1IbeCGjtagD8Qxzuv/qBBQ5MCM5FtEGEkAqGpE8L0GJyZT6HsxepPDgHBNyvXuyqRM64NzvBWyvBbTbjLq3sW1bZM7O2Aww2Iiho1CmXAxa82Q+2KZO9IMuQA5/f7HnOnu/UwnPSVp4vsBR2IKahyn6aGBzUsWd3GlHpoVCpf4tkAAAgAElEQVQD7vlz4PHbgVpF8UmQ+4PVAgjKvqXVgN77PODlfwfER/iRM7NFXLxUYsA3GgnZLIIMN9iloFWRrZ2W6xjmBpqEVi2/8vevOkBQWYTmxZqEgIeBBF6HQTIJBBJoEPanQxgcjHIxj2mgcs8Mcn/zBErfn2HswopfcjJdhVPVXYsG9L21ir7/JEMLCltgf58MHkpSQfm33ZANFmlFf2BFRlAbfiOs0GAbTdLsZr3f5XgkekWVIS2JMPoDrO9tcctCJlPC9EwJ2QJXcXP7cHd2gleEaBseqSZHdnVFZ3fFnUfdIYROwwebCRA0GxCtwIKXVfACBW4p7rCmdqaDFDKqls0sjZGAhCNclEyCDLXKTRK5zI6ORDE6EmdmS+S2ePFB4JFPAmfv5lUjZUaznQKp1Ghw3bOMQHoAgO+9tzsPasCuFwC3/AkwepSDopnZEi5Plexwgww1eBkzxpIJt0/VRMnJsnEQbtBP25jOOzykpwACX+Ok6l1RACvImug15kYmqDY2SAgsVDmjoOsWdu2OI8ksTMmq1ETxfz2KxT85wZTDy3416n2tZo02v5DYgy1/fxn6dim09FyrvcCrzIAYxTanKUd1IyBBFRvDqA29HFbsWJtX5n+Yn96gPtOCH6VrcUQwsKLv24gfNmpVnD2fYzoDlq4oxFqyDC5NjvQ3CQZ4SIGDCNdkKayQpeZApoWxLAXx6gQUBBNte72t1dBXAUMrVoGAgGQSGIMq0yM9IEFqFGSWg5z7aE6MRi0cOJBAMsFDeGYVeOLzwI8+BFSFd4ILIIiQQzsAwd5/qAd3OJ0OHQZe+7+B/r38JHPzRVy4SEyC0COENUSiISbCZWNBEeNSX+bZDarQlp+nzqOjvccXHNVGC/QkQJCdkS1zlBIkMhtImyCVv45gkTMKMtxQrXIh49CAjtEtccRI1UOlix+fR+6TJ1D8PxeWlxLZzqzZasZo8ECoUuPQ+4uIv3xaOaJR+MCrN5AgQXKICkiQwME2RgLM5HEY/S8VoYVmkbt2mAPncr1iRP4O090jrPUHXgfKk6V6CUtXSpiaraBcgZgQhdZAxmEpJ5zCCw3ske2JUhRV4kyBpF99nA49E6lfV2yni7cxp2zKQ5oN/VZAQWJ/uTmyUyMVRkE1W1Kr2HKgwOe/ao3cNC1sGQ5h67YEYuS6BGDqfuDevwQufp+DBj6visfko0NwEZbqjOQfZezoeW+5FnjJR4BtP8HZxunZEqaYJoHCDR5NAjNR4mOAgQMZcghAQkdtvpKDewIgSEAgb8Qv1MDLrzr1120mwS757IAEOVhoEOzcGcXIEBfyWBUD5e9ewNJv3w9jXjEPb9WCK505WwCH5C0hDP73c4rngd8Feeh8JW1QLsYOj+ipwyB4TarSaAy9RVgptyPr8QcJjcCA31WHtb4gnVEFB9UKJs7kkc1L1oCAAYEEtxiR1U6QjohMsCWzFIT7IRNsiSqJjcyNxPc20hWstFu3Gjab9f3lgAXJIMgQhMooEPHp68TonfsYk0qhV4PttPfuiWF4mGt+qkXgkU8A9/21KC3dBCDILYbA+PZj7CTVsdmzH9wP3PYZYPgaHm6ZXyAmwQsSBKPmdVoUhccCJmFtRldPAgQOGPjiZA8YwSQ0AgmMequZTLxjswlCyNif1rFtWwLJZITRUebFDLIfewLFr52HmSFRWIsXTcQd0mn+Z1QDfPwILaVj+MM5xH6SKjX6hRVs2CRwgA+zoIYfFPtk2/eAlZCLwuj/OVixw8qlEUig86lgwedG6/7k/oOv7wFxBloySGcUrU1mR/NXSrh8sYiaxQ1iSGvAMhS8egOWtsjDCbzSouJnUMcYuGsfqIt+AAxaDezuvt8pUOBRBhFiFSmSLv8EIdh2nBilgJGHXdm8x36aDCgYlonRoRC2bUsiFoswLcLkN4B7Pw7MPekIGF3XKYa2H4uwWgCBWn3rtcCt/wMYOc7n+OmZAqanK4hE3cJFGWbjYl3OqtkZO0K4yOZRaZ6kpvB29/FuirP3DECQYEBtdRUkOLRbPZOg1l2XwkVOu5moVuk/C5ZmYcuWCHZtS/GUyJqB6gNzWPrdH6Byutj4YSs1yRsetALwkH5ZHP0fOA9EmvF3XjGgqjFQQwsS+6u8IX+fbJTN9EuYBmFlL++1eHENf19DBCGNYqHtMBUru6Je/3S1WsW5czlksnzBty1mRZYCMQh2OMETVnALszhQ8AoPA1DQ6z3Anc7tN8fZ2wAxvNyMgnBhFEwCzYt2yEFUh5RhBxly4BslzqpGw8CefXH0p7k2IXMe+O4fAGe+7mzA7GtaI4BA3zd8GHjlp/lPuqeJCxnkFi1EmTeCk91g6xFEuEFvAhK8oDhgyVY2NnoKIDQCCRK5ukACLXpUK53CDmKQyJ9qdoMKEipVE8k4sGtPCoP9UWiaDqtYRe6jj6LwpUkYc6r3gLSX67CBOwAL4R0hjH5qEfoOD4vhYgTkot/op/xCr9+BcnyoH8bAawC9lVti43ttfluqLoIl6UHXkrxU62Z+UYZCroILF/MolzRevc5mDnj6ImMQbMZA/s6FV97Sy2yyaxJOCBiD3u9sjVgFP52CzSjYNsmOHouXe+aeCFyb5TVV4kJu2iDRHGhYFnZujWDLliRC4RCsEvDjvwIe+QxQnFfabQ0BAn3rrpuBl/0VkN7O5/LJ8znklwxEotxMSQXT0mJcmoW5wm4KcxCIFldvHPQcQGjFJPCQgxgoIuzAB4kACkq9dea6yFgEC5WqwX9WDNYRBwfCGNuf5t4JhLSfXkTmTx5E6W5FKMiTyutbu1Mxos/qSsWY+t9pIfVWP0MnnzCC3TBedkBhDezwgsIwIAwz/TOwomPL3M03ggbO39UjCBToSLD/38wvmrCnL+cxPc99DcgljiY7YgrkT5a6qFZdJM2BK6XLUWxLR0TGzihd0g8UBLum9dHz/KaRhkDBx2WWFYJyAQXpwihDDop4W/gnpBIa9u1PIhaNwqwBF74L3PkeID8l2myNAQJ9686bgFd+EkjuAhNaTp7JoVQi10gpWnSAAgPVFH4TY8cLEoL0x9Xt+z0JEDoBCVyT4Ih4iHqTPgnMUISJdhSQUDFRFv9FIhYOjqWxZTjBRGKoVJD/zGnk/voEjIUKzdatW7sTsKCspJH9IYx8ogh9R8U9Ml3f6AcU3Lt1piGwGQeV/ucgwYodhJl8sWKI1MY9NbwG9Q1/EEN1FjZ7AaZypYbLF7JYyFiCMVBSGKXuQLAGKnvANAe2l0HzcELAFrQemuvhiM4YhSbVIqX7omkyZpVqOdRqjk0zLbxMvF01EQ5b2Lcnib6+GGOqFs8B33oXcOFeJ7uh2xoE17PRgOO3Abd81LFlPj2RRalIqZtOzQZmxSzTH1XmzWbbFEAdpD+uSvfvWYDQGUiQecMy3CBAgi3a4QODQgyVCv1nsHK5lbLBwMPIUBjHjg8gnYyxxXbhLXei9IMFkTfmaed2QwjNgIOuYej9OhKvzTmZC3XnVf7Afm2iQ1Dfc3KmWLaC0fdyIDS8Kp3F/yTOdVJKow6eWrVZX9lMCecvFVEug4sQKZYqQQELKYjURSG6osqkEhjIkAJXaHsnO96iAWOwcXtWO4yCK+ygpoGrvgki9ODoEpzqkBWR5UBiyK3DYWzfkWY1HfLTwIN/CTx8u5MKyVpanYa8c1S7c2Ebj0wLAUdeAfzsx4BoEigUqxifyLMgJbNjjvJxpLotqtVM1ZCcOn7Urw6YtTYehOeQngYIrUACvS+9zG0mgTmPcX0CsyYVql4eZjBRFexBqWRwJqFkMOXwS356COFEArUTlzD7uu/DKlPtVLuEQKu1sXnLe0Z+7KYERv7mChD1o+G9QMBvlKolntX3ldwl6DATz4UVu0a5tk7ZA893N0nloJDCZi7ARHTvlaUCzp4vM+0FDym4mQPVDdFmDkiJLQ1gKDBDXcJbO0E8wQAcdD7BrbdPtAMS5LzoFLcT1s11IQfHptnlFaNoE0YGNeza3Y8w6RIM4P6/An78cWGstIYAgYNf4HnvBp77boAAA4GE0+N57i4qijuRDkEWd7JrlAh/BFngiQaQrNkQ6BFWNgJ6HiC0BxLcugQp3pHlUmWIgbEIDCAYKJdNMJBQNrB3RwTHrh0FudYs/Mp3ULpPVe0otsbtQtAmyFpP6hj6Uw2xF8nQgnyAjeC5l8r3hhE8zoqCQbAiO2Cx0MLq7+j5Fbivl8IKJE7cjC/LNHBxqoDZ2ZqYzIQYUWgOHHEVgQGnCiPXG7id4WhCc+KoAWuwGfuTPSP4zCP1paWFAyP9kKZyKlBwZTm4NQnkPkvZDvE4sHd3AqlUHEYVOPcN4NsfADIX145BkPccTQEv+F3gGW/nQHl2vohLl8pMd8CqP9J/ooAZL30uUh89hmLucRTYMS93HK0LgNAeSHCEi1KTwEWK3GFMZjMwgFDm/5XKBsjV7sYbBjAwmED17nOY+7UfOhUmVTjP2ASrPV2C+jQ8gzx+UxhDHzOgpVuL/7i+QF2MG4UZJNUhFUYarNSLYYV3LrdftP05+kYdIeaYuBlf1WoNZ85mkM3CpkHDkjmQWQqUlsXc4OqdEe0CSgQURM2EZiLEdjHqZnwWG/GemzEK8j1VuK0KuGkeZAJuJcuL+ySIFEim0eKp4DpMHBxLIZXkuoSL9wJf+49goQe7mKy/7Kgrzf6KzwCHb+Vz38RkBpmcyQCCLBPNxb5uczHHhpzbk8tQA2cnApCwnAe1bgBCK5BAg4SHGzjd5k55FCJFpj9wMwjptIYbrh9GyAQy778HuS+d4+3ot35LkMB6XOfNTZbKIx+JIHqzIU7Q6EvEue3ZwYc1UOyTnViI2NtHD8GKP5Mt3d1+UWiBPA8246tULGHyQgmlgolImOdtEziQVRhlCiOroWCrroUBkqewkjqZeSc0/u/N2MLBPbfNJkiTJZHt7BVvS+GiXTpa8UmgDRSFXmn22LU9gtEtKbagzp8G7v5t4NyPaG71PItV1B/4PeXhMeC2zwKDhyhUbODs+QLyWcMONdhloj0OpMxYTITsHMEv/wa/aqZBD2veAusKIDQDCcyKWXgjSCMRls3AGAQHKXMGgYsU6ecN18TRP9QHcyGHuZ//JmrzHi8Ee4R6GpLSJdQ0yDayGZIvjmHwY626ZItQQ6OMBfl3vQ9m6hZXaMHtR9DuSuNcR31hJuceeMZC94FIq1Zb6/dzmSJOThYZd8JpT1VAxXc2sjQzL7Ik/lPd30TWggoAAp3BWj/J9fN97egT3GxCvXjbMZXzWNOLcAOxCdu26ti1s5/5xBTngH/+ZeDyQ55NU5cBAj2V9D7grXcB0X5KMKvh1HgOBHAkk8BAgihwRtkNtsZHKezE7MilpU3AInTc2dcdQPCCBD+3Ra5BIBZBFjFRshgIGJAGoWQilbBw/PgQmdsj/+H7kP3kuBNeUJrSxfKrgIFLin3CDvWWyvqAjpGPxRF5Vqua0TJMwO7UexWebAb5PRLem0DsBlhRslNuFwh02mccuECag82mO7AsEwtLJVy6UGa7Kr6T0RlzIKvQ8YlKWMPKLAUGEOr1Bs3AQcAadNo3N8fxrcIONkgQWQ7Mrln1S7BrOCjWzCIUS0wCgYThkTD27kxCD4dRWgK+8wHg5B08w4G91gAg0NccpcyGjwPRNJjp2NkzeUanRaMh7rgoxMB2+qOsACmFiwKQB/4Iyxsb6xIgqCDBr2aDBAgOgyBDDAYLMZAJB2U0HNgXw+hoCualRcy97N9hFoj6V9dk/1GgRhrY0QaVUaae2Cg0YSFxcxyDH46CuQ83fbUBCuwGkNoDMWL1BKyE6nnQ6rtW8j6FFjaZKNGiOvZZnL9YYwxB1GMHKzUGHBw49RTU8syqE2KgNVhJ/ws+6wUK6lxIrWMXfFIEjCzDy5MGKTO9pE+CNJaLRywcOTKAcCSMWhH4zm8Dj90h5rg1Agg0Rp7/u8Bz3sWfd3apyMJ6IU2UiJYA3S6VTuCci4FZzYa6cIN74xSA8ObjaEMBBI6UxQAgMY4iUuT+B0KDUKZqZxauOdqHaDSMwv96HJkPnWiNjH2gu80uCKczYZTvOpcW0TDykT5EX9RsQVWZAxWiNxMmsmlA1FsKwYo/CwhtafDEV8Io1M8GXJS4knOurwmeOSNO5TBlZyq4veIJFKj161kao1BWS0U1T71qLJ6SLRJMWuurb1zNq20FEpxUSEWj5RIvOmZKsnYDEy6ysKyBZFLHvr1JxGNRZs/8ow8CD35aSYNcg5unlMeXfAi45o2AHrYwP1/A+ctVRAmkkz8Cq90gqz9yMyXpUuodg9JfJBhr7T24DQYQuGKXgIKsbib9yJlJUpWnN1J4YcuIjj17B2Bly1h8x3dQfmixvsVaaAhdHxAj1TIEBa+4MCafF8fgJ9JAqNGC2o7uwJPO6LJVBhDeCit2Y5uLdrvX4d+JuI3y5tEd0E7swoUs5uaJOfDziOeMgT0p2ZoD7owofQ0aqaqDyaq9ySo4yr8F2go5iCqRbAMlRNxynuSGSm7PGJb1VePW9HpYw5GxBBLxOIwScO+HgR//ZeMCVN14ThRi+LmPAIdezVPapy4uYYasZOyaDYrviFIi2tb+iCyhwB+hs6ezYQACEyky22VuvWwbJAmBosoe0GC45lgKsVgM1fsuYOEd98IqtRFeaAcwSCZBCmOonPNHhxB5XiulfwuQ4OeWyIgGk2korNgNPuzBau/w6RpJ8rh5QgukoL40lcfcXA0RkVrlKKiFM6LMUlAyFci5WzIHzk8+OIOKc51NUsHR7bVAMzbBdmAUegQu5BY29bYmwRTlonkqpMxuIEYhEgMO7E4gmY6zKefeDwH3/83aMgnxUeC2zwA7n81N8M6czaJQtBAjkXAkxGyZmTeCFC6K1GKbRVCszNVxGDB2jfvXhgAIUpSj1mSokZOi7T/OtQfS/2BoANi7b5BB4MyvfxuF7861NwLlUXUj0fNxZa2PPyeOgY8OQkvLxVpdtBsF8pqBBW/KI3kzjMCKXd/mrr4d0NA4wMjZg3bO0VmT9uLR5JFx5nwOS4sGE0PRboU7uYX4JCRZA9X8SBFHMVmKoqIOwEEvPuWNdU2NQALbS4iyLTIF0rWhIl2CYBJkDQeZ/UWGSsTA6rqFQ3viSA4krxqTsPUG4JW3A/07gWKxjKcnCgjZokU+PskrIcRMlGRmA41DnZVKD1IfO+vv6xIguPyL/Co7SjMQg/J7ucWyTG8k5HlwfwJ9fXHUHrmMhbf+EFaVx/FtfX6nAhyvoZLyDAY+sAWJ18RaJLJ7sx4UEOBKofDRI2hhWLGfALSk58mv9iLO0jU2TQlnAgcXLmaxsEDFbdSqcnKHIicfWVvBSWN0NAdOilUADjqbmIKjV9YCLdkEOW8S62o4paNl/YZ64SIHCSHdwsF9CaT6ErAqwPd/H3j4c0CtQXb4yu6i/tO0yD/jF4Gb/wwIRYClKzmcvcQdTCWTIEtEcz8S/p8aaghSH9t/KusaIEgBDt0uDy0QCubuYdItTNors+yFsolYxMKhsT4mB8h98AHkv3CWt1az8IGtH6xPX/RtajE6w/sSGPnsMLSBdl0G29QiqCZJ4e2wIofaf+LLPJJ7Kaw26FjmxXT5YxSCOnshi8UrDnMg0xlZuVkquCQsXp3JB2ySYkCAWATRVH7pVRwsdPkmgtNv+hboCCTIirgy3KDMoU52AwcJYd3C2IEEEqkEajluy/z47WvX3HoE+On3As/8Db6pu3Qxi7krBhMsMpBA7IEULko9gvQhIYfFBqGGYFz6ADJLLUC+ds94Rd/kWIw65U9tgCCoslpVxNDs+gvcGGnHtjC2beuDOZ3HlXfcjdpEXlyLD0Josl4ztqEJ06CFNAy+dwixXxjo8F5bpTmqaEaHFbkG0Ps6/I7OD98sAIFEXBencpiZqdo51qxQDPM6oLCCqKUgUhlZCiPFOoXmwK/QUmDz2nl/Cz6xOi3QEiTQEiv0W8w7RlozC3tm25bZYzYXigKHDqSQiEdRKQBf+7+BM98EK/i0Fq/EKPDKTwG7ngeQ3fmp8SyMmvBHYJoE+o+PV1nUyXEzdYcagvHZ+ImtOwZBBQdsqSRFrkqTifRGjnoNZvpBVRsrZRM108TxwylEYlFU7pzA4vsegVURJkMuKr8RZlAWb+86LlkGcYGRQzEMf3I7tGGvOLGVBqFdgGABoRFY4YNrsrPn2oON/aJUxkuXcpilbAUhSGQFYmwTJIc5kJONk0blNkHiu5Eg53pj95j1cXetdAk0f3KQ4IQamOOiTBUXFXElkyCr4sYSBBLSiEQiKM4D3/gNYPKuNWoTDdj1bOC1dwDhJFAqlnF6ssDcH2W9hrpqqsKGmYcbuNw6yGpo/rzWPUBQsxcovCBLPJPZhxNe4NbKwwPAnr2DzFh86T/dhdKPMq17c0N9gQ9YUCQCqbcNI/2bIx6XRS+v3Cotws8DQTAIWghW5BigxVrfwwqP2AzggGbH2ekcLkxVmcCJJhmeXy1qLEhnRDJgEdkKbnDgAIQAHKywwwUfX/UWaMcvwZlLlSJPClBQfRKkrisWBQ6P9SESDSM7DtzxZmDpzKpfvv8JNeD6NwG3fAjQo8D0dA5TMzUXQJB2zFy0KKqpSn+SIKuh5YNa1wBBsge2jajNHnDnRLu8c5lyfA2MHUgimYrBeOQSFt7xYy5OFOut3VKqWNH7ntqcvsCBL+haRMfwp3YjfDxV/wBaEQhq3ML+Dm/mAoDQKKzwrtYPuOURrQ7YBNoDy8LcYgEXLpSZDNMxXxHZCkJzQKxCp8xBoDVo1b+C99eyBbwCbzbF2eynNFNqziTI7AbSdRFLO9Cv48C+Pmh6iBV4+upbgYVTa3NXkSTw0o8DR14FGDUDp85mUSmCaREk++cyUVJEi0yLQCHCoFZDw4e1rgBCo+wFmd7oVd4SyqXwAmkPohHg0MF+FivO/ekDKHz5fPMerCYSNMlS4ADDVjGyfyZfNIC+P9/B/Ak6f/lpISSQEe8x9mA//HybV1f7tgnAAYClTAnjEwWWFhUhZzaRysjV0Eq2gi9zEJSV7byPB5+4mi3QDCTwirj+4QYZcqCNF4UbyHiO2TJXDAyOhnBgJ4EEHWfuBL76dqBaXJu7HBkDfvEuHmowKhU8eZp0ZToXLAojJdsfwU59FCWhPYLiQI/gfmbrEiC47EOZ/oCbfkj3RNaBRe6u9D7YuiWEHTvSMKfyWPovP0RtsiDIgwa6AnXhl23m2cj7pUXqqRCGP7kboaNp8al2l+wWGQziapkyUh+AFdq5BimHywE4azMprNa3lEoljI8XUDOIOXDSGXlqYwAOVqudg/P0Vgs0BwncdK6RJsHOEBNloisVLgjfsTWMHTv7AAN4/B+B7/wOUJUa8G7evgYcfSXwko8DxChMz+QxNV0RBZ0EkyAyG5g3AmMENVtY7C6i5szXAfsHrBuA4MseMOdER3kr3b8YumV1FwwuUKyYOM6cE6OofncCS+973AkvqB3XL53RpRlskOnAEDd/L/6cJAY+NgaEvcCgE3tjOpdXf6BcaHjfGmgPNj57UKnWcOJkBjAFOBB+B1QljsUsGXsgJxO1tkJzQWIwsXRzNQjOvVot0C6TwB0XpZESt2V20sj5XMvqNxgmDh2IoL+fZ1Xd80Hgnr/gZq/dfukh4Ocp1PALgFWr4YlTOZZRwao+RhUtkT2uCSDwDYCsz+AVLAbjeB0CBFd5Z9X7gDqtMEiytQcivJBKAmMHKd1QQ+79P0LxWzO8v3ozFxps4u1MUNea7Q4ryAHQ/54diL9uy/IT3V1qIp+MBkppDG3r9nhr05VxDS6jS19hmQYmzmSRyZq8KqPt6S7sWtWSzSHuwiarMjazTg4mlS49sOC0XWmB5YIEEiwSY8uAgaL3MiwLY/vi6B9IoESZDe8CJu5cm/LQ264HXvsVIN4PFPJFjE+WWFVHbqAkU5VlUad6AyU5rqmhZahhs4/ndccgOOEFpegImXoo4EAVJxK6PbQ/ilR/EubUAq780g9hyroLTXwMXB4HHo2BBBe2F4I4j57QMfz5w9B3qjWdlxNi8EMq9DdapbYDWryNyUL93navoY3TboBDqA+duZTBlVkDMVYNToQWyMtdyZvmLmw6S4UKwMEGePDBLfi2QDvhBpZKTmytXbeB5lzOJDggwUClaiEctnDN4T7o4TBqeeCLLwemRbHcrj4Cymp4M/Czf8G/5eLlHObnarygkxI+ZA6LihWznfaoOXqiQIvA23DdAgSZu+tYg8oSpRzRkjCRwgsR3cShQwOMSir9z0eR/+xZm723l2GVSZD+R40kAapBksooaEDyNcNIvXuPYA+Wsyi3SHskYMDKOftpA/xqPXR1OK7Lk1MLz83kcO5ipT4dSvgduMrFKrFKSUX6uSNu9p3GuuwMwUXbLdAIJLBgpxAuqn4ztCGrs2Ou8XAu/ZdMaRjbl0Y4EsaFe4Gv/QcgP939BtfDwG23A/t/BihXqhgfz8GwdMRiMnVZbAYUG2bphtrIYXEzj+11ARDUzstUtsJamWJbhklUF5gokTptlcIKopOWKwYGBkLYuzsNZErI/NY9qI3nnF7aUBfohA8kdmhYp4GNIAt6Kozhz+yFtn2wgXFRuxqEhsgECA0Dmkyd3PgagW5MJ4V8CacmHEMVRj1K5sB2SlToR/Jxp4rNyu5CpSD579240uCcQQusbQu0E27gIIFE4VQx14RR494zPMzAsxqkOd3oaAh7dvUBloanvgh847+ujdPi3hdxkBCOA4vzOZy5WBVaBGGiROPc3gxQLRUa73yMB4JFd59bVwDBlb3gEc6w+uWUcqNkL1TKBg7u5/Gw2iPTyP7egzDzRr1FsodBkCEE56cCGMSxXouC+M196Pv/jiit61k1/BaROsKgCTjQosz7gLMHwYq0nKmzVJTKgY0AACAASURBVK7g1KksDFOmQIVAgkTybifWgKVCydLN0m2NgEHg3b6c5g4+sw5boCGTIBxrWQokCRaZJbNjTFdnosS8Z0zs3R3D8Ajf1Nz9fuChvwPMancbhmo1/OyfAde+hfZuJiYmMygUSLDIQw28KitnElhtFdUbQVRglWyhvNLNugnoeYDQKntBpjYSg0AGHnb2QtmECQPXHutHKBRG8fYTKH5+EvAqan2yFOr9iTyCRDu0wOMRVkhD/2/vQfTnt4r+5LeAt4UQxOeVOg/yYkKDCnvQ3QG2Ec9uGiYmz2SQycn68TxHmsABT2d0ysPanu3EHAR50huxOwT31KQFWoIE0iL4pJdLkMCsmGmjRiDBNHH4QALp/gQKM8C/vBW4/ED3mz8xDLzx68DQfiCXK2PyTMEWLDI9ggQIwmGRhRlk1cdAi2A/oHUDEGQmgddaWabcUB4uN+1wzJG2jWrYvmOAqnkg85t3ozbpqUnazADJiS24kx1UwaIUJw6FMfCXh6Hvkt4HqzEAVORCHqEjZJ+4GifefOewLEzN5nDpcg1RqhevpD5RKqOTzkhiRHJLdIq5BKVhN193Ce7Y8X6jtlAzx6Q3gnSxpQ0ahRykJsEWLNYMVCsWKMwbi2m8ZkM0jJmHgX96C5AXiWTdbOsbfgV48Z8AWtjEmfM5ZDKmrUWwa6x4mEOdwgzK+Kfr28wZDesKIHCHLyd7QZZ1Npirl0CtDCAYMGomjh5OIRqLovbQRWT/22OAoSy6ajFGHxbByWJQd/Nyg88/wLCCBcRv7Ufq3YfJt7NxiKHtkeC6GP4p0h1o3a/Y2PYlrrMDFxaLOHumyGhFaaPMaUY1a4EDA4pHMvtVQTXyCcJdeGmz0o3r7LEHl7vCFmjEJDjFnXhmgyoUr5EmocazGRiLIKrpDg5q2L+3nxVTOvlF4M73ALUuOy0mR4DX/COw9ThQKVfw9KkcFWNoYMPMGQTGJDAtQpDRwOa+Xi/37PiEC2evunQbJQ9X2H6SSDEes5j3gWZZKHz4PpS/d6WB9oAt9U5mg5qZYKMAj2eCekxMx+BfHIQ+NiSG42rpA+SX0EpFwkdvVcgVjv5N8vFKucpKwVZrGktpdGKQit8BKZpt0xS35sCbsRCAg03ScYLbdDZB9r7I2RhJkMDKQzNNggAKNSEWt/0RHLO6vbsiGN3SB6MIfPO3gKe+3P1GPvgS4BWfAkIxYHY6i8szNVaAjWU1KFoEKuTEHBYV8yQJEjYzi9DTAMEve4EEMgy1UvYCQ6vSF1ym2PDKjdu2hLF9exrmTBbZ9z4Ac77i5s3UvukXanABBaE1ULUHAldEn5FA+k+PM2Ra/2oXLPilN4ovoGqNWn/3R9IG/AYSKDHdQcay86AdapFXd5O2qzQZSK8DdfegTg6STdiATRXcUtACDVvATwfG2FxwoaLjkSAyykRWA83Nqh5B00wcOphCIhlD5gLwldcDCxPdbXialm/9KHD0TUClUsPpiRxMYaseJZAgNEjELrrSmxUmcTNvEtYFQGg7e0HRHxweSyCdjqP240vIf+QJWBWP0FCpsaQyCI7DsTscweG0wzbQACEBW/LtOxB71e4u9XJiDwgchLt0/o17WnpUszNZnL9YFcwB1x5QWIFVdyP1svRkp5gjoxTd1GIADjZu/wjurP0WcJm7Ck0CD/eKkC9t2ijLQdbEqVmOFTPzRuCFnaguTjIFHD44AF3Xcf57XLRYUTLP27+q9o/ceRNw2+eA+BAwNZPD1JScExwDJTYvKCCBUpsp5ED/28wWzOsKILjMkYjWIhcvRZzIai9Q9oJm4rqj/dBDIZQ+/RhKX5t2hxeaMgb1HghuAOG8r/WH0PeHRxAa8+oD2mUOvJ3cyySEhfZguedrfxBttCOLhTJOTeQBSwfbKUi3RAIHQnsQChMwIFpRAIQgnXGjdYPgflapBRpnNnBwQJ40PNTgFM0jHZhdGlpoEUhEToXzdu3sg1nR8N33AY/cvkoX2eA0oTjwkg8D17yBQEyNpTpXDJ7qzEOOfLOgAoRAi8Abs2cBgqo9YPt2Qqhq7QWTQgvcIEl6H1DnK5UMbBkCdu4eZB/K/c7dqJ2v+egP/BgChWXwCSdwUaJzTOSaJNJ/cBiIxXy65nIWdS9ASLRpq9zdAbbezk6M0/j4FWTzmlAti4ItolCLTScSjShFSWSU4rNb4CzCemuB4HqDFlj9FmglWuTzM4V/RWEnsYHjHjU8BEz6MAoPHzqYRl86ivwU8NkXAcWF1b9e9Yz9e4G3fRsI9QG5xTzGz1cZkyhBAi/xLgq0+WgR5Dyw2SyY1w1AsKs2elAqT6sR7ollAgsGrjmcRDQeg3FmBvkPnABqpmKvXB9qsDWKSgiBdS4eaOMvCQ6UNTz1GzsRefGuDp0Tmw0EFSCQdJ7SJoPUxo6mDsvC9EwOFy8L9zTmlCjLOPOsBWaKJHOeJXsQ5D531MzBwZuzBfz0CNQSzOHW4uCAGSkJEyW16qMDEgykEsChg/3QQiGc/hrw9f/c5dLQGvD8/wo85z1khWNgYiKLUoWEy+75wcUiSB2CwiyqAGEzbB56EiA0Mkfi1so8tEA/1SpiZPNJ4YWwVsPRa8gzAKh85gGUvpV1RrJL9agMcG+QzZP7a4MDBShogxEM/MURsKAae632NpPCC8nNOQut4K5LxQqePp2DBbE7EOEFfwqxPrSw2SaAFTR18NFN2gKNQAIHByrT6ymiR0yCsMEnIfmubTq27xyAUQa+8Z+Bk//S3QYl06TXfQno2wsszOdx9kIFsZg77dHWItjuiqo+Scz0HkrRj2H0WVLqbm49MJPrCiAwxayo3OiKbynixKHBEPbs7gOKJeQ+8BDMWa85kgoMFHZA0ghqaEH53d7bC3FO/JY+xN9+zKdHrxQo0DcRe0DgIGAPOpoyqErjuQwWF03bDEn6HkgbZW6KRKmM9VkLfEfgPL/1MIA7ap/g4KAFVqkF/ELAjomSY8XMnG6p6iP5IohQg6yVQ5TDobEkkskYLt8PfOl13fVGoEJON/8ecOOvU00IAyfHM6hWOYMgS0KTqyqbK5TUZyZgbqJPWqUm5dvMlS4fq3kxvapB8CJUqZDlPynPFswIiZtxGEwlS+ZIJFLcuyuOoeEEjFOzKPzFU4DMXlAbrk6Wy99kjmHC/Ij/QXyIqXDEH+hnVEPyN/cifGMza+WVPCkd0KhkdI/1lpXc0hp8NruUw6nJCs9ztqlDii2GRNaCMENRqENKbZQDMwAHa/CQgq/YEC3QTI9AGzmaS3m9BgIIMh1daBGkX03ZxMgAsHf/EAtP3P/nwPc/pMy7XWip1DbgbT8Aov1AIVvA02d4VVdHiyCs14WQ2bZdd4UZ/JmE1b7cXgALPc0gNEtvJDRKqFQ6dZXKBhMsHjmSQiIeRfU7Z1C64wIl6YrVX3l8Xq2BDQbcmgNWwVECBgUs6KNhpH7nCLStMrzg7RrLXdjll0QBKs4UvNpugWqlhqdPZVAzvTsCUic79d+ZjSrZKbuKsrgHfC8MzLZvPDgwaIGr1AIN/RGkmZ1SUI+smGVBPVWwWK0ZOLIvhvRgCrU88MXXANMPd/eGnvNO4Pm/yws5jU9mUCoJMbNayEkpB+2qzeKp6iqvVG4upC11O3fgDWf6feZqz0XrBiAwz28hUJTCF2IOmPaAQgxlE1rYwrWH+6HpOkqfewLVexbr27xhiqNXkKhmLCipj5aF8E39SL79EFiNUNdrucDAe5q4qNrYTjcLjqEWmJnK4uJ0je8GYlyUSL/bdKEc8Iwu5LnNZKm6mU1Qgp4TtMBKW8AfJPBsBpbVIPwRWK0GJauBF9Xj87auWzh2tA+RSBhP/j3wjd/iaZPdeg3sAV53BzBwEJify+P8xQoLSUp3RZnNwH1SRH0WW8zslH53wIFzpe1oD+joRgt/I9BwtYBCzwEEX4Gimj5DJhx2/XG3e+L2UQ3bqDiTUUPhg/fDmBW9TE0OkOyBzRq4DZDYo1YZBptBcABE4m1bEH7+3lXMXlCHAukPCCAEr3ZboFqt4smns8zzgNsp85QlPtBFPJFERxIYCFMkXmMh0B20287BcUELeFugvdRHxxuBNndMi8AMlHjFRwoN79oRxdZtaVQywD++AZh6sHttTVqEF/0+8Iz/CJi1Gk6czMBifik8NMnnDifjic0bLB2aCxbZAk9RYKYV49cpt4beRHW/u/BuI72Lfy+BhJ4FCN7qjawgCPP7dgQv1MFYiqNIbzx2KI5YIgHzwjQK/2MSYHXH1apMSnxLkgK+okTlc4rvAZ1K69eRft8Y0Odnf7wKDIJGromBc2Lb0wPZKU8uYSkLe4DLQkzSMZFKOTPjE7ELCAqxtN26wYFBC7RsgWapj5JJUA2UpC8Cr77LGWBds3D8aBp6OIKZp4Ev/lx30x6Hx4Bf+RaXei0tZDFxvsZ1CLGQMFVTxIp2SjQHCbSAq4u6d4FvxiLYx9rAwtFAeZkFP6Cw1kxCTwMEbuXpdugimoroKlucWObVG0MhE8eODLKHV/63R1H9XrG+9oKtIxB93rP4M1jgwxjYfgiWheiNMcR+7TpxgkaAYAVAgWovBK+2WyCXKeHpiYIwPeHFmCR7wLQHIl2JAwSnSqM3tOAdnG1fQHBg0AJBC9j+cXwO5Z4Icu7mtRq4NwKJy/n87RTZK5c5SBge1rB39wCbw//9ncBjX+iiYFEDbvkg8IxfpfXFxMmnl0RBN6fiq8M+8lCDt8ojpw0Yj2C/mjEI8rg6cCHeoPPLl/sY93qyliChpwBCw/CC9PkWKTOq/wFzTywbGOrXsGfvAFAuofDJx2DOKY/KG2Jw5SySy4d4LKqgkf6mGCWxmJgOJN40ivBNe1oAhOXOGMRbBVUbO2m98YlFZHNg6F9qDxhAcAkTnfCCRP9BaKGTVg6ODVqgdQv4pT7a9vgio4GnPVpMUG7bMAstQtUwcPRgEqm+OC7fB3yZCiwpNjatr6CzI4YOA2/4F4DKQl++lMXUbM2u9urSL9meCJyFZDVb7NXeDRGYsL3JS8IJZ4PCBQlsPlLSrGX40wEMVyf9uicBgh1eYB7f7prjjJ6iOJZIbyRwQCBh184oRkeSsGauIP+p04oDopLFoDII3nRG+9+ERhTAQH8XYEFLa0i84xD07d7aC511zIZHs/BC4H3QbmsWs3k8NUFpjUqaktQe0KB2OSYGhZjabdfguKAFltMCfnoECjHQfG7bMEuAIKrwyowGLlg0MDigY9++fmiWhq/9BnDyS8u5kvY+QyWgb/04cOQ1QKlYxuNP5lk9BqckvKjbIphIYiAlQOALuqNBaEkhyJCC8hESS3NQoGihSOcgmQnxd8ZTtGHO1N5dd3ZUzwIEuXmnPFq7CIioEsY6lfT2LlNNBgNjYymkklHUHruA0jen6jkfL4sg2QK2+Iv/pN+BDQrcFsuhPREkfvkQkOxSGICxB3pnT3CTHm2RuIjSGqucOZCDmgZ4WAqMvMifBrg9UN2xv03ajMFtBy2wqi3QzAVX1tKRGQ1MbE6ZaDXHKr9mGDh8OIlUIo7cNPD3LwXyl1f1El0nO/xzwCs+y0HM+OQilhYtV3E30i+Fw5SwpjsaJrGqi3XcfXENCAS2vgtQ4QACjg5UXQNjOFmGFYMFNni4WiChtwGCUqCJdSoldkU1FxjqLPEV/pojafYQK989heqTgpfyCy1IQkECA2p5L0CQ70nAYPBjoj/Zh+hL9nMJ66q/qPcE3gftNiulJ505X0Y8zkVFDupXyraS34FPpcbAEKndVg6OC1qgsxZoW7DItAhgWgRihWUhJ8pqiMZMHDs8yNLVf/Qh4N4/717aYzgOvOVugGyYa6UiHnyiwOq1MC2TvdngWiamQSAXVrnj92MQGjSXBBN2eEL6sNCW0KONagQSrgaL0NMAQdJSXODCa4xLu07ZocolA+mUhYMHBkltgvLXnkBtpsYfUx1A8PE6oINsQOCABUuAAnYOARQSr92K0OHt7Y2YjpUkFFoIwgvtNC71h9OnF1EsKwYnfmmNIrWxmU1qx4+pnQsMjglaYBO3QCMDJckg2PO5nNNFwT17Ti+bOLg/hqGhJOaeAr78C0B+unsNeuw24NZPAFoIeOqpBSxlLQcgUJiShRiUzYZN/QsWsoWW0tETyBAFBwWMORCurnW/20xCYxZhLeaungQI1IHo5SrvTOmNVN65ZjCLZYpXkVESaRB274lgdCgFq1RC8atPwqqIziS1BH7hBRlGYF/k0Skwdw/x1JltKKClNKTetA9IN9AfSA5p2f04ECe223S5pRyenqyKtCTufcDKtUZ1ZqkcUgxOVHAQCBPbbeHguKAFlt8CDb0RhJ6MZTU00SLQnJ5Oajh4cIAtpHf9P8Cjty//elp9MpoG3vR1YOQIMHU5h/HJIsL2hkP4IVAWA4EEb5pjg4Q1+89CcyD9EyRbQN4KrB4MGTExZkKIH6UNvOL0ansvXIXwaM8ABFUBK1NkpJ83S4/x+B+QBqFUMkHK1+sOJxGOxWBNnkPpwQV3eqNIt7E7iQoaJKEgMxaINWCAQYAG+XcTiOwLIfrzx8UBiuKkVe9r6306X+B90E5TGYaBp55aYpbKpD1wjE0EJSgFRS3Yg7VA3+3cT3BM0AIbsQWasggCINgZDUx0Luo0iMJ7tBE8dDCBdDqBpYvA/74VKHaJRaBNxAv/ELjxHUCpUMZ9D2XYI1ELN9EizRd14YNABzQEBxwVqAJEEkzHQhZCUR3xiA6dxJBhHVqIl56n8AG1GYXODZMLqpnTa4saEN2ex3oaINjiRGHTyUIMpD1gDAJXvUZDNRw5xss71+55FNVZT3qjbYRER4h/2FkKighRdVYmoMBAggMUEs/ph35dI/fElQ5x0jQE4YV2WnF+No8zF7j2QK3lzso5k3MiIXIXHchpPTaexWjq9qBq5z6CY4IW2Ogt0Cht3fa2ESyCtGBWazSQFiEWN3D08BA0Tcf3/hi4/+Pd80U48CLgtn/g2QSPPjGL2RlDOLHy8IJ0U6T3mV+BTwKDfJ60qCfjJpIRDYn+CFJRHXo0Aj0UaVmt0TJNFElXp5HFMwcOauaEOo/x37vbi3oWIHBzDWGSJLIXmJhFZC9I/4PhIR27d/UD1Qoq334ChtFgoVWBgtcgyU6ZcGctMO8DCi+ELcRv2Qdt2M89sZMHRE/TK3Olv9E1d/lJd3KZPXosVfIcH8+gUIaTuSCoQCYoCtiDHn1ywWVtxhZoxiIwdlgyw0KLQN4Idnaa8EYYG4tjsD+BmUeBr7wZKMx2pyUjKeAt3wYG9wNLi3n86L4M28V7yz7TYk1ZUnHdQjgeQjyiIRQNIRXTESJAEOeVY7VwmAGbupcFlBaBzHmgdAVYPENAAAglgaOvJh2EhWKxBssSadlSq6AUiVpLkXVPAASvwYaTO0uhBSlQVP0PyByJK19374pgZDgFzC2g+Mgl53n4CRQVEsFep1kGg6pBEHEHJbyg94UR++kDQLxRlsFKF/cAILQz7Kk868mJklPOmdIbiTkQ2gNiESiWF9J1Ts258oyvjtFIO/cVHBO0wEZtAV/zJKFF4CBBGCf5+CKUSgb60joOHuiDZej46v8FjH+9ey31E28DXvzf+Xrwgx9cwpUMEInp6O/XMRi1MLA1gQGaa1JRhMMRpiGQBkeNtvJWGTjzI+DKk8ClHwLTJ7iFtFEBqCy2UebiyJd9Ejj8csrWMFEoEoXNMycYY3EVa8f0NECg2gu0a5T1xF2mGhXuf3BwfxLpdAw4exHFSZ/qjaw/KQBA/tM2TfKEHVTAIEBCeEsMkWftA0uItV8rBQXyRIQyu5E22b2BdDXOTKVZT51aRLFEfukeY6QW7MFaIu6r0TbBdwYt0Kst0CmLoGoRaBNomQaOjKURT0Zx+YfAHW/gi2s3XrF+4G3fB5LbgStXCtAjOlK04YhFWcpl3csEcnNAeQEozgH5WSA/B8w+ChSngMuPAuWl5imaVDjq2e8AfuoD/OzlUhXlCgkie6O4XM8BBC5QVMIL0v+AHBRZcQ9e/Ys6jwYLRw6nEaHA85PjMKfznmfoBIrY0SJgY7BPCrpfdVeUhZ1UXwQA0X0phI6RvXIrUNDqfb9uTR1vOZ/rxhDp3XMuZYo4PV5ETFRcU93OKIOhPhWpXntAd9ftmF3vtmBwZUELXJ0W6ESLQCEGCiVTbQbSIZDObGQQ2LNviJWA/ue3AZNdZBFe9jfA0df5txPZPp+/G8idA87+GMieBYpLgFECakWgSuV/pNC9zaY+/nrgJR8D9AhQq1aRzVP5a655UAvMyQystc7E6kmAQOJE6lSuCmBC5co6johPxeLA4YNpaJSW+PBJIFMSj8VvwVVVJfx9AgmmpnOrAwYa+N84ZnBCDYnrRoBtWxo88pUu7oE4sdVYIrvtM2cyWMyaiBNAEM6JLtdEWZhJKI2ZAvgqpAW1upfg/aAFNmML1GepiU2gmtFQ55RroFy2UKkZuO5YCrF4DJPfAL76djI16k4rHn0NcOPbuT5gaQKYfQrIngemiQ3IrK5h08A+4LbP8/RKYsOXFok64CXqvQCB9pByTltLRrRnAYIUKLLCHqzjkC2nQJaiQNPWIQ07dlOBpjLw48eAikxPUDqP5ZGbsn8ri7pSNYOEIfQeBw4cPGhmBZHnHwYIjbDXcgCB32cIhtDfg/BCq6FeKlXx9KkcU/QSg2DbKlPWAmMPeLW1ZtqDgDlo1crB+0ELdK8FmmkRXL4IjEGwXGJF0iJsHQ1h964+5Gc1fOVNwOzj3bnWcAwIxXmRKCZS79Ir2ge85kvAzhv5ZvTKQgmVGmdC/QDC1Soy11MAQRokEXNAD4cLFHmH4fUXRP3wMq/gODYWQ386CWQWgR+fAGiBV1+uVUEuyIJnlqEFOsYGEZTkqoAAlq9iAc+9vgNg0AmAYJmyXeqCG+e0M9NZXLxc474HAiDIio1kaMJKOgtKzhH1uAucBABh4/SH4E7WXwu0464oazRwt1wCCQYLM1A4ORK2cPhQPwsnf+8PgPv/ev21gbxiCie88APAT7ydCyKXlorIFUjixjc8xIwy3wVWon6TixT9DJIkoiSRIjEHMk/W8es2UDFMXHckiXA0Bpw5C5w632KxlXyz0CwyYKCCAfm7ZBzE4n1wGDiwr0FvXOniHgCEVsPcNGp4/AQZl6hFmUIsR5mXdOZOZ2wgCb90pxgKfz4BOGjVysH7QQt0vwUaaRHsdHaTM8VyQ8g1Z1xvRv43h/bF0TeYxPxTwOdfwjMA1uPr2KuBn/kIQA6O+WwZ84s1NofRZocxCLLInKz/IEtMXwU/l6vOIPgCBJYG49RfIGTJxYnEIhjMQTEWruHIUW6QhEceAmZzPn1FXcBJU9BAmyBdL9T3JZPw3KNAn9f/YKXAwMaS67F/r+k1LywUMHm2jDhjD6iIChVn0hCOhNyDSQAEKqAaGCOt6SMKvixogbZboKEWQcz3xB7XqlRzR5jiibAyGeP19QFjVHMHwD+9GZi8q+2v7ZkDR68H3vJ/AC1O1j01TM2UYJoaKzgn2VDa+MgsBl6rwdEf8A3P2m18eg4g1BkkMQ1Cvf5gaFDHnt39PJn0e/cAVVU+qoQT1K5hMwbifdc672EUCDTEwzy8ECX/g9UCBeoFBfqDZiOXcoLHJzLI5S3EFOdEOZikMRJzORPe5twrPQgv9MyMGFxI0AJKCzT2vOGiRSoBbdTAivLZVR4pm6FigIyUjl+TRiwWxZl/A/75PwBmdf00b3IL8MpPAztvovs0cOlCATVT42wobXooxCBrySiMqKzfcDXmtZ4ACJTWSC9mwSlUrdRZWHlnQTlx9oBSXzjltHd7CENb+oBiFvjhQw3YA69bkljkba5LggKGy9wYgD461AfceC1593ahFwbhhVaNysSJp3NUFZ2nN8a4nTIPL+gsvKCKEwkocIS9tii71X0E7wctELQAbwFfsSKb8525n4nSae531WfgzPHOLTq27xpg1R2/9Fpg4dT6aFkycLuZ6j28nafxz1zOYSlPe09hES/EifWbnqtr+HZVAUIzNMltOAV7QKrWClVvpLxYclRUDJJmp4HHn/bvJWrQy2YABHvgek983Isn9mwFjh7uUhA7YA9aDe35+QLOXSizQUTpjXIwsZoLIlYnxTzuoiYO2xPoD1q1cvB+0AJr2wLNdGe8/g55AkjnXBFaFplrkQhw5FAfNCuEb74LePKOtb325XwbzU0/8WvAi/6Y70MXF/KYnjdYjQdiQzl7IKpG0qbHFii6izXxzc/ahRfY91ly+76cO1/hZxoBBAIG1FHIQVGiSLuQR9lgdpRj5K4VjwBnJ4AzisWy3zWpVsoqjFXDBgwceOokHN0P7N69wrts9PEAILRq2PFTC8gVJXtAAIHoOF7aWaY2sqpnIk7npAKt7SBqdR/B+0ELBC3gtEBLsaJqvyyyGWRxPnLWPTSWRjIVxal/BbNf7vXX9mcAr/kCEB8BioUSxs+UGQPqbHi4MJHPab1hkCTbtGcAgu2gSGEG4Z7IQwwixZGxB2ScYSJEKS9jfaxRceoUMHfF00c81spubosfKwGBtFZWizlJk6RnXwcMcFHM6r6C8EKr9qyUynj8ZJ6lNcmyzmxAUZyOVW2UA0lNBeJnXWuU3epegveDFghawN0CzcSKbHPoF2YQ6e3bt4WxY3sfSgvAp58PFBd6t3X7dgKvvB3YdgMXJZ49n0e1qrH6MTZ7IMGBYA8cgaK/OJHPcWtzzz0FEEh/wPwPpKKVAALTHnBFq0SRiaSGsf1EM5nAyZNAviAWfW+lRNGI9p+FOyIBAFmMyQseyJWRei+V2PrJZwLknLHqrwAgtGrSqQtLuDRnIh6nugshVn+BCjPVpQJJgWIgTmzVpMH7QQv0TAu0DC/LlEc293P9GQkVaQ0Ih00cPzbM7uW7vw084Vwe3gAAIABJREFU+OmeuS3XhdDS8YrPAlRKmnakZ89nkMuChRSICaVsLAqX8lRtStkW/gceN9irIU6UN9JbAEFU+VJTHJlpBrEHTKDIWYTRIR07KYOhWgZOnQTKDaSsLi6LPyT2krUW5PsMFEgFDVNKAgNJ4PpODJLsJvXprWsE93pznHR8VYZh4KlTWdSqVNY5hBihbYG4WayOSqzqvHIjCy/4lEJdK4Td8c0FHwhaIGgBW6zI92fcWt/OYCMGmTaJxB4L0yS2QRQaNNKjHT2cQCqVwOX7gS+9Bqj1oCfCM38deMH7qM6ChZmZPKZnajysoM5lSqE5afjGM7KuPnvAmIpe0SCwDiIAgmGarFa4Y5jhFGgqlwzs3RvF8FAKKBWAiVN8Qfd7eQGCPM7+uwIYJKPAYh0Adm8BdjUySFK/TC7+AQhYrXmvmK/g6fEc9FDI9j+wtQdKeMFdDjUILaxW+wfnCVpgLVqgqQeO4oPjzmYwQdbLw8M69u0ZYNUS77gNmD2xFlfc/nfseyHwqs8C4TiQzxQxeb7EKkJSWMGVuUAGSaKODDd6c5wTvX4ubMFe42WmpwCCY7FMAMHRH8gaDBxBGrjmcBzxZALIXgEunavTFroeo2QLJHWgag0YKhGUgs0giH8fOgD0DTXpEQEwaH+4dHbk7GweFy5V6tgDmSvsCHm4/iAQJ3bWvsHRQQv0Qgv4pTzyNYBM8mjDSJkM3E2XMtgIKFCIgWz2w2ELxw7382yGdwMnvtALd8SvYfgI8Pp/AFK7gEqpivFzeRhVSmkkB1jheyCZAylMJCZUMKLMLr5His1dNYDQMNVF0R+QoxbzPqCUF5HmYsDEdYfT0MMRYOEysDDXvGd4sxNsFkF8TBbkkACB3g9rwJFjQJgMkryvQD/Q7aE4fvoKckUZXlDSG+3sBUfpS+AgcE7s9hMJzh+0QHdawLsO2JV8ZZjB9kMQOjTaJJZMZqh0+GASqXQMT3wOuPO3unN9HZ9VA267HTj4UqBmGpicyKFYtoQgkdgDYYgUFlbxQmxNjomU3ihryUi2YC0rN/rda28BBNViWVRxdCo4coEKWSwfOjLMlepTZyhvpMUzlMJEcZjTI/kfZEhBZi4QUCDnxAPkf6CmIgbAoOPBsowPmLUqHnkyi7AusxdEeiMNKNIehJxUoMD7YBkNHHwkaIEeaoGW1ssi5VGmuct6PMQk79oRwdataSyeBm5/Idgu/Wq+9Cjw/PcAN72TLSy4fDmHmbmaS5AoXRNpHnNnYjnZWH7gQP5tre+v5wACUUyU5kjpjVyDIAySGHI0MDAA7N0zyBf2y+PEP7VuM3firRsY+AGGVBrYsU8EfAJg0LqBV++I+YUczp6rCu2BKO0sfMpdhUwaZC+sdYxu9e48OFPQApuvBRpnM4hqvqw2g1ICWnHTTSctjI0NwTKAz90KzD1yddvvyKuBW/8KCEXJDCmHsxer3AyJiRJ5aIFXbFR0B5I5UESJcg7rhXTtngEIfjUYXOIUYbG8a3sIo2SxTHBx+ozj3dmob3hDDI1Mk7gRA9cz9A8CoztYBcHgtXYtQGrm8fFF5ApkjkTpjaI4ExkkCWtlVrkxRFmoRMdxSi6wVl67ZxR8U9ACq9kCvqZJMt1d+OFQOEEK1isVp8KjaRm4/pp+6KEwHv1b4K7/Vu91t5rX2uxcqW3AG/8VGNgPFIsVnBrPs/mpTpQowYFOTKjIwvIYvXG2oDfcYHsMIHBPbsPgNpu2BkGaJFVMHNwTQd9gCqgUgYUmDop+zogucKB4ItjCRQEShrYA/aNr1beC7xEtUKnW8ORTWTY4yFqZVW8U7AEzSJJqX1nhTMTsegFpBw8xaIGgBZbXAk2zGUSIgVIemRaNGAShR6OQ84H9EQwNppG7AHz6p4FqfnnXsJJPJQaB1/0TsOU47TFNjI9nUChCpDNqTJxIc5ezyeHurywLS4IDnyq0VyusoLbFVQUI0uWZCjNZ4KEFWdFLlvzkZZ55DizVYDh0IIlkMgYUM0Bmvr3nqsJU1U5ZDS/YzooWMLIDSHhLPLf3VcFRy2+BbKaE8ckCj9lJ/wPyKpfCHpd7YsAeLL+lg08GLdA7LeAHEGht4OFmXuGROSuybAbOILCMtpKJ/rSJg2PDMCrAF18BTD28tvfFijD9MXDjr3E/h/MXM1iYN7mxmywsJys1ymqNlM7oaxHPr72XNjxXBSC0ctFyKCV3kSaYNRw61I9oLAzkrwD5bJPe4PVG8Pxb9UJQbZcJQIzsAqKJte1pwbdhZjqHS1NVBg7iNMCkoYgozqQaicic4V4bUMFjDFogaIHOW8Avm4E2i3WmeYJBYCxCyYClWbj2WB9Cehh3vQd47LOdf/dKPnH0F4CXfggIJ4G5+QIuXCwzjQFpDmRao9QcsFoLdiEmx+/AGyaV19MLeqqeAgh2kSbmoOXUYODKVQO6buHQWB/z50d2HigXWzxbb00GNaPBW7pReW90NxCKrKTfBJ9dRguMn1lCNmM59sqiFCrzP1CyFyitUdZIDwDCMho6+EjQAj3WAo3CDNJ2nxgEQ7gqqq66NWKVD6WQTsXwyP8EvvW+tdMh7Hgm8Kav84aslst48mQemqjQ6Ko8K2yUZWl6e/7qEbfEZl2hRwCCxcwQZZEmqgXuiFKcIk3RqIWxg4QWdSA3D9Qqje+tTpyoHurVHyj/pnMTg+BKceyx0bQBL8cyDTzx5BIsK4QYq7+gOo6JlKCwU7nRsVcOKjduwO4Q3NIma4E6VlmsB7z8MxkncU0aWS/zsDM3TaKN455dUYyOpnDxXm67bLaR2LbS5k2Ocr+D7c8GKuUqTk3mUKsSa0DCRJ6aLTMWqPossZ+M9fT4HXgzFviGZ6VXt3qfv+oAgScPeAACIUXGIFisA7AaDBUDyZiGgwf7eAPmFtpPfHVpEGTNBdGI3vACGTANbl+9Fg7O1FYLlPIFnDhVZmEFEiiy8IJkEJQBRhSdLO8csAdtNW1wUNACPd8Cfq6KtvW+zGYQ64IECKRFKJVNVptn955+lBaBTz0bKGe6fLsa8PK/BSitkdausxdyWLzC6yxQWMFJaeS+LSRQlMBAhkZJnMgS6FkWlhsRBABBMv9KkQ61iiOJUYhBcDoCt9fsHwhh3+40r+JIGgRSsPi91OqNde+rYQf7QpyjYkkg1cxiucudb5Oe/vLlJUxNU/VGXrmRGARuKsIHmDe9MXBP3KQdZQPcNqV0L+ULWMjlkCuVUapwhx/q4/FIBOlEHMPpFPoSm0cH1SjdkaZ4W4dAYkXprsvCztwbJxo1cezoMEtR//LrgbPf614n0cLAs6kI0+/Rd1iYnckz3RTNUVxzIDOvRFhUbG7kxkY6Jfay7kBtvZ5gEFz2miy8IBgE2QlEmuP2ER3bdvZzDim/BFFIob43uPSIHidFdrQPMGBOihaQGgCiqe71sODMPs/LwonTi6gWyf9ApDcKc5FwJASSnFApVD7IHP1BL6l9N8JjPT83j6/ce/+ybmUkncaeLSO4bu8etrit5ot2aXRdF+YXOjptLBzBcF8KY9u34bq9uxENhzv6/Gof/P0nT+Kf7n0Ad594CnOZDKPOWSVDO7NKWO2SfbimY7S/Dz917Ah+7sYb8MJrjyFBDq8b+FUnVJR+CIr9PrHKjqsiZxBqpokbjqUQikTx+O3AN9/TPR3CtmcAr70DiA8C2aUCTk2WXF4H9qYmRCEGCivQvAUeXmC28E72FT3KXvE7aNStegYgqIpVijNJBoFQYoWZJBnYsyOMEWaSVAOKBBAavRSE0BAseJgE+icxPcQe+NZg2MAj8yrfWq1SxWNPZhkdJ8MLBBQodhf2VG9UB1gAEFb3wd39xFN4/Yc+tqKT6rqOfVtG8dzDB/Gi647jBdccxdaBlaUMU3XX13/o4/jBkyeXfW3Ub47s3IHnHDqInz5+DM8/dhhb+ld2Xa0uJlMo4t5Tp/GNhx7D1x96BDNLy+e+B1NJdt2/dPPzccv117b66nX5vl92Gw8zOOWfbW2axw9hbH8EA4NpLJ0FPvMCwOhC+efBMeBVtwMjh4FqpYrxyTwqFXLmV8KhIqWRNAdcWO2YIUlreA4Meh8csOu8GuWeG6W02GWeyRDDDjHwGgzkvb1/LI7BdAIs6bXcwhHDqztwMQdi/KipjpJY6BsGtNC6HGDr9aJzuRKePl1gFF2M/pM5xIH/wZo+0tUACOoF046dwMH7f+HVeO3zblr2vawGQPBe10hfGr/1qp/HL978U4jQLL7Kr/tPT+D//fwX8dTFS3YIYTW+4rbnPAv/f3vXAR5F1XYP6R0IvTcFAVEsIBas+NlRFLEg9vLrp4AogohiQ6WIUhTFXlBUUBG7AvYuKkUE6TWEkELabrLl/9535u7OtuxOdpdssu/18QmQO7Mz587snHnLOc/dcn0kdhVz+whch6C5O7oE9Ix6CLq7Y7McBzp2acbB4eePBkq3R/b00rKBc18EOpykiyFtLkF5me7QyIWJKh3q9ljgwkQvvYNYsHA2g0xMEASXzbPDwcEBjiDoLo6qUpVEMXp2122emSAEM2lST3wvOHyIg6GDgSge1x/EUBmpmdWsp3P3FVRg2w6rp/6BXoOg/Bf4RtNvOFod+rsasVTUU0+XgA870gRBYZGUmIirTz0Rt593FlrkZJuGKNIEQR0AdUMN7nckxl80GF1atjB9XP422FlYhDkff44Xl37N6YNIDzre5/97Q6R3GzP7C/zySCRBfz4oRUVl/2yxIyHZiUN7NEajhAQsvgzYtDRyp0SPhf4jgQHjqLnNiby8MuTtUUWJKnqgdy24Who1d0ZVUG2Uhacjqy/RzzolCBQ6ouH2ANfaWXw0EKxaFKFPz3QkpaYBNqv2f00j0M1Zk6oiXQkZTSJ3ZcmeQkJg1479yN9n1+sPDB0MLntncPrBX/2BdrOF9DEyKQgC0SII6mOHHHM05tx4tek39mgRBHVcfTp14IduuCThp/UbMPqF17Alfy+oELGmQSmDg9q0RtvcpmiSkcF1CGWVFuQVl2Bj3h7sLdlv1Hx17SreCALBqIoUudVRr1EzFrDTs4FUdg/rmYWk1BQsmwj8NS9yt3vPocDpM4DENGD//kps2Wrh2gJ/YkhGl0Z6nBBJoPdN77ZsdXSx/t11wAmC8b7h4kQqNdTzTKSDQBcAFaGoalVafKo/sMOBPt2zkEBtiDYLYAvF29PPTRqw5dFJlXBAqvk3nMhdivG5p02bS1Ba5tQNmjwJAhUnki2qYuLuGgSJIET6avFHENo3y8X4CwcH/Ch6EJZWVmJz/l78s2MXtu7di12FxaCHur9x90WDMeqcM0C1CqGOQATh+kGnoG+XTn53U223obC0HFsLCvDvrjzs3FeIXUXFsFGs2s84oVcPvHzbTcipRecARQqWrlqD2198HXuK/ddGNcnMRK8ObXFan94YdHgfdG/bWtNz8TPoW2t3YTF+XL8eS1euwcot27FtbwEs1dUc8YinCIIiCO5OBs3dUaWguZPBSo6/dnTvnomsjFQmB8vvA6jZLdzRojdwwRtAVhvAQiZMG8rgbORWeaX6A9I7UFoHrPZqfJmpB2JINWFUZwSBq3f1xgFjIYpRc5uIAukfUHohIcmOngdTCCkRqLZohYr+Xh9rZO41yC/TdglEECJbgR3uBRoP2/+zdh+qbIlai6Ne8KPl9LSbTbvpyNjEl4nHOgOvT+vnjyD06dgBSx+cENJpWG02fhB//ucqTHl3CcqtvlE+qkt4Z+xIHNvj4JD2SZMCEYQXb70R5x59RND90IM1r6gYP/+7EVPfXYLtAbohrjplIKZceRm/7YU66Bvl7e9/wr1vvIPicv9pz2HHD8B1g05G9zatkZmWGuqueR4RsPySEqzcsg3zPl8OijzEA0Ggczfq4xAOFEEg0yZ+iaTidb1QUdWodemQiibNMrDhI+Djm7RStXAG2TZf+BbQ/jiAFBs3bSlFpYXqDjQxJPp+clk4c2pBF0RSqQWKHOip0PpSlOiNV2wRBEMEgdpZlMQy9bpmJNnQ7ZBmWn1AdaU5emjURfDuanAhQhGEFCA5LZxrSrY1iYDjfxXqq/8uRkIj1d6oqZCRYZMmsazVHrC9swrZ1aMcnkk46nR6uATBePBrtu3ANXPmcbjde1xywgA8cc0VoNqEUEa4BMH4GZXWKtw87yV89sdKnygHFS4uuOM2HN65YyiHxXN+XLcB1z01DwX7PX1hiGJ0bNEcDw+/GGf0PSzk/QWbSK2eFNVpqMOvHgJHmLUiRQoAubvcKHKgKypa7WjdJgWtW2Yi/3fg7YuA6lDK1AIAmZQGnPoo0Hu4RlR25ZVh716bb0sjk4IEFznw14od62JINV1LB5QgBBTD8DLl0Fy73P+zSFKGA5276jcGEQS/GTo/p1pTRMFo80ybUvoiyRzDb6g36oE6r+rKCqxeT73ERBA8FRRVgaJ3NTAdW30p8jlQOEbicyJJEDjsvnINhj/5tE+xXtdWLfHxvWORm5UV0mFHkiDQB+4rLcMNTz+H79au9/h8uqbGDTkXYwafHdJxbSvYh2HTZmHTnnyf+Ucf1AVPXDMCPdq1CWlfMklDoEaCoCSXuYhds39Wzwl6RjRrnID2HXOwfycw/zTAYk42w2MJDh2uEQSqOygoKMeOXVWcRkh2KSVqFs7Uysg29PS/HjnwFkMyfl9pf64/q10nBEFV93J+iWSWiSAoOU29BkGJYajwUbMWjdCudWMNWUoxhEoQPNbCn0CSYQJFEMSk6YBevaUlpfh3k43TC9zeqDs4cuhOpRgockApBhYa0Q5PCELklymSBEEdHb2tL/rhF58H8VcPTUTP9m1DOolIEwT60B0FhTjhngdQYfWMQ1NNw+eTxgc9LtruyllzufPDOOi6HND9ICy6a1TIEZKgHxZnE/wJJnk+I9w6OZyGZil+BzIygW6dG8NRAbxyElC8tXbA5XQELvsUIL+FivIqbNhUhkaq7kCvOaAUKJECinBqaVC3GFJ91DsIhFSdEgRadM4zsRCGFkLy9P12GzW1bZOAFi1yNIoZrIPB79kGqio2CCaRQBLVIcg4YAjszCtGfp4TqYog6EYnrEimh++o7IRTDEIQorou0SAIa3fsxGn3PcJqd8Yx87orcdnAY0M6n2gQBPrgO1+ej1e/+s7jGEgTYfWsKWiaWXMt0sIff8GYl1730Tjo2rol5t/+X3Rr1TKkc5NJvgjUpKjIhewGt1+NINiZIKQk2HFwj1x+Q3/7fGDnj+bRzekADHkDyO1BZW42bNxcBovFqXksqIJEXQyJIwc6OdBSoKSWSK2Q/n0W6lPkQCF3QAiCb+OAKlB0mzTR94eN+1x1KU2uQXCLJHVtm4gcJgg0MZQOhkAXBxGCAGSBIgj0NJJxwBDY+E8+9luTke4qUHQ7oXGRYkICL4kQhOgvSTQIwv7KSpw08WEuXjQOCuOPv/C8kE4qWgThsz9X4upZz/rUIlAdwql9egU8Njqe4+5+AJu9Ugvko/DF/XdLWiGkVQ08qUZFRT3SrFrhXZHmKgcaOW3o0aMxEhISsXwC8Ofz5g6EHuCnTwd6j6DHjAObt+7H/lKdHOgFiRQ5oK4FVkpkKWVDasGjiFr77Poe6YwqQfCX/vdOLyiTJpVioIU31iCoNpbunZKR2STLkyD4y+WY0ibxmkw1CKKiaO6uCmM2WTyvXFcCZzVJLCdwDQKbnVCRIrU3CkEIA13zm0aDIJRbrDh38nSs2b7D44BuOuM0PHTZ0JAOMloEYcWmLbj08dk+3QePXXEJrh10csBje/qTL3H/W4s8fk9EduwF54RcvxDSicfpJH8EgZ4bmu2zIdLMYnruYnaKUvXqlo7ElFSsfhn44q7QASRycOT1wHH3aWVoBXvLsTOvismAUklUXQtuGWV310JDqjswohYVghBYo0h7ILvaG3UzDrfWtsPQwqIvPPW42hzo0TUVGVkZGkFw1DKC4CpKDHDhMEEIvT879MtPZvpDwPG/vu4Vq0r5JlQEQbN49iIINdQgaCxd8I0EAlEhCFYrzps8Hau3eRKE0eediQkXnR/SYUeLIKzftRsXT5uF3UXFHscxdsi5GHv+OX6Prbi8HIMmPQoqUDQO6ixYPOEOdGjAHQYhLVYEJgWTXKbOJxVB8HB3tNrRo3MyUrIysXU58N6lnkWPNR1ah5OBixZoX/9VVivW/luBRL3uQDNg0lsafZQSdfO4eq53EAibiBKEGhsG9F8qcqB0EAKpKFKeiSpTq0gly+HAIQelIz09LTyCYETBGDxQfxaCEIHbO/RdVFus+GN1mct/QXUxuAiC0Q3NUCFcX3uKQ0embmZGgyBQiuHkiQ/7ODE+ee0IXH7icSGdaLQIwoa8PRg6dSZ2FRaFTBCWrVqDa2bPQyW59BjGyHPOYM8JGeEjELDbzcP6WRfU8+p469AuETmNs1C+C3ihf2haCJmtgQteB1oeBlit1di0sQw2p9tfgdMKyjTOVZioOzOquoNGbpfGWHdoNLNCESMIwaIGxsiBIgcskKRLaWoqilqRorL0VB0MDqcdh3TPRlpaCskuknRKCOdodHQMMe9ANQjiwxACtpGZUlZhxZo1ZZxa8EgxUBGQXqRozPFRB4PSNNciBw1HTZGu0J/Xb8CXf63Gn1u2gqyXSyoqWZaYDI/Irvi0ww7FoMN6IyM1Oq240SAI1C3Q7657PfL8tG5fPzwRh7Sruy4Gun7W7tiFYdNn+agfPnT5UNz0n9P8XuSTFy7GzA8/9fgdrdGaWVNAaokyIoOAd6Ei/Z2EkjydHd2RBNXumJsLtGqZA2cVMLcXYA1ioEk16cPeBdoco331b9tagpJSJ6c6PSIHekGi1rXga8KkvbR4fidp31GRwaOu9hIRglBTrYE6Me/IAcssK51tg983hYxICMPdvmJHI4cdPXs2RkpqMuC0mxNJ8kDWy+LZG3UhCAf0OiwurMC6jZW6B0MCUo22qVSDYCwCYj91N0FoCDdjtd2OPzdvxZJfV2DxL7/7hLr9LUbz7GwM7n8UdwAc1qkDk6Tnv/wKE15/y2N6rw7tuGDOjFNhNAjC/QsW4elPv/Q4trrWQVAH88u/G3HZjKdYKto4Xht9c0Bxo7MemorfN272mH/2kX3x8sibDui909A/zB9B8LZ+VvVq9KxQwno5aTa06UiGe8ALRwH7a3B1JHJwzBhgwJ1a3pv0Dnbn27h10U0QtO8htm7WlRKNYkhGn4WG9tLC5xOu3bO/DgUjKXBFDsiORG8gMJID16LbSc5Sr0EwCGCQ1HKi045evXNZpCI8ghDgtlIHlhidN7OGfjPX9vwK8sqwYZuV9Q/SvESSNAlT6l7w7mJwh/K8b8j6xNjpVrjn9bfwzg+/oKTCvOQbqf5NHHoBhp90fMwShE15+Tj53ofZQ8A4Lj1hAGbUkZKi8Tje+eFn3PrcKx5CTkS41sycguZ+XCcrq6px8C1jUGXTZd71nT1x7RUYfuLxtb0NZDs/CPgQBB/PHt3+uVoratdIggPpCTa07dyEifOCc4DdvwaGl+oOzn8OSG4M7C+1YOs2CxMBFTlweSxw1wL4dx72zQ207sCIWNQIgnuBqakwMDkg/QOXWxcttFebI9UgJCU60Lt3U5bfjQpBUIgkJMvNegAR2Lm7FNuYIGgqiu4Iglak6GLsLqll3yhCfSQJ5NY36oXXQG+w/gYZGVEffk5GGovtkA58cUUFisrKfabfO2wIkhISMWnBQo/f1XUEgXwYRj3/Kj74dYXHcdGX7DtjR+H4Q7qHfKVFqwZhxMy5LLlsHIe0b4tvHr7X77F9tWYtKycaB3krvHXHbeh/cLeQz0cmBkfA+OKpTP2cuuQyFSlSN4N6odS63jSi0CjRic4dMtCoUSI+GgGs/8z/Z7XoCQx5G8hsBVRX27B1azmqbSSmS/orGkmgSIJLJdHQzqgM4+q7z0LwVQgzguBdTKI+UP07W57qhkyuugM9raAtthJI0o04jCqKriiCHSkpQJ/eTZGURASBahDCtOkKVDAhBCGUayZCc5zYsm0/du6s9lBRJJLAzF0XI1FGTZoOglIr8+0vri/1CNT2d9HUJ0Etdt4jLSUZ5/U7EkMH9Ef75rlIT0nhCAo9IGm7zfn5bNjz3dp1rk2z09PQ/6Bu7CZoHHVJECqqqliEiNImZMNrHLed8x/uXgjkZOjv4ooGQfj+n/W4ZPpsn2jA6HPPxISh/rsrZnzwCR579wOPQ2yX25TNp8i6WUZkEfARTNLT0mza5JJd1oiBSk3TM6dzhzQkJCbh85HAmgW+x5TaGDhnHtDpFHrftGPr9jJYrEQG9HSC+ukyYEpAIkULqCBRT3XGAzkg5GodQQiUWghEDtyqiUpe2QkH9bQa6w9ooW2axrYSwKDik7Q04LBDc3kBI0IQvJkMI0EJblFRjOwtXsPenE5s3FCM3XttrugBpRo0HQSNJKjcnxJK0m5OTW5ZFSuqIiAjQVDLecDOJcQPKqu04OrZz+Kbvz3leSlK0K9bF9x/2VC2L66prom+AD/8dQUmL1qMLXv2BhQcP9AEgV4ACsvKsXr7Djy6cLFfAjTo8EPZUpkcHc2MSBMEEm269PE5WLdrt8dh5GSkY/7oW3BM94P8Ht5Nc1/Aez//5vG77m3bsKxyqya6DLyZE5O5NSLgW4egy/Lzi6WXu2O1JrJHhe6d2qciISkZyycCf87z/AhS0j92DNBvjBbZLiiowL4iu8tTgb9zjDUHCZ5FiZ6Ostq+67sYUk2LEFGC4E0OqEOBCg+Mksqsqa0vMIsj6eIXzAJ1kSRXFwMpKVY5kJmVgL59cnkROcUQ1gjU0UAEQVQUw4LWxMb0QFn3TyHy99ldRYpKzjTFJWWqG6G4wns6i9edHUnQVFUPG29UdRixVEFMD/Y5H3+Oh9953wclKjh84NIRNBYBAAAgAElEQVShbOUb6iAJY3JLpDy/vxEpgtChWTPcPXRwwMOih/fekv34Z8curN25C5Q+8fY3oI0H9uyBWTdcBXrjNjsiSRAKy8rwf8+8yB4KHOE0jLOOPBzzbr4Oqcn+U43+ChTJ+XHRuNHISU83e1oyPwgCfgsVdWl+o7ujUaKfniEd2qQgITkZPzwJ/PyoWziXvg/6Xgmc8LAmhlRebsHuPdX0LaIrI+p1T2TApFxk9Y4FevRoUu+Bv3Ni6fsmUhdXRAiCUR1R61YwSCkTIdAX1UM10WDf6VpganPUXbq0qlTNzjO7cQKOOKxZhAiCETrjF4QQhEhdVKHsh66RVav3obDIwUWKqaR1TmZNrvYi3YtBLxDiVIPyWaeb1av/ONYJAtkBn/vIdJ8Her+Du2LR2NGg9ILZQf37Zzw4xadNj/YTKYJg9pi859Nb+SXHD8DDw4fVuoE4XIJA1xq1jFLNx50vv4G8Yk9hJDrm1k0as0lT66ZNAp5y/7vu87GvPrpbF7w7/naQzLKMyCLgLZjk8aJJqWqDwR+nHfQIQtsWSUhIScGqucDSB9xNb637Aue8COS0B6qrqrFjF5n+aQWImqeCRhSMaU2jzLsxeuD9fdMQyQGfY226GPylF4yLSZEDVVCimTH5ixp4yWa6NBC0lhUtxaBFEJo2TcRRfZvzImophtqMELQQJIJQG2BrtQ2RxhUrC1BS5ECaTg6o/iDZ6ObI4T6NzWs3LUUQqJJYVy/zanuM5Zv2mc+WYtKCRR4V8+2a5eK9caPRuWWLWmFIG7287BvcM/9tUMukcdQ1QaAH5vn9j+IuiyO7djadVjCei1mCQNdWmcWCvKJirN+dh5/Xb8TvGzZx+sNS5avCSpGb2ddfhTOOOKzGdeg9chz27vdsrD/m4G5MEMy0k9Z6seNsQ2+CoF4+1fNEK27X0tRKR4f+3jw3EckpyVj7JvAZpRLsQFoT4Pz5QNt+9CxyID+/Ehar5hJLLx6sbUBFiSpyYHgZcUcNfN1kte+chrswYROEQNEDJYLERIElld3pBAeZMrHFs5ZWIPZnczFAvejErhEF+l3jnAQc2juXHw61JwjGRfRHFtiGq+GudIydGV0fq1YXoLwCLt8FLXpAHQyJ7MOg3BwVo+caBI4cKBUzuLQR1I0ai8WK1TYb+tx+NwpLyzxW4fpBp+Dh4Rfz+dR2UBSBQt/ecsF1RRCy0tJw7WkngbwWWvhpFazNeQYiCLXZl/c2VAhKnSDX1+C9oLbpNfIuUCTIOPod3I1Jntm6ikgce0Pfhz9FRb8kwVDHRs+LJk2TkJqchHXvAp/eClD3+pkzgYM4U+ZESYmFTZjUiwZ9p7gilF7pTE4rJJKGkn+lRCEIfq5Cf90LroUzRA+o24CKzujFn4fHc5lKRLyG1+/Vb7kgLVEVNultERG9O5w6Oaj9F3VEDydOduYgV05acw/Y9b8QX3PhoP2F3hyoDZYiVMrdUZmkxDJB+Pbvddy54D2ouG1gr0PCWm0i6MOffJoVGI2jrggC5e/JCZG6AY7o2jmsc1MbR4sgdGrRHPdfehHOOapvSMd51J0TWeHSOOgc3x03GplRUrcM6cAa6CR/BIFO1VdHR48i6BGFnGwqdE7Cvx8Cn9wE9BkBnDAJSE4HKiuqUFRi4we+qyuBowXad4qHzkEIBdFhcPt6sWoRiyBodu+eBYmkjOx+sEcLjwgRBl5pIQjRWqVI7ZdsWCstDteNrBQV/RUrxsrNO+39DzHt/Y88IEhJSsSmZ56MyJvn9MUfYep7H0aFIFB1/nWn+TobklkRtVtSBIMiJN5kn9ovqWMhXAJEJxVpgkDpgIG9euCpG69Gs+zskC/N0x94DH9t3uqD86K7RoOEq2REHoGAaQb9RZR+zxLMhlR2ZnoCUlKTsPET4KeZwKWLgMRMwG6zo6i4CnaHu9iQXzR0cqAVIar0peqWarjy7qGsVkQIghY90AgCpQ4onUB/TkujroAD8dCNAEmQ9EIo18sBn0NvyN4tjFZLNRzQVc1qqEOIBYJAD7ebn30J73u1x51++KGYf/t/I4Lnc18uxz2vvx0VgtCnYwcsfXCC3+OktSE9h1eXf4t3fvwFNq86CKqxeOG/N3ANQjgjUgShW+uWTFhIGvn4nt1N1w1cN2celvz2h8epUP3IwrEj0fF/0QgZkUcgaBRBL4inGgQtlQ2kp1EtUyIK/wWorbFxZ3omOVBaVg0qQeGoo26uxPUFroJnT3LQ0GWUQ1mt6BEEpxNp6QeKIIRyqjKnYSDghLWyGs5GiXxjG292b02EWCAIpCh45cxn8K2X9sHdFw3G7eedFZElqWsvBvpifmX5t5jop1iSJIuXPXgPdwnUdtSGIJChVasmOejRtg36d++GM/sejk4tmyMpIcGHcIZ6XI+9uwQzPvjYY3puVhbevvM2HNa5Y6i7kXkmEfAfRXB3yymlRSIJNJdMedNSjVobTlRUVIMNOIkYKNkbIgqutkW9AJGiCHowWdUGxbN7bEQJAncs6KEfqixNSaLFSqz1DWnyOpLpcYCArZo6W5xcVFQfCEJxeQUumzHHx+Dn2Zuvw5Bjjo7IitU1QaCTsFZXY/rij32cDin6c92gk/HI8GG1PlezXQy1/qAgG365cg0unzHHYxYpQlKU5OwQ6xiidWwNeb811byp6LVRjpmwoK5T7noDoH1nGMqdPKKOGmHwFl8zih/FYuHzgVrviBIEY4qBW08cVPjhQHp6EhpJCP9ArWmD/Bwin1WWalTZtS4GRRC8HR7p5GNJ2aygtBQXT52FNdt3eKwL+RGc1Du8AkW1w1ggCHQs1Gp5w9PP4+Pf//Q4V6oo//S+cejdoX2trs1YIQgkANXt5ts9rKvphKgD4pErLqnVuclGwREI1Fav0tqKJHhq8NB+tcoY1/bGwmcVKaDvC1ckkr896o34WnDkwp8REYJAh2EsUlQOjax2xfrZDqSTCE4KhYWllTD8ZYufPRAxqK6ywWJ1wOEgYmBwd/QSS4rFFAO1xQ2dNhN/b9/psWhk8HNKn14RWchYIQh0Mpv25OPiabN8qv0pV//xxLF+XRKDgRArBIGOk4Sp/vDy0WjTtAl+mvIAe2fIiDwCNcn6+yUJbACkHYd38ayqiDN+V7gLnIUceK9exAiCsT+VvtRVBIErTPU+1QQ4kJ2dxCIWMgSBYAg47Hbs31+Fahv1IhuUzpRximL+nDTU7TQMhQexUINA0r7Dps/Gyi3bPE537k3X4KJj+weDIKTfP/3pl7h/wSKPuZFqc6ypSNHfwVE9wuyPP8dkL0lpWqHxFw3m9kfvotNgJxlLBOGRRYvx5JJPfQ5ZLJ+DrWJ4v6+JJDAR0Ivk3fUKvuSAvyPUYejRBO07QiMG6jtE++lZXB8L3yXhIVi7rSNMELTCEapD4KpSg6kGRxNs9BboQFZGAtIzk5FI0ngyBAEvBOgaoULEkjI7nE5l2mQwTWExE6WNHtttSKWVlRj+xNP4af0Gj7O89ez/4L5hQyKy9hPmv43nv1geEwSBDoJC8Wc/PNUnatK+WS6W3HOnaT+GWCIIy1f/jWtmP+vjN0GE7L1xt6NpVmZE1lR24otAMJKgEQWvtEIAIAMRAyEHnoDViiC4GZvvggQSsWCtbFJMtJGXtxMJjZxo3DgJmZkUljsQrZByy9UHBKqqq7FvrxU27lV2mzUpuWW35Wr96FOustlw/dPP49MVf3nA37tjeyx/8J6wl4Te2M9+aKqPe2JdRRDUCf26YRMumT4LZaRnaxgnH9oTb465tc7tnmsLfHFFBc58YAqnUowjOSkJ0666DJcPPK62u5btQkAgEEkwPpPUbrznag9/rweg4e/+IlvxGjlQKIVNEBRrC+TFoNILLK3sUNLKyrnRCdIXadIkDcnJ5ixgQ7iWZEo9QoCujf37LdhXaGdiQJLLTAoMXgwefuzUxcDVx/7TC/6+DOoKDvJgmPu/NID3+HXaQyA1v3DGlvwCnDt5GvJLPD0C6pogUFfDqBdew7s//epzek/deA2GHtsv5FRDLEUQ6GSopfOuV9/08NWgf2+b2xQf3nMnKFIiI3oI+Hvwq8iBP6Lg70h8iYLvS2q8kwP+Dq2NWZN/tqYcHPm3LsEkD6MmSjmw4xb9dPBPiiiQ1nV2diKaNUmTIsbo3Vcxu+fSUgv2FdlQXeXgtBP5sbMPA/3PJk2a45rLh4E8GeqRUdPnf67CFU8+7YM/yfzefOagsOJnb3zzA+585Q0fkaK6Jgh0slSYefr9j/oYSZFF8sK7RqFxRmj21rFGEKzVNgyZ8gR+27DJZ01JepkUJKlwUUb0EPBHEtTLaqifGqgWRoiBG8GIEgRFHJTdM9cicLsjuW25HR3J3tluA2wGB0ciC1kZQKtWGUgW7YRQr/F6Pc9ms2Pf3nIU7HciqVEj9u0gcuAROSC7Z0NRoupXVj+NkYJY7VeurKrGEWPuRmFZucd69enUAQvHjqp13rrcYsW5k6f7tFDSh8QCQaDjmPnhp3h00Qescmcc4y88j4WiQilYjDWCQOexfNXfuPapeaA18B5DBhyNaVddjpz09Hp9f8b6wQciCTURhWDXm5ADz1WvNUHwjiJ4F4cYRZM8ixaVj7eKILhrE8jZEQlO5DZJQovc1APg4xDrt0DDPD6SPS0ptaBgXzWsVrClM0UMmBxw1EDrWGDrVd1pTZkyadKonu5qGkkwWDvFYEnLi8u+xt2vLvBouyI9h0tOGIDpV10OymGbGaWVFox+8TUs+XWF381ihSDQcQ6d+iT+8PIwoJbAt+68DQO6HxT0tGORIFiqq3HfGwvx8vJvfI6fLj+Scp48/BL0bN826PmZmUBts6ROKcONgN7AEBYkQgz8wxcWQQhGErwlMFU0QfPvJpMNjSRoxYu6zTP/JCtOBzp3zkAGOz7F4Dd+WJdj/G5Mxj47d5ajZL9Ds3VmUqAiBwhcc+ChmV7/+pX3V1Ti/MdmYM02T8EkuhIozXD3hYORFmL7b2VVFR58+z28uPRrzoNTzQbVcBhHrBAEOqY3v/0Ro1541eeiP6VPT7x0600gWeSaRiwSBDpem8OBCx6dASrINObA1bm0yMlhQ6hjuncLSyOBBKjyiorxxJJPQV0xz91yffx+gQQ4c1d8ysciuGao5NESBJ/a1iCo3QZrPfFPErSCRSpc5HSDHa7uBo0oOFFtc6BRIyeaNk5Ci5Zppt+w5A6KLQRovYuKKpFfUA1yeeaoQbK7CJEjB8qXXY8caNarul66wVCF7b9dfcv1o1+ZHiAf/LoCN819wSfcnpKUhP/07YP/O+M0HNWtS8AKfwrTf/HnKsz7Yjm+X7uO95OblYkB3Q/Gxys81QtjiSBUWK24dMYc/LTOs9WTCNHMa0dgyIB+9ZIg0EFTkehNz7zgI56kToiuzoG9D8Hgfkfi1D69QQZWobzu0PVC1tLf/bMe36z5h50zqRCV9vP8f2+IrZtbjqbBIhB2BCFYFIF+70ES6O/svOWrlaC1QLrJQjWRhWoqYnSiU/tUZOeEVtTUYFernp6YxWrFlq0VsFiApEQiBob2Rb0QkQgDe7KrtIJBBMnotuYtoxzrqQXvJXv286WY9OYiH5JA8yjl0O+gbrj8xOM49N62WVNQ2+fmPQX4as3feHnZN9ixr9C1Szr3uy88D5lpabhn/oF3czRzOe4rLcPRYyf65OwpT//b9IfRJDPwvR2rEQR1/kVl5TjroanYvCffR7nPiBH5NhzZrTPOPOJwHN2tC7q2aqkVajYCKBVDUYJ1u3bj9w2bsGz139i8Z68PxEIQzFx1MjdcBCJCEEImCezKbDR00qyhKeWgdBK89RJURIHmNG2cgBYt0pCeLpKm4S78gdieHm5FRVXIL6iC06GnEqi2wJBW0EiB1qVAX6AqYqCiBxQq0DoWfD0W6hs50MiyA09/uhRT3lvCBke1HSTIM/KcM3Dj6afila++xYTX3/LYVSxFELTvByenRUj10TscP/zE4/HYiEtBng3+RqwTBDrmvOISPPzOe3jn+59rJAm1XW+1nRCEcBGU7c0gEDGCEIgkGP/dTQ50osA+DZpfA7dDUrohQNqBUg5EFohQtGmbhJbNM8UAysxKH+C5ZWWV2LTVwrUmXGPAxECvNdA7E7iNkVIHrIyouTP6KCT6KUikU6mP5EAtAaUG1m7fiREzn8GOfftMr0x2ejpeHX0zjut+EOMQS14MNZ0MhcwH3vMQKOVgHNnpadzNQS2C9ZUg0HFTTQIZVd3x0nyUVFSYXtdQNhCCEApKMidSCESUIHiTBPXmoP7dqJdNKQZiB0ongb40PVsh3VEFTTfBXcRIbxTZ2QlonpuK7OzUkFqlIgWY7KdmBCorq7Cv0Ip9hTZeF3cBoh45YLMljQgo4yXuVOCUglJH1GoMNF+v+leQGOo1snd/Kd754WdumVu9bQf2lZb63ZRwaZGTzW6Ipx3Wm1MQWWlprrlPffIFHnjrXY9t+3bphM8mjQ8p3602pFw3GUsZh1kvhmDn/trX3+GuV970cUQ8rsfBePOOW/0W89WHCILxvDfm5eO1r7/FF3+uxr+784JBEvT3FFnr26UjTjvsUFx6wrEixBQUMZkQKQQiThCCkQQXWQBFAzSTDSIH/JNrE9y6CfTFQDUJ3O1gM3Q70N+rtbnNmyWgXZtsEViK1BVR2/04nSgsLMP2PBucdk3oiMgBRQm06IHevkhFhyx+pLcwGmsNmBRoLiqUj48XAxXyLii3WLBlbwFWb92BXUVFnH5IT01B+9ym6N2xAzo0b4astFSkpaT4PPTvW7AIz3gpNZ7etw/mj77F1GoeCIJA9/TlM54CeRoYB5GgcUPOxZjBZ/scc30jCOrFiGSZyfnxpaXfYOmqNT5iVsEWh9b8gv5HYdgJA9C2aVNe/2B9/MH2Kb8XBMwgEBWCUBNJcBEEduTU1ReZKOgkQQkrkSOkElfSWyGN9Qlcm6AThfQMoHWrdORkpQhRMLP6EZhL62axVGPP3koUFzl0QqBSCW5NA00RUYscGFMKzAd8bJvjhxxEYAkwbPosfLV6rceuqCPiwcuGRmL3so8IIFButWL11u1YvysPOwoLUVhaBvo3KuCmwl2KCDXJzESrJo1ZfvuQdm1YulmGIFCXCESNIPgjCYpZqxPWLKLd5MBHXClAbYLR9Ik6Hdgl0ulERkYCOnXIQEqI/eR1CXxD+Gxar915ZdhbQMV2RAqo1kCvOXDJJHtKJWu1BlSQ6E4pqEJEFTkgbAK1MRp/1xAwDPccSF/h1EmPYNveAo9dzb3pWlx0bM3tg+F+tmwvCAgCDRuBqBIEIxEwwuirulhDNEHVKVAUQe92oFSEElhSZIFbIm0OJKcA7VunITsnlQVkZEQeAVq/iooq7MyrRHmZ01VnwP4J1JGg5JINBYjktxGo1sCojOhNAMSXveb1+23jZlz2+GyUVFS6JiYnJmLF45P5bVSGICAICAK1ReCAEIRg0QS3E6ROFILWJlBBo16TwD91d0giDtUODttlZiWgfds0pKXVrNJWW+DidTsbKSHuqsD+/XY4nY2QxK6LhloD/c/u7gTdZEmPHLBUsu7CqFoXvWsNNJJQPwSQ6vo6mLHkE0x9d4mHrsIx3Q/Ckgl31PWhReXzqU5iV1Ex6yaQdXRacnJUPifWd0rqimQlnhlEhTLWz0OOL7YROGAEIRhJUL/nlINem0ANxSyypBcyUseDUTeBSYKrLVKXa9YdIrmoEQ50bJ2Cprnp7BIoo/YIUNSgrMyK7Tsr2T/BbaxEqQWlZWAoPtRbF91KiO7CQ6o5oMe/UkQ0cgHxZA99jUh8aNCkR7CzsMi1EVW8T73yMow4+YSgOyJlvkprVdB5NIGIHRXN1fW4bMZTWLpyNZtRUWtkPPoSbNyzB8OmzcbuomJMuuRCXD/o5IDqm3W9XvL59RuBA0oQFFSh+Hl71ibonQ56MSORBiIGmkukp9CSpsbo9nagtERGZgJat0xBdmaa+DrU4nqtslZh914rSopt3HaoWTErbQOvQkSWR3ZLJHPEQO9O0CIGvAvuUtAiBdoBCTEwtzAl5RW47unnWIbXODq3bIGFY0eiY4vmQXdIZk/e2wfaKCcjHV89NDHoPqM9QQgCcN+bC/HMZ0sZalJj/GDCHWjZOCfa0Mv+4xCBOiEIgYiCUWFNkQi2ieUIgls3gYsZFUHQlRhJQ4G6GlRbpKpNsNnAvg7kINiqVRJaNM9EElXSyQiKAKn+leyvxLbtVk4nJLuEjjRSQK2LRADYdVFFDJSPggcp0B0YuYMxeIeCkTgEPch6NOHPzVv5i5zeesl/obaDChNJlZA0BYz3TE2tgv4+64on5+LzP1eGdBgU0l//1OMhzY3mpIZMEOgrjiI6JLLULDsr4DWy6MdfMOal+ZxiGNirB14deXPIRl/RXBvZd8NDoE4JAsEZcjTBoJugCIKLKHBLpEYaNPMng8gSKTAaIgrp6Y3QpnUqsrPSpKc44PXshNVajV27LdhfatdIgDFiwEqIAYgBtTF6kwNdJtkVQdA/N96iBiSHTIZNA3v2wFlH9cXJvXuC3sxDHUSWSanv2c+WsoMgk2fDIJW9WddfhYzU0KTIFUFo3aQJbj7zNOSQL0CAkZqUhKHH9Q/1UKM2ryEThIU//oKFP/yMTXv24tWR/4dDAlhFky7EV6v/RnFFJQb27I6WjaUYNWoXXJzvuM4JQqBogkYetC9AjyJGpZdg0E0gwSVNiVFPPfhJO2hqjA5wW6TdicaNG6FDuywkB9B/j9frgtI2ewvKsDuPlBDBUQOtK8Etk6z8E5S5EhckkiQyKyHq0QJo/ybpBPeVRASBZJHVIKOis486HOf3PwqHd+6E1ORkV/snzdFSaQ6UWSzs1jjv8+XYku9r4ENzj+zaGa+NvoUVF0MdiiD0aNeG8/n1oeuhIROE6+Y8hyW/rWA1yU/vG4eeAQhCqOsr8wSBcBGIGYIQKlHQMg3utAMVLVL6gX/qf+YvVkNEQakw0r9RuoFlm+0OkFxCy5apaNokTVoiAZSVWZCXZ0FZpRNJJH9Mlsx666KmhKjEjgwpBR87Zl0a2eChQGtb3+yZw72x/G3vTRCMc9JTkvlNsHFmBlfmO5wOVFqrUVhWxja/RBT8jaT/tTQO7ncExl84GFR/YGYIQTCDVvTnCkGIPsbyCeYQiDmCYIwYGE+lpmgCdzmobgcmCcr8ydspktINunRzte7tYHciJ6cROrfPQCKJKMThcNjtyMsvxZ4CJxKheyaQJTMRAl3TgDQl2HGRvBR0oSNVjKi6EYwyyYoU1NSh4NXJ2OCRnzD/bbzwxfKIuf2pjoXhJx5XK4IbLYKgEh+ejarmljfQPmobQYjEMZk5A2PyJ1QcDgRBiAYO0dinGaxlbvQQiEmCYIYkUAUjRxD0KIIiC/RvHFHQ/9fqEtw1CppUszKAcnDevGWrFLRsloZGpOoTB8PppCLEKuzZY0ElRQ2ozoB1DXQfBRUxMEYOPLoUDK2KXq2LNUUNjL+LA5hdp0iRgC//Wo3v/1mHPzZvxdb8AlA/u5lBxWuUjiANAEpNtGnaxMzmHnMjSRDIlGj56rVYt2MXF9lREWanls1xVNcuOL5nd78mTN4HXlRWzh4Nq7Zu5xY+qieitMcRXTvh1MN6o2lmJswQBNrHslVrsGb7TuT/z46Zoi2tGuegb9fOOK1P74D1H5bqanz+x0pU2x3o3rY1+nTqgHKLFctW/421O3bCZrNzceDAXoe4ToFeSjbu3oNfN25ig6a8ohJU22x83l1atcSxPQ4C6VOo7h21IdWSbNurOXo+98UyrNi0hbEbN+Q8D6nl4w452LXWReXlWLZS87Lo2qpFQBdM9Rn/7NyFn9ZtwIa8Pcgv3s8RWKp9ofU5+qCuOObgbjW2Sa7cuh3/7tJMp+i8qdCWWmw/+3Ml/tq8jaNcdMzdWrfCib174MiuXXzOs9YXqWxYpwjELEFQqIRcxEg1CZR+8IgkEEnwbIdU6QdXlwORBt1KmtIOjZIaoVuHVGRlh148VqcrWMsPt9ts2LStHGWlDk4dsK6BIWLAioiGzgRN+EgXPdKLDlXdgbQumlsEShdQBXrB/lL88M+/+H3jJvy9Yxd27itCYVkpKqtIuhqcbqCaAnrA9O3cEccf0h2HdurAKYjkpCRTTo3+jjASBIEsjp/+5As8vvhj0IPV2FVBn0kPjtMPPxQv3XZTjSCt3LoNV896FnlFxWybbBwUKSEr6EV3jcK1c54LSQfhp/Ub8H/PvIg9xSU+6Rmqp2nfrBneuuNWxtZ7EJE7YcIDKK20gDwt7rvkQtzy7Iv44JcVLkJ31SkDMe2qy3lT6jy49813sOin32CpqvL5PIqwpSQl4r9nnY6xF5zr8TAe+fwreOeHX3g/mmmd9j5O52wcr466mXGksXLLdpzx4GP85ytPPgFTrrzML7a0HpPeXIQF3/3I5l/eRa1039L6HNvjYDx1w9VoEaBV8v633uXCWBpv3zkSrZrk4NLH52gkzrBWdJ50bd43bAiuPe0kKQI397UQk7NjniCEQhT8tUSy+ZNODlS3A2kiaNoJ4AubWiBV14PR/ImiEs1bJKFZ0zSkpjYspTa7zY6iEivy9lhgt5ESoq+egaveQEULuHVRFzoyFCSypEGItQa0jvGWUojJO95wUOESBJvdjskLF2PeF8v5bbldblMc2a0zv+lXVFXx26WyOz6pd088+3/XIjc7ywcWqsj/73MvY29JKb959u7YHlQ4SSqBxeUVbIW9ac8e9DuoG9+3v2/cHFAoicjFm9/8gLtff4tJWEZqKgZ0PwgdmufCWm3Dprx8rNi8hZ0V6TPowdvFq3aDCMKx4ycxQbjxP6fy3BeXfs3RjNZNGvO/UwfKY1deyueiXDDpAUliUj3atuZ6Erre6SH681LcDvAAABoeSURBVPqNXGhK0YQ5N16N844+woUBtat+uuIv/ntecTHKLFZ+sLZvlgvqHFFj6lWX44Se3XWCsA2D7n+U/3zVyQMx7WqNqBgH6WSMevE1fLLiLyYdLXJy2DKaOlZo0Dmu2rYduwuL+MWKojxzb7rG9XvjvohkzP3sS/6nhy+/GC8s/QoF+8vQ/+CuaJebC0t1FZtQUeSH1odMp94ZOxKHd+4Y67eAHF8QBOoNQQhEFELxdfAoYqRWSD8CS27dBHfqgXLuHdqnoHFORoNgw5WVFmzeWomqKujyyLqxEqcQ9IiBRzpBc17kWgOyX3aRBG5OcCkhGh/+8da6WJ+/YcIlCCTWQw84eoBSCPyJa0agXbOm/FZKD+risnLc+wa9Wf/K18uEoRdg5LlneEQ+SisrccKEB/lBSl0c9PZ58XHHICs9DUkJCfzGTg+7yQvfxxvf/ojERo1434GUFNfu2IULHpsBSlcc1KYVXrr1JnRs0YwfzvRyUG614LWvvsPkRYu5UPmCY45m4mIcRoJAD8EVm7biogH9cPdFg5m02Bx2Tj8QWVAE4Zo5z+K+YRfi7KP6IjstDal6dxS9xZNuwbhXF/C5tG3WFCumT3aF4Ik4EHGhMfqF1zhsn5aSjLfvGImD27Z2HVZ2eppLF2HllpoJAj2kh02bhe//Wc9Rg1MO7YWpV12GVo0bM8b0AmS12Ti6MvaVN1xOoP0O7or3xt3uo79gJAiUXqDoxisj/48JFuFKn0deIPcv0KIVNGh9YkFYqz7fn7Fw7PWeIBCI3gJLPhEFPe3gLbDEugkOJa7k9nTQuh20+gT6c25uIlq3TEdqKjH6UEuOYmF5tWOgnGlhYSXy8ikErBUh+hgrGeoNtOJDRQy0tAJrGKifIpMcO4sbxpEogkC2wmMGn4XGAXQQiPQd1qkjOrd0qzNu3pOPsx+exrnoQzu2x6K7RqNpVqbP0VRYqzDksSfwx+YtOKJLJ3ww4U7Xw5PuvbtefZMf2DRuH3wW7jz/HJDZlPegB+nwJ5/Gj//863oAeUstV9vsbH1ND0YSdpp/+3/R76CuPvuicPs1s+fhy5Wr+dr+bvIkJhNqGAkCpSMocjH/9lvYktnf2LB7D5OGQ9q19ft7IgBnPjQFa7bt4N9/MWk8Du/SyWduqEWKwQjCez//hpvmvsD7P6pbF9ZUCJQ+oAjNJY/Pxh967cNzt1yPs4483OPYjAQhNysLL912I6clvMe2gn0YOOFBVNIbCIAfHr3fA9cwLlXZtI4QqHcEwYiTd31CjUqMSqbZ1RJp1E7Q0w5k+qS6HHTdBFXISDn4Zs0T0apFZq0qxutofVGyvwK7dlehyurkmgIqRFS6Bvx3IzHQowWJlDbQowbGOoNQ0wmSSqir1Tb3uaEqKVL0iPwdrjxloOsDXl72Nca//hZSEpPw1p23+X1g0GQKXz+++CNMfe9DfvD/MeMRlyzw9oJ9uOCxJ0A/6Y2Tev9rMl/aVViMAeMncZ7fXwThu7XrcNHUmfzCQPn+e4cNCVgsRzUKgx/RlCEpMnD7eWf5JQgUMfjhsfvDKgalHU97/yNMe/9D/oxnb74OQ445OioEgaI5/533MogkUNRh6QMTgra/Enm74NEn+MF+zaknYYqeOlEHaCQIFCEhEuGPxNH8G59+Ae//8htvSlEGb7Jh7gqV2XWNQL0mCPwF5Ckmx3j6ph00wyfl7+BKOahOB7sSpdFqFJSXg4dLpK7I2DirEdq0yUBaWnJMpx2qqmzYu7cC+fvsHJZVrouqvkD7SYqIlEbQf7LIUSP+N030SPdI0D0UlEyytC7W9W0bmc9XBIGq+6lugNtU/QwiCBMvvoBD/2rc8PTzWPzL7xw9oMK1mkyTlvz6B657ah5vSjn/M484jP/81eq1uHr2M6AoA5kO0UM92DjzwSlc6e+PINz75kIupqO3/r9mPBrwrZk+g0LvHW8YyXUK9NB72VBEaYwgUGHowrtG1coMiSIapZZKrllY8usKTsfQePSKS3DdoJOjQhCo24LqEzbm7cGpfXox3sFkvYvLyzFs+myQFDgJbhFRMw4jQaDCTCrQDDRe//p7jHnpdf71jGuuwBUnHR9sSeX3MYxAvScICttg0QRfl0iNSLBDJEk1exUw+muJVN0OCYmUdkhC6xbpSEisvaZ+NK4L8pwoKqnEnr3VqLJorYtGJUSX2FGA1kUXMZB0QjSWJ6b2qQgCCSw9ee0I1v/3N4gQUtEdhe3VOOW+yRwyp2I6eksM9EZJ8yn0/OFvf/Cm1BFwq04E3vz2R5BhFBEU6lCgYsJg47IZc7B05RofgkBvzlfOfIbTBvTWX9NDTH3GS8u+4bdmSkMsvvsOJhY0jASBXDGnX3V5SC8DtK9f/t2IPzZt5eLMHfsKQTUWRBCoFZB+RpsgUMrg0FHjmPhQB8YDl14U9Nhp7o1zX2AZb+qaWTNrakCCQGSQWmwDjWWr/salj8/mXz9yxSXsNCmj/iLQYAgCLUFo0QSNEKiWSGUCRe6QquvB1QqpRxNUAaPbJVJTZExJATp2SEdWZmrQmzDql4jTCWu1Hbt2l6OoyM7EQJkraakFb9dFLXLAvgmUWtBrDPgnFSSqqIG4LkZ96erqA8IpUux521iuPzA7Rp17Ju4Zej5v9sSST/HoosVMPN4ddztHI4KNQDoI9PAl8kAPaLPjiC6d8f7dY0Bqlt4E4eYzB+F+esjWsNNyq5Ufro8uWoId+zRNAxqq7S+dvDGcYJIQbYJAegXHT3iAP4cKPm89+z8hwUEFkm98+wOSkxKx8/k5HtsYIwhU93Fib7f+g/fOv17zDy6eNpP/WQhCSNDH9KQGRRAU0qEQBeUS6Uo7uKykVbpB/0mSzSSoZHdw+oHbIQ0iS2jkRNPGSWjTOh1JYTj0hXOVkODRvn2VyNtbpbUu6oSASYFusuTWNFBpBa8iRJVW0O2YmSR4tSZ6dyhIrUE4q1b324ZDEA659U4UlpVzYSIV5/nrXvF3hkOP7e8KOz/27hLM+OBjTm+8O240tzcGG4EJQiWLKBFBoMp60k0IdRzcpjUmD7/YFYo3RhCCEYQKqxWTFiwChdap6JLaKk/qfQiLWXVq0QzNsrOZANFxTXzjnagThDXbduKU+x42TRBuf/E1zP/mB47m7HpBCEKo105Dn9cgCUIgohCwJZLJAZF8PeXgUmD0qk3QiYFbZIkMoLRoAjlId+yYiqzM9IC53IhfTE4nKi1V2LKtHFaLLotsdF3UDZaMgkdKJtlorMQtjIaIgds3wX3EQg4ivnp1vsNwCMKRd9zDIfRBhx/K+ftgeW5/Jzt98ceY+t4SZKen473xo7lTIti4ZPpsVlv0rkGg8P7lM57iDoZurVvix8e0t+jaDDMEgQojL3/iKW5VJJ2C52+5wW83x/s//8ZhfBrRrEGgNTnqzokcJaWOkLuGnBsUAmNhI6WZ1s6e5rGNRBCCQthgJzRogkCrFko0QUURVCEjK5opBUYl1Ux/d7lEau2PKpKgahPsToomJHI0IUUPV0bryrHb7cgvqMS+fdVw2PUUggc5UOZKmocCFaBRJwZ3Jyg9Ay9bZgoZGKMGomkQrdWLjf2GQxDOnTyd34qpdXHBHbf5fSgGO8sF3/7IYj5ESF8bdYtLKbCm7Y4ZNwnUYulNEOiepcJJKgYkDYJ/Zk9DZoC2xGDHZYYg3PHyfG7TpAcr4RBIHOj5L5aDvDiiTRD2V1ai/9j7OJ1BRaWzrr8yaIElpWdGPPk0flj3L7dFfnLvXUIQgl0kcfL7Bk8QgpEE9XsXSeB/8DZ/Mvg6eFtJczukloJQ6QdnIyc6tktG0yaZIYdeQ73e6M3AWmnFlp0WWJR/gkf7osF10dW2qJMCLjx0dydobYsieBQq9g1tXjgEYfxrC1hdkNIDS+65A93btjENz9dr1uKqWc+CwvRG6eJAOyIRpJMmPsS/9tfFMPujz/HQO1qnwBPXXIHhtaygN0MQznhgCms8UKHnxxPH+u3moHuWsP7ir1VRJwgkzEQiSdTG2alFcyx78B5ud6xpkBcESTdTTck1p52EKSM0hUg1JIJg+tJuMBvEBUFQqxVaNMGzJdJo/kQ+D1TM6HA4WK6ZNBJUfQJHFBRZsFGqwoGs7AS0apmGzAxyiQxfYKm62ob8vRaOGtCD3t2hoJECTdNAjxgoHwVd8MhDBZFIglcRImEklswN5r4O6UTCIQjU4kj99lQBT2+qM68bwfnrmgYV81GHgRo7C4tYi4B0EEiEiOR56Q3W3yCDIkovUCteIIJArX0nTnwI1F5ID8f3x9+Ods1yAx4SPbjp7ZmMi4zDDEFQbZfUzbH47jEstew9qC3zwilPcDsnjUApBkpBUCqClBQXjx8TsI6iJqEkOqfHP6DUjaa5QJ4Ik4cPCxhFoPTCuNcWcBSEIi8v3nojTj+8jxCEkO6ghj8prghCIKLgT4mR+xyM2glEDIxtkUQOSImRixd1wyd2jDQQBbuDc4Ht26WgaZNw5JqdqKi0YvPmCtgdmiQyOy/qrYpcjEgpBIoYGAyWNIlktxKismPmegP6TycJChdJKTT8G954huEQBApln3Lvw9heUMi7vOH0k3H/pUMDqiDe8/rb7GZ4+YnHeT58FizC3E81nf+OzZth4V2jPRQb6d/pHqKH2CvLvkFiYiJLOweSWiZJ45eWfc37I70F0gEINJ7/8iuUV1ow6rwza00QRj7/KssLU5vnE9eOwLDj3VoRtFMqXCTpZ/JjUCMQQSBfi5kffsoP8yevG4FLjh/g99CDKSkSwek75m6OatIYe8E5GDP4bB+SQMf2yMLFmP3x5zyP2j2X3HOnj7iURBDi63vBeLZxSRC0Lx3fRfdbxMgOa5oiHEUQlG6Cy0baozZBIwjG/zmqYHeCVGxbNSeXSHqDCj2aYLVUIX+fFSUldi1qYPBNIGLAtQWJ4MgBFyAavBNY6EgnCe7WRY0Y0AgUMTD+Ln5vjYZ/5uEQBELn53834PqnnmdNf3qo0ds/2SjTWzT9vbC8DGu372JtAvJamHHNcAw/0VM4h97gr5w5l4sLadC2F/Q/ilMWVPi4raAAn/+5Cr9v2ozLBx6P7QUFoFa6QASBjmXEzLmuSAOF/s89+gjeX1pyEvb/L99OkQbSUli/azfGnHcWxl80uNYEgQomr50zj+2gs9JScekJx+Gwzh3YbXP9zt1458efUWGpAnVvzPtiGX9OIIJANR0XTnmSozJdW7Xkt/9mOdns8kkFkCRiRCMYQaA5tC+qySDcaS1IY4L0C8jFksbuoiJQiofcRMnb4pju3Th60Dw72+fCF4LQ8L8LAp1h3BIEBYhpokBRBCXXTLUKFEngnw4t/aAIgkFDQREGIiBNmiagVYt0JAYVWHKisLgC+fk2JiV0kysioLoSSADJSAq0IkSaq4UGNN0XbQ5xEuVFL8Qgfm9445mHSxBoXz+u+5d9DVSPP3FPesunwak4/QYjh7+37rgNR3T19SCgyvurZs3Fqq2aVwENut6J1NJbLt03lMYggnH17HlB7Z637i3A5TPm4N/dezz2R9c/FRLTcdHISU9nd0Wl7Kgmm0kxkIvlxDffwUtLv/E9drudXyzIKKlxegZueqbmLgbqxLj+qefwxV+reV90/oQDYfDaqJvxn75a6D8UgqBIApElMq4y7o/+rHClPw/s1QNP3UhOjpr5lPcQghC/3xdxTxBo6U2RBI4k6CqMLqKgRRY0K2lNlZGUGPkLktMQelRB74gg3ZQWzVKQkZWCBHqiew2LpQp791lQXqalBzQSoNwWtQe9MZWgvBOYIBiLEKV1MX7v7BDOnCrr12zfgVZNmuCWMwf55OJD2AVPoVqC17/+jm2Y6eFqqarmBxtpJLRp2gTHHdKd36BrKpYjxcHXvv4e3/79D8hzgQyVMlJT0LFFc36Ak+si+TTM+3wZ1u7YiTZNm+KWswYFNFCiYr35X3/PLZH0Fk1v+HRM9JZPts19u3TC+f2PQrfWbpMmdb6UPqHQOx3DyYf24nk1DXrYvv39z/jo9z+wo6AQ9NmZaakctSCpYZJrJjOkV7/6lndz4bH9MbBnD7+7pGOd9eFnHAGhuguKorTJbYL7L7kIPdtrZlCU1pnxwUf852N7dPdJaxh3vL+iEq9/8z0Tud2FxaA6EPqOaJKZji4tW+KMIw7jCIt6efB3UFRvQpbcNG4+83R0N7hMes9ft3M3ntGtoS8c0A8DewUWVQr1+pJ5dYeAEAQD9sHkmhWZoPoEjSRodQn8004/3URBk27WIguaa6Tm86CIBO0rLaMRWjVLQRJbsNJcO/YWWVFeqm2jyIFqUUxQ7YqsfKiRBFeNAbUuEkGA9lNFDETToO5urnj6ZLr26Q24sqqa307pIZSalARSEaxJhtmIEb1tkxETFfPRPkj6ODPVbZ1cGzzpYV1prWKrZTomOhZSTNRsjyM76PzVsdPnEBmhVIPZQd8ppRWVbMlMpD89JZXJUjhD4UD1GxRdTElK5ILRYIWl4XymbFv/ERCC4LWGNUUTXARBF1XiuYaWSBdBYKJgiCoY/uzqiuAop5NTAtnpQGIjoNQKVFdptQEqEqAVGhIZUCFHvU3RqGdg0DVgS2axY67/d6acgSAgCAgCdYyAEIQACxAyUVBFjNzxoNcnqG4HIgYue2n1Z3fUgT0hvIolFTkwKhsa7Ze5XVEVHuqGSkYlRKk1qOM7Sj5eEBAEBIEGgoAQhCALGSjtYPx3b18HLfWgm0IZPB6MBEKpNmpRCcUS9NZDigDo3ghEFJSBklZsaBA6MqQTjK2LtE8pRGwgd6ichiAgCAgCdYSAEIQQgA85muClnaBIgMtWWm+V5MyEnp5gaqA+wOCcqCSPPZwVlQWz0jFgEiGaBiEsoUwRBAQBQUAQMImAEAQTgIVcxKhP1LqpfJUZNVKgaSv4tlB46hSolIOWOuDYgFvgyE/rohY98NRZENdFE4ssUwUBQUAQEAQYASEItbgQQm6LNEQUFBfgugMPguB1ALphkjJOIjbgjiZoegb8L17GSkIMarGQsokgIAgIAoJAQASEINTy4ggl7eAiBYoo6MTAHTjwI+eo8TZXDYGbKLhTCRoZcB+4P4lk7zm1PE3ZTBAQBAQBQSBOERCCEObCh0oUXNxA5wR6HEHPMxgOwvjg1yWZPclAzcRA0glhLqhsLggIAoKAIKC9qjqNTkUCSq0Q8EcStCiBZ4TAP5nw/MhAD3iJGNRqaWQjQUAQEAQEgVoiIAShlsD52yxUoqCRh5o/2B9RCJRKYKYXuv9TBM9YdiUICAKCgCDQUBEQghCFlQ328A81aFMTIRBSEIWFk10KAoKAICAIuBAQghDFiyEYUajtR0u0oLbIyXaCgCAgCAgCoSIgBCFUpCIwLxzCIKQgAgsguxAEBAFBQBAIGQEhCCFDFdmJwciCEILI4i17EwQEAUFAEDCHgBAEc3jJbEFAEBAEBAFBIC4QEIIQF8ssJykICAKCgCAgCJhDQAiCObxktiAgCAgCgoAgEBcICEGIi2WWkxQEBAFBQBAQBMwhIATBHF4yWxAQBAQBQUAQiAsEhCDExTLLSQoCgoAgIAgIAuYQEIJgDi+ZLQgIAoKAICAIxAUCQhDiYpnlJAUBQUAQEAQEAXMICEEwh5fMFgQEAUFAEBAE4gIBIQhxscxykoKAICAICAKCgDkEhCCYw0tmCwKCgCAgCAgCcYGAEIS4WGY5SUFAEBAEBAFBwBwCQhDM4SWzBQFBQBAQBASBuEBACEJcLLOcpCAgCAgCgoAgYA4BIQjm8JLZgoAgIAgIAoJAXCAgBCEulllOUhAQBAQBQUAQMIeAEARzeMlsQUAQEAQEAUEgLhAQghAXyywnKQgIAoKAICAImENACII5vGS2ICAICAKCgCAQFwgIQYiLZZaTFAQEAUFAEBAEzCEgBMEcXjJbEBAEBAFBQBCICwSEIMTFMstJCgKCgCAgCAgC5hAQgmAOL5ktCAgCgoAgIAjEBQJCEOJimeUkBQFBQBAQBAQBcwgIQTCHl8wWBAQBQUAQEATiAgEhCHGxzHKSgoAgIAgIAoKAOQSEIJjDS2YLAoKAICAICAJxgYAQhLhYZjlJQUAQEAQEAUHAHAJCEMzhJbMFAUFAEBAEBIG4QEAIQlwss5ykICAICAKCgCBgDgEhCObwktmCgCAgCAgCgkBcICAEIS6WWU5SEBAEBAFBQBAwh4AQBHN4yWxBQBAQBAQBQSAuEBCCEBfLLCcpCAgCgoAgIAiYQ0AIgjm8ZLYgIAgIAoKAIBAXCAhBiItllpMUBAQBQUAQEATMISAEwRxeMlsQEAQEAUFAEIgLBIQgxMUyy0kKAoKAICAICALmEBCCYA4vmS0ICAKCgCAgCMQFAkIQ4mKZ5SQFAUFAEBAEBAFzCAhBMIeXzBYEBAFBQBAQBOICASEIcbHMcpKCgCAgCAgCgoA5BIQgmMNLZgsCgoAgIAgIAnGBgBCEuFhmOUlBQBAQBAQBQcAcAkIQzOElswUBQUAQEAQEgbhAQAhCXCyznKQgIAgIAoKAIGAOASEI5vCS2YKAICAICAKCQFwgIAQhLpZZTlIQEAQEAUFAEDCHgBAEc3jJbEFAEBAEBAFBIC4QEIIQF8ssJykICAKCgCAgCJhDQAiCObxktiAgCAgCgoAgEBcICEGIi2WWkxQEBAFBQBAQBMwhIATBHF4yWxAQBAQBQUAQiAsEhCDExTLLSQoCgoAgIAgIAuYQEIJgDi+ZLQgIAoKAICAIxAUCQhDiYpnlJAUBQUAQEAQEAXMICEEwh5fMFgQEAUFAEBAE4gIBIQhxscxykoKAICAICAKCgDkEhCCYw0tmCwKCgCAgCAgCcYGAEIS4WGY5SUFAEBAEBAFBwBwCQhDM4SWzBQFBQBAQBASBuEDg/wGKNnUlPo+gpQAAAABJRU5ErkJggg==;" vertex="1" parent="13">
                    <mxGeometry x="140.00387096774193" y="142.99999999999997" width="60" height="46.85" as="geometry"/>
                </mxCell>
                <mxCell id="32" value="Gateway" style="text;html=1;strokeColor=none;fillColor=none;align=center;verticalAlign=middle;whiteSpace=wrap;rounded=0;" vertex="1" parent="13">
                    <mxGeometry x="50.97000000000003" y="233" width="60" height="30" as="geometry"/>
                </mxCell>
                <mxCell id="33" value="gRPC Federation" style="text;html=1;strokeColor=none;fillColor=none;align=center;verticalAlign=middle;whiteSpace=wrap;rounded=0;" vertex="1" parent="13">
                    <mxGeometry x="172.89999999999998" y="233" width="60" height="30" as="geometry"/>
                </mxCell>
                <mxCell id="34" value="Auth" style="text;html=1;strokeColor=none;fillColor=none;align=center;verticalAlign=middle;whiteSpace=wrap;rounded=0;" vertex="1" parent="13">
                    <mxGeometry x="340" y="133" width="60" height="30" as="geometry"/>
                </mxCell>
                <mxCell id="35" value="User" style="text;html=1;strokeColor=none;fillColor=none;align=center;verticalAlign=middle;whiteSpace=wrap;rounded=0;" vertex="1" parent="13">
                    <mxGeometry x="340" y="227" width="60" height="30" as="geometry"/>
                </mxCell>
                <mxCell id="36" value="Post" style="text;html=1;strokeColor=none;fillColor=none;align=center;verticalAlign=middle;whiteSpace=wrap;rounded=0;" vertex="1" parent="13">
                    <mxGeometry x="340" y="313" width="60" height="30" as="geometry"/>
                </mxCell>
                <mxCell id="6" style="edgeStyle=none;html=1;entryX=0;entryY=0.5;entryDx=0;entryDy=0;" edge="1" parent="1" source="3">
                    <mxGeometry relative="1" as="geometry">
                        <mxPoint x="320" y="400" as="targetPoint"/>
                    </mxGeometry>
                </mxCell>
                <mxCell id="3" value="" style="sketch=0;outlineConnect=0;fontColor=#232F3E;gradientColor=none;fillColor=#232F3D;strokeColor=none;dashed=0;verticalLabelPosition=bottom;verticalAlign=top;align=center;html=1;fontSize=12;fontStyle=0;aspect=fixed;pointerEvents=1;shape=mxgraph.aws4.user;" vertex="1" parent="1">
                    <mxGeometry x="202" y="360" width="78" height="78" as="geometry"/>
                </mxCell>
                <mxCell id="7" value="User" style="text;html=1;strokeColor=none;fillColor=none;align=center;verticalAlign=middle;whiteSpace=wrap;rounded=0;" vertex="1" parent="1">
                    <mxGeometry x="211" y="440" width="60" height="30" as="geometry"/>
                </mxCell>
                <mxCell id="18" value="" style="shape=image;verticalLabelPosition=bottom;labelBackgroundColor=default;verticalAlign=top;aspect=fixed;imageAspect=0;image=data:image/png,iVBORw0KGgoAAAANSUhEUgAAAPYAAAA9CAYAAACePZS/AAABUmlDQ1BJQ0MgUHJvZmlsZQAAGJV1kM9KQlEQhz/LEMRFRLSIAhctCizCXBcmZFELsT+UtLlebxqona43qjeQoDeoTbRoEdEuaFOLeoIi6Alq1SaQoOQ2Ryu1aA7DfPz4MTNnoA1DqbwXKBQdOxmfDC6vpIK+Z3x00YOfXsMsqWgiMScWvmtrVB7w6Ho3rHtdJYmVn3bG9+KF+Ik1uf/X3xL+jFUypX5IDprKdsAzIJzYdpRmSbptWUq4rDlb5wPN6Tqf1zwLyZjwjXCnmTMywvfCoXSTnm3iQn7L/NpBbx+wiovzukr2Mcs0YXmjLP3ji9R8MTZQ7GKzTpYcDkGioijyWMIzFDEZISSsu4WJ6Pv+vltDsx9hQu9QbmipIzg9k9EXDW1oVb48BbcvyrCNn2t6Kt7S2li4zgEbOt5c97UffJdQtV33/dB1q8fQLnOuNz8BE7dgw+VcNKUAAABWZVhJZk1NACoAAAAIAAGHaQAEAAAAAQAAABoAAAAAAAOShgAHAAAAEgAAAESgAgAEAAAAAQAAAPagAwAEAAAAAQAAAD0AAAAAQVNDSUkAAABTY3JlZW5zaG90C4CZCwAAAdVpVFh0WE1MOmNvbS5hZG9iZS54bXAAAAAAADx4OnhtcG1ldGEgeG1sbnM6eD0iYWRvYmU6bnM6bWV0YS8iIHg6eG1wdGs9IlhNUCBDb3JlIDYuMC4wIj4KICAgPHJkZjpSREYgeG1sbnM6cmRmPSJodHRwOi8vd3d3LnczLm9yZy8xOTk5LzAyLzIyLXJkZi1zeW50YXgtbnMjIj4KICAgICAgPHJkZjpEZXNjcmlwdGlvbiByZGY6YWJvdXQ9IiIKICAgICAgICAgICAgeG1sbnM6ZXhpZj0iaHR0cDovL25zLmFkb2JlLmNvbS9leGlmLzEuMC8iPgogICAgICAgICA8ZXhpZjpQaXhlbFlEaW1lbnNpb24+NjE8L2V4aWY6UGl4ZWxZRGltZW5zaW9uPgogICAgICAgICA8ZXhpZjpQaXhlbFhEaW1lbnNpb24+MjQ2PC9leGlmOlBpeGVsWERpbWVuc2lvbj4KICAgICAgICAgPGV4aWY6VXNlckNvbW1lbnQ+U2NyZWVuc2hvdDwvZXhpZjpVc2VyQ29tbWVudD4KICAgICAgPC9yZGY6RGVzY3JpcHRpb24+CiAgIDwvcmRmOlJERj4KPC94OnhtcG1ldGE+CuUvDf4AAAeMSURBVHgB7V27btxGFOXu2oGBfIDTW2ViA457SU1cJD+QpJcBd0llV5J+IF0MRF0CBPkGuZHUKwGcpLR7u3cQw7K02cP13dy9HpLD5cxyOXMGoEnO3Oe5c3ZILlceTWetYCMCRCApBMZJZcNkiAARKBEgsTkRiECCCJDYCRaVKREBEptzgAgkiACJnWBRmRIRILE5B4hAggiQ2AkWlSkRARKbc4AIJIgAiZ1gUZkSEbiWCgSXz38vU7l8cV5cvfhjfvz8vNxPtu4V41t3y+OP7j8o9/yHCKSMwGjor5SC0BdPj4rL9yT2Kdb1+3ulGEnugxZlhojAYFfsVQgtBbo4PpLDguReQMGDhBAY5Ir99vinQpOzaz1uPDwqJlufdzVDfSKwMQgM7uFZaFKjEm+e7M0u5ef36BtTGQZCBDogMChixyC1YEdyCxLcp4DAYIgdk9RSSDyEYyMCKSAwGGKvA2w8WccHCBsRGDoCgyD2OlZrKSQeyvF+W9DgfqgIbMzXXfL1lbxIAkD7+ioKl+STLa7cQ53UjLsoev+6q2k1xltjbV4+CVXUj3/gU/JQWNLO+hHo9VK8idSAow9Sz/2S2OufjvQYCoHeiO1D6lBJrmIH75yzEYGhItDbPXbIN8digD+5da+YvvyrePf0cTH65LOFi8ntb5bOFwM8IAIbhEAvxB7CU2e8YgpSo4Hg0t69nPeN73xdTO58K93cE4GNQqCXS/FNv8yVX39pQtuqXT37rbj45asl0lsZnhOBvhDohdh9JevrF1+z1ZFa28GqfvnsV93FYyLQOwK9EBv3r5vaZLVuEx9Wb5K7DWKUjY3A2u6x5b56k9/Hxnfm8lLM1as/W2EPco9v3m71YO309HThY2dnZ3Ec+mBdfkLHHdNe6phEX7FB6DdPHpQ/jZz/guq8t++m6yYKSH3j4f9vm63yYMz3w+Dg4KAYjUbF7u7uYsM5+l1N5OtkXHqYvG38wAbkZbM2pR9728SXlsExcqzKS2xAxurZc5GVvR6XPt894tHYa5K7bGj8tV8cYwybq62Sl8vOKn1RiT0nNX7rvNnfCePyW5NagMST7zbN55Ick+Dw8NBpFv2YDCEa/FTZCumnKVaQBv6EBE3yfYxX1cMnFuhia/pw8LEVUuZaSGPaVqwXULCyhmrXv5j/7bOqv56CVRuX11iJp6/+XnJb9XDNymklS2pcfm9vb5ciMrkwQSCHbdUGXbEHG7H81MW3v79fDus4cIxYsFU1jAkmVTJd+3VMsNWGlDo+bUdyq4pN61XJBO3HHzOM0V5/d3e66vbvj3sxQgpu8+L40fTtz19+sFU5mhUO/xd5uc0m/pIYzmVsNgkqx6zekuD7E+iLLSt/cnKyGIOMbaLXdkzbtfHreOwY/Otx2PFpdXHW6VucxY7FSdvQOjo+nbMLr1Xy0n67HEdZsbFad2m4dP/n++a/QdZl9cavyPB0vmq1lvjlabdeiatWa61j79HtqmBXZJzPJoKY6LTXvqwf+MAmMtjjPGabEWPhr8kP4sGmG+ILFaNeZXVcZ2dn2qXXsY4Ttuqa67YIOrY+dTbajAUnNu6r1/W6aJd7d+heFEcF7q/lSbgGDoTGPXOMVjVJq/rbxKAnm48e5EP49fEFmab4NPHEZqj4NIlAKtjFhphkw3ldcxG0Tr6vsfDEHtiPJ/AhZImNl06aVuW2BdMTBpPI1XS/lnfJVvVZPdh09Ym+HcO5xOHSFb02e7EHHeuvjZ2QslihNdFhu+k+ucq/z8qLvO2zg5hYjKuCzalfvmNHziFIrS/bNY66kHZS4RyrATZNBK3ve6z92BXQ+tWy1r7WtXpWtuocuWg7dnJbvdl9K278l7a6GK1+3bmOQ+LSWONYn7tsIRZ72e0Tn5AfOMrmo+eKwacv+Iq9rstwn+TayoQgNXyObn7qdI3iysTBJMOG4kqfU8l0QsfeD4IsmCzStB/YxldNLj92gkLfR9elJ76xF5+6D8eIQcdpx1c9d10eI0b4k6b96n6MI15pUhM5t3uxixqIXpMObEAGm234IIvRghM7RpCxbeIBGi69Q11+4ysyV8OEwsTQBZbJIfIY15NQ+vXe6ugxHHfxA11s2oc+xlhTfDYeHZNrrGufjk9sAUfdNOaWTNCXDweXLW1HjmEDH5ho0AEmdbj42hX7XffBiY0n1V0eanVNqK2+vBvu+9ZYW/tWXiYA9vKpD7KgyWpQnqh/MG5XaTX8wb0bxlbxIzYxaXV86EcM9spA5GUvecg59tBBv2tM5Jouz0VO7+vsaTkcg1Qi7/KFMWAvGGt56GNcxnAuDTjJB4atJWRcvkQ39r73v3kWO0HaJwI5IjDOMWnmTARSR4DETr3CzC9LBEjsLMvOpFNHgMROvcLML0sESOwsy86kU0eAxE69wswvSwRI7CzLzqRTR4DETr3CzC9LBEjsLMvOpFNHgMROvcLML0sESOwsy86kU0eAxE69wswvSwRI7CzLzqRTR4DETr3CzC9LBEjsLMvOpFNHgMROvcLML0sESOwsy86kU0eAxE69wswvSwRI7CzLzqRTR4DETr3CzC9LBP4DA9MhjwDf8YsAAAAASUVORK5CYII=;" vertex="1" parent="1">
                    <mxGeometry x="339.67" y="321" width="80.66" height="20" as="geometry"/>
                </mxCell>
                <mxCell id="24" style="edgeStyle=none;html=1;" edge="1" parent="1" source="19" target="12">
                    <mxGeometry relative="1" as="geometry"/>
                </mxCell>
                <mxCell id="19" value="" style="aspect=fixed;perimeter=ellipsePerimeter;html=1;align=center;shadow=0;dashed=0;spacingTop=3;image;image=img/lib/active_directory/tunnel.svg;" vertex="1" parent="1">
                    <mxGeometry x="325" y="388" width="110" height="22" as="geometry"/>
                </mxCell>
            </root>
        </mxGraphModel>
    </diagram>
</mxfile>